<svg width="1404" height="1872" viewBox="0 0 1404 1872" fill="none" xmlns="http://www.w3.org/2000/svg">
<rect width="1404" height="1872" fill="white"/>
<line x1="46.9199" y1="-2.23e-07" x2="46.9199" y2="1872" stroke="#06A9EA" stroke-width="4.46" stroke-miterlimit="3.99933" stroke-dasharray="4.46 40.23"/>
<line x1="91.6099" y1="-2.23e-07" x2="91.6099" y2="1872" stroke="#06A9EA" stroke-width="4.46" stroke-miterlimit="3.99933" stroke-dasharray="4.46 40.23"/>
<line x1="136.3" y1="-2.23e-07" x2="136.3" y2="1872" stroke="#06A9EA" stroke-width="4.46" stroke-miterlimit="3.99933" stroke-dasharray="4.46 40.23"/>
<line x1="180.99" y1="-2.23e-07" x2="180.99" y2="1872" stroke="#06A9EA" stroke-width="4.46" stroke-miterlimit="3.99933" stroke-dasharray="4.46 40.23"/>
<line x1="225.68" y1="-2.23e-07" x2="225.68" y2="1872" stroke="#06A9EA" stroke-width="4.46" stroke-miterlimit="3.99933" stroke-dasharray="4.46 40.23"/>
<line x1="270.37" y1="-2.23e-07" x2="270.37" y2="1872" stroke="#06A9EA" stroke-width="4.46" stroke-miterlimit="3.99933" stroke-dasharray="4.46 40.23"/>
<line x1="315.06" y1="-2.23e-07" x2="315.06" y2="1872" stroke="#06A9EA" stroke-width="4.46" stroke-miterlimit="3.99933" stroke-dasharray="4.46 40.23"/>
<line x1="359.75" y1="-2.23e-07" x2="359.75" y2="1872" stroke="#06A9EA" stroke-width="4.46" stroke-miterlimit="3.99933" stroke-dasharray="4.46 40.23"/>
<line x1="404.44" y1="-2.23e-07" x2="404.44" y2="1872" stroke="#06A9EA" stroke-width="4.46" stroke-miterlimit="3.99933" stroke-dasharray="4.46 40.23"/>
<line x1="449.13" y1="-2.23e-07" x2="449.13" y2="1872" stroke="#06A9EA" stroke-width="4.46" stroke-miterlimit="3.99933" stroke-dasharray="4.46 40.23"/>
<line x1="493.82" y1="-2.23e-07" x2="493.82" y2="1872" stroke="#06A9EA" stroke-width="4.46" stroke-miterlimit="3.99933" stroke-dasharray="4.46 40.23"/>
<line x1="538.51" y1="-2.23e-07" x2="538.51" y2="1872" stroke="#06A9EA" stroke-width="4.46" stroke-miterlimit="3.99933" stroke-dasharray="4.46 40.23"/>
<line x1="583.2" y1="-2.23e-07" x2="583.2" y2="1872" stroke="#06A9EA" stroke-width="4.46" stroke-miterlimit="3.99933" stroke-dasharray="4.46 40.23"/>
<line x1="627.89" y1="-2.23e-07" x2="627.89" y2="1872" stroke="#06A9EA" stroke-width="4.46" stroke-miterlimit="3.99933" stroke-dasharray="4.46 40.23"/>
<line x1="672.58" y1="-2.23e-07" x2="672.58" y2="1872" stroke="#06A9EA" stroke-width="4.46" stroke-miterlimit="3.99933" stroke-dasharray="4.46 40.23"/>
<line x1="717.27" y1="-2.23e-07" x2="717.27" y2="1872" stroke="#06A9EA" stroke-width="4.46" stroke-miterlimit="3.99933" stroke-dasharray="4.46 40.23"/>
<line x1="761.96" y1="-2.23e-07" x2="761.96" y2="1872" stroke="#06A9EA" stroke-width="4.46" stroke-miterlimit="3.99933" stroke-dasharray="4.46 40.23"/>
<line x1="806.65" y1="-2.23e-07" x2="806.65" y2="1872" stroke="#06A9EA" stroke-width="4.46" stroke-miterlimit="3.99933" stroke-dasharray="4.46 40.23"/>
<line x1="851.34" y1="-2.23e-07" x2="851.34" y2="1872" stroke="#06A9EA" stroke-width="4.46" stroke-miterlimit="3.99933" stroke-dasharray="4.46 40.23"/>
<line x1="896.03" y1="-2.23e-07" x2="896.03" y2="1872" stroke="#06A9EA" stroke-width="4.46" stroke-miterlimit="3.99933" stroke-dasharray="4.46 40.23"/>
<line x1="940.72" y1="-2.23e-07" x2="940.72" y2="1872" stroke="#06A9EA" stroke-width="4.46" stroke-miterlimit="3.99933" stroke-dasharray="4.46 40.23"/>
<line x1="985.41" y1="-2.23e-07" x2="985.41" y2="1872" stroke="#06A9EA" stroke-width="4.46" stroke-miterlimit="3.99933" stroke-dasharray="4.46 40.23"/>
<line x1="1030.1" y1="-2.23e-07" x2="1030.1" y2="1872" stroke="#06A9EA" stroke-width="4.46" stroke-miterlimit="3.99933" stroke-dasharray="4.46 40.23"/>
<line x1="1074.79" y1="-2.23e-07" x2="1074.79" y2="1872" stroke="#06A9EA" stroke-width="4.46" stroke-miterlimit="3.99933" stroke-dasharray="4.46 40.23"/>
<line x1="1119.48" y1="-2.23e-07" x2="1119.48" y2="1872" stroke="#06A9EA" stroke-width="4.46" stroke-miterlimit="3.99933" stroke-dasharray="4.46 40.23"/>
<line x1="1164.17" y1="-2.23e-07" x2="1164.17" y2="1872" stroke="#06A9EA" stroke-width="4.46" stroke-miterlimit="3.99933" stroke-dasharray="4.46 40.23"/>
<line x1="1208.86" y1="-2.23e-07" x2="1208.86" y2="1872" stroke="#06A9EA" stroke-width="4.46" stroke-miterlimit="3.99933" stroke-dasharray="4.46 40.23"/>
<line x1="1253.55" y1="-2.23e-07" x2="1253.55" y2="1872" stroke="#06A9EA" stroke-width="4.46" stroke-miterlimit="3.99933" stroke-dasharray="4.46 40.23"/>
<line x1="1298.24" y1="-2.23e-07" x2="1298.24" y2="1872" stroke="#06A9EA" stroke-width="4.46" stroke-miterlimit="3.99933" stroke-dasharray="4.46 40.23"/>
<line x1="1342.93" y1="-2.23e-07" x2="1342.93" y2="1872" stroke="#06A9EA" stroke-width="4.46" stroke-miterlimit="3.99933" stroke-dasharray="4.46 40.23"/>
<line x1="1387.62" y1="-2.23e-07" x2="1387.62" y2="1872" stroke="#06A9EA" stroke-width="4.46" stroke-miterlimit="3.99933" stroke-dasharray="4.46 40.23"/>
<line x1="175.415" y1="-1.115e-07" x2="175.415" y2="1872" stroke="#E03436" stroke-width="2.23" stroke-miterlimit="3.99933"/>
<line x1="184.335" y1="-1.115e-07" x2="184.335" y2="1872" stroke="#E03436" stroke-width="2.23" stroke-miterlimit="3.99933"/>
</svg>
