<svg width="1404" height="1872" viewBox="0 0 1404 1872" fill="none" xmlns="http://www.w3.org/2000/svg">
<g clip-path="url(#clip0_48_2077)">
<rect width="1404" height="1872" fill="white"/>
<line y1="43.5749" x2="1404" y2="43.5749" stroke="#06A9EA" stroke-width="2.23" stroke-miterlimit="3.99933"/>
<line y1="88.2649" x2="1404" y2="88.2649" stroke="#06A9EA" stroke-width="2.23" stroke-miterlimit="3.99933"/>
<line y1="132.955" x2="1404" y2="132.955" stroke="#06A9EA" stroke-width="2.23" stroke-miterlimit="3.99933"/>
<line y1="177.645" x2="1404" y2="177.645" stroke="#06A9EA" stroke-width="2.23" stroke-miterlimit="3.99933"/>
<line y1="222.335" x2="1404" y2="222.335" stroke="#06A9EA" stroke-width="2.23" stroke-miterlimit="3.99933"/>
<line y1="267.025" x2="1404" y2="267.025" stroke="#06A9EA" stroke-width="2.23" stroke-miterlimit="3.99933"/>
<line y1="311.715" x2="1404" y2="311.715" stroke="#06A9EA" stroke-width="2.23" stroke-miterlimit="3.99933"/>
<line y1="356.405" x2="1404" y2="356.405" stroke="#06A9EA" stroke-width="2.23" stroke-miterlimit="3.99933"/>
<line y1="401.095" x2="1404" y2="401.095" stroke="#06A9EA" stroke-width="2.23" stroke-miterlimit="3.99933"/>
<line y1="445.785" x2="1404" y2="445.785" stroke="#06A9EA" stroke-width="2.23" stroke-miterlimit="3.99933"/>
<line y1="490.475" x2="1404" y2="490.475" stroke="#06A9EA" stroke-width="2.23" stroke-miterlimit="3.99933"/>
<line y1="535.165" x2="1404" y2="535.165" stroke="#06A9EA" stroke-width="2.23" stroke-miterlimit="3.99933"/>
<line y1="579.855" x2="1404" y2="579.855" stroke="#06A9EA" stroke-width="2.23" stroke-miterlimit="3.99933"/>
<line y1="624.545" x2="1404" y2="624.545" stroke="#06A9EA" stroke-width="2.23" stroke-miterlimit="3.99933"/>
<line y1="669.235" x2="1404" y2="669.235" stroke="#06A9EA" stroke-width="2.23" stroke-miterlimit="3.99933"/>
<line y1="713.925" x2="1404" y2="713.925" stroke="#06A9EA" stroke-width="2.23" stroke-miterlimit="3.99933"/>
<line y1="758.615" x2="1404" y2="758.615" stroke="#06A9EA" stroke-width="2.23" stroke-miterlimit="3.99933"/>
<line y1="803.305" x2="1404" y2="803.305" stroke="#06A9EA" stroke-width="2.23" stroke-miterlimit="3.99933"/>
<line y1="847.995" x2="1404" y2="847.995" stroke="#06A9EA" stroke-width="2.23" stroke-miterlimit="3.99933"/>
<line y1="892.685" x2="1404" y2="892.685" stroke="#06A9EA" stroke-width="2.23" stroke-miterlimit="3.99933"/>
<line y1="937.375" x2="1404" y2="937.375" stroke="#06A9EA" stroke-width="2.23" stroke-miterlimit="3.99933"/>
<line y1="982.065" x2="1404" y2="982.065" stroke="#06A9EA" stroke-width="2.23" stroke-miterlimit="3.99933"/>
<line y1="1026.76" x2="1404" y2="1026.76" stroke="#06A9EA" stroke-width="2.23" stroke-miterlimit="3.99933"/>
<line y1="1071.45" x2="1404" y2="1071.45" stroke="#06A9EA" stroke-width="2.23" stroke-miterlimit="3.99933"/>
<line y1="1116.13" x2="1404" y2="1116.14" stroke="#06A9EA" stroke-width="2.23" stroke-miterlimit="3.99933"/>
<line y1="1160.82" x2="1404" y2="1160.82" stroke="#06A9EA" stroke-width="2.23" stroke-miterlimit="3.99933"/>
<line y1="1205.51" x2="1404" y2="1205.51" stroke="#06A9EA" stroke-width="2.23" stroke-miterlimit="3.99933"/>
<line y1="1250.21" x2="1404" y2="1250.21" stroke="#06A9EA" stroke-width="2.23" stroke-miterlimit="3.99933"/>
<line y1="1294.89" x2="1404" y2="1294.89" stroke="#06A9EA" stroke-width="2.23" stroke-miterlimit="3.99933"/>
<line y1="1339.59" x2="1404" y2="1339.59" stroke="#06A9EA" stroke-width="2.23" stroke-miterlimit="3.99933"/>
<line y1="1384.27" x2="1404" y2="1384.27" stroke="#06A9EA" stroke-width="2.23" stroke-miterlimit="3.99933"/>
<line y1="1428.97" x2="1404" y2="1428.97" stroke="#06A9EA" stroke-width="2.23" stroke-miterlimit="3.99933"/>
<line y1="1473.65" x2="1404" y2="1473.65" stroke="#06A9EA" stroke-width="2.23" stroke-miterlimit="3.99933"/>
<line y1="1518.34" x2="1404" y2="1518.34" stroke="#06A9EA" stroke-width="2.23" stroke-miterlimit="3.99933"/>
<line y1="1563.04" x2="1404" y2="1563.04" stroke="#06A9EA" stroke-width="2.23" stroke-miterlimit="3.99933"/>
<line y1="1607.72" x2="1404" y2="1607.72" stroke="#06A9EA" stroke-width="2.23" stroke-miterlimit="3.99933"/>
<line y1="1652.42" x2="1404" y2="1652.42" stroke="#06A9EA" stroke-width="2.23" stroke-miterlimit="3.99933"/>
<line y1="1697.1" x2="1404" y2="1697.1" stroke="#06A9EA" stroke-width="2.23" stroke-miterlimit="3.99933"/>
<line y1="1741.8" x2="1404" y2="1741.8" stroke="#06A9EA" stroke-width="2.23" stroke-miterlimit="3.99933"/>
<line y1="1786.48" x2="1404" y2="1786.48" stroke="#06A9EA" stroke-width="2.23" stroke-miterlimit="3.99933"/>
<line y1="1831.18" x2="1404" y2="1831.18" stroke="#06A9EA" stroke-width="2.23" stroke-miterlimit="3.99933"/>
<rect x="175.415" width="8.92" height="1872" fill="#E03436" fill-opacity="0.5" stroke="#E03436" stroke-width="2.23" stroke-miterlimit="3.99933"/>
</g>
<defs>
<clipPath id="clip0_48_2077">
<rect width="1404" height="1872" fill="white"/>
</clipPath>
</defs>
</svg>
