<svg width="1404" height="1872" viewBox="0 0 1404 1872" fill="none" xmlns="http://www.w3.org/2000/svg">
<rect width="1404" height="1872" fill="white"/>
<line x1="179" y1="43.5745" x2="1404" y2="43.5745" stroke="#06A9EA" stroke-width="2.23" stroke-miterlimit="3.99933"/>
<line x1="179" y1="88.2639" x2="1404" y2="88.2639" stroke="#06A9EA" stroke-width="2.23" stroke-miterlimit="3.99933"/>
<line x1="179" y1="132.955" x2="1404" y2="132.955" stroke="#06A9EA" stroke-width="2.23" stroke-miterlimit="3.99933"/>
<line x1="179" y1="176.76" x2="1404" y2="176.76" stroke="#06A9EA" stroke-width="4" stroke-miterlimit="3.99933"/>
<line x1="179" y1="222.334" x2="1404" y2="222.334" stroke="#06A9EA" stroke-width="2.23" stroke-miterlimit="3.99933"/>
<line x1="179" y1="267.024" x2="1404" y2="267.024" stroke="#06A9EA" stroke-width="2.23" stroke-miterlimit="3.99933"/>
<line x1="179" y1="311.715" x2="1404" y2="311.715" stroke="#06A9EA" stroke-width="2.23" stroke-miterlimit="3.99933"/>
<line x1="179" y1="355.52" x2="1404" y2="355.52" stroke="#06A9EA" stroke-width="4" stroke-miterlimit="3.99933"/>
<line x1="179" y1="401.094" x2="1404" y2="401.094" stroke="#06A9EA" stroke-width="2.23" stroke-miterlimit="3.99933"/>
<line x1="179" y1="445.785" x2="1404" y2="445.785" stroke="#06A9EA" stroke-width="2.23" stroke-miterlimit="3.99933"/>
<line x1="179" y1="490.475" x2="1404" y2="490.475" stroke="#06A9EA" stroke-width="2.23" stroke-miterlimit="3.99933"/>
<line x1="179" y1="535.164" x2="1404" y2="535.164" stroke="#06A9EA" stroke-width="2.23" stroke-miterlimit="3.99933"/>
<line x1="179" y1="579.854" x2="1404" y2="579.854" stroke="#06A9EA" stroke-width="2.23" stroke-miterlimit="3.99933"/>
<line x1="179" y1="624.545" x2="1404" y2="624.545" stroke="#06A9EA" stroke-width="2.23" stroke-miterlimit="3.99933"/>
<line x1="179" y1="669.235" x2="1404" y2="669.235" stroke="#06A9EA" stroke-width="2.23" stroke-miterlimit="3.99933"/>
<line x1="179" y1="713.924" x2="1404" y2="713.924" stroke="#06A9EA" stroke-width="2.23" stroke-miterlimit="3.99933"/>
<line x1="179" y1="758.614" x2="1404" y2="758.614" stroke="#06A9EA" stroke-width="2.23" stroke-miterlimit="3.99933"/>
<line x1="179" y1="803.305" x2="1404" y2="803.305" stroke="#06A9EA" stroke-width="2.23" stroke-miterlimit="3.99933"/>
<line x1="179" y1="847.994" x2="1404" y2="847.994" stroke="#06A9EA" stroke-width="2.23" stroke-miterlimit="3.99933"/>
<line x1="179" y1="892.684" x2="1404" y2="892.684" stroke="#06A9EA" stroke-width="2.23" stroke-miterlimit="3.99933"/>
<line x1="179" y1="937.375" x2="1404" y2="937.375" stroke="#06A9EA" stroke-width="2.23" stroke-miterlimit="3.99933"/>
<line x1="179" y1="982.065" x2="1404" y2="982.065" stroke="#06A9EA" stroke-width="2.23" stroke-miterlimit="3.99933"/>
<line x1="179" y1="1026.75" x2="1404" y2="1026.75" stroke="#06A9EA" stroke-width="2.23" stroke-miterlimit="3.99933"/>
<line x1="179" y1="1071.44" x2="1404" y2="1071.44" stroke="#06A9EA" stroke-width="2.23" stroke-miterlimit="3.99933"/>
<line x1="179" y1="1116.13" x2="1404" y2="1116.14" stroke="#06A9EA" stroke-width="2.23" stroke-miterlimit="3.99933"/>
<line x1="179" y1="1160.82" x2="1404" y2="1160.82" stroke="#06A9EA" stroke-width="2.23" stroke-miterlimit="3.99933"/>
<line x1="179" y1="1205.51" x2="1404" y2="1205.51" stroke="#06A9EA" stroke-width="2.23" stroke-miterlimit="3.99933"/>
<line x1="179" y1="1250.21" x2="1404" y2="1250.21" stroke="#06A9EA" stroke-width="2.23" stroke-miterlimit="3.99933"/>
<line x1="179" y1="1294.89" x2="1404" y2="1294.89" stroke="#06A9EA" stroke-width="2.23" stroke-miterlimit="3.99933"/>
<line x1="179" y1="1339.58" x2="1404" y2="1339.58" stroke="#06A9EA" stroke-width="2.23" stroke-miterlimit="3.99933"/>
<line x1="179" y1="1383.39" x2="1404" y2="1383.39" stroke="#06A9EA" stroke-width="4" stroke-miterlimit="3.99933"/>
<line x1="179" y1="1428.97" x2="1404" y2="1428.97" stroke="#06A9EA" stroke-width="2.23" stroke-miterlimit="3.99933"/>
<line x1="179" y1="1473.65" x2="1404" y2="1473.65" stroke="#06A9EA" stroke-width="2.23" stroke-miterlimit="3.99933"/>
<line x1="179" y1="1518.34" x2="1404" y2="1518.34" stroke="#06A9EA" stroke-width="2.23" stroke-miterlimit="3.99933"/>
<line x1="179" y1="1563.04" x2="1404" y2="1563.04" stroke="#06A9EA" stroke-width="2.23" stroke-miterlimit="3.99933"/>
<line x1="179" y1="1607.72" x2="1404" y2="1607.72" stroke="#06A9EA" stroke-width="2.23" stroke-miterlimit="3.99933"/>
<line x1="179" y1="1652.41" x2="1404" y2="1652.41" stroke="#06A9EA" stroke-width="2.23" stroke-miterlimit="3.99933"/>
<line x1="179" y1="1697.1" x2="1404" y2="1697.1" stroke="#06A9EA" stroke-width="2.23" stroke-miterlimit="3.99933"/>
<line x1="179" y1="1741.8" x2="1404" y2="1741.8" stroke="#06A9EA" stroke-width="2.23" stroke-miterlimit="3.99933"/>
<line x1="179" y1="1786.48" x2="1404" y2="1786.48" stroke="#06A9EA" stroke-width="2.23" stroke-miterlimit="3.99933"/>
<line x1="179" y1="1831.17" x2="1404" y2="1831.17" stroke="#06A9EA" stroke-width="2.23" stroke-miterlimit="3.99933"/>
<line x1="179.875" y1="-1.115e-07" x2="179.875" y2="1872" stroke="#06A9EA" stroke-width="2.23" stroke-miterlimit="3.99933"/>
<line x1="224.565" y1="-1.115e-07" x2="224.565" y2="1872" stroke="#06A9EA" stroke-width="2.23" stroke-miterlimit="3.99933"/>
<line x1="269.255" y1="-1.115e-07" x2="269.255" y2="1872" stroke="#06A9EA" stroke-width="2.23" stroke-miterlimit="3.99933"/>
<line x1="313.945" y1="-1.115e-07" x2="313.945" y2="1872" stroke="#06A9EA" stroke-width="2.23" stroke-miterlimit="3.99933"/>
<line x1="358.635" y1="-1.115e-07" x2="358.635" y2="1872" stroke="#06A9EA" stroke-width="2.23" stroke-miterlimit="3.99933"/>
<line x1="403.325" y1="-1.115e-07" x2="403.325" y2="1872" stroke="#06A9EA" stroke-width="2.23" stroke-miterlimit="3.99933"/>
<line x1="448.015" y1="-1.115e-07" x2="448.015" y2="1872" stroke="#06A9EA" stroke-width="2.23" stroke-miterlimit="3.99933"/>
<line x1="492.705" y1="-1.115e-07" x2="492.705" y2="1872" stroke="#06A9EA" stroke-width="2.23" stroke-miterlimit="3.99933"/>
<line x1="537.395" y1="-1.115e-07" x2="537.395" y2="1872" stroke="#06A9EA" stroke-width="2.23" stroke-miterlimit="3.99933"/>
<line x1="582.085" y1="-1.115e-07" x2="582.085" y2="1872" stroke="#06A9EA" stroke-width="2.23" stroke-miterlimit="3.99933"/>
<line x1="626.775" y1="-1.115e-07" x2="626.775" y2="1872" stroke="#06A9EA" stroke-width="2.23" stroke-miterlimit="3.99933"/>
<line x1="671.465" y1="-1.115e-07" x2="671.465" y2="1872" stroke="#06A9EA" stroke-width="2.23" stroke-miterlimit="3.99933"/>
<line x1="716.155" y1="-1.115e-07" x2="716.155" y2="1872" stroke="#06A9EA" stroke-width="2.23" stroke-miterlimit="3.99933"/>
<line x1="760.844" y1="-1.115e-07" x2="760.844" y2="1872" stroke="#06A9EA" stroke-width="2.23" stroke-miterlimit="3.99933"/>
<line x1="805.535" y1="-1.115e-07" x2="805.535" y2="1872" stroke="#06A9EA" stroke-width="2.23" stroke-miterlimit="3.99933"/>
<line x1="850.225" y1="-1.115e-07" x2="850.225" y2="1872" stroke="#06A9EA" stroke-width="2.23" stroke-miterlimit="3.99933"/>
<line x1="894.915" y1="-1.115e-07" x2="894.915" y2="1872" stroke="#06A9EA" stroke-width="2.23" stroke-miterlimit="3.99933"/>
<line x1="939.605" y1="-1.115e-07" x2="939.605" y2="1872" stroke="#06A9EA" stroke-width="2.23" stroke-miterlimit="3.99933"/>
<line x1="984.295" y1="-1.115e-07" x2="984.295" y2="1872" stroke="#06A9EA" stroke-width="2.23" stroke-miterlimit="3.99933"/>
<line x1="1028.99" y1="-1.115e-07" x2="1028.99" y2="1872" stroke="#06A9EA" stroke-width="2.23" stroke-miterlimit="3.99933"/>
<line x1="1073.67" y1="-1.115e-07" x2="1073.67" y2="1872" stroke="#06A9EA" stroke-width="2.23" stroke-miterlimit="3.99933"/>
<line x1="1118.37" y1="-1.115e-07" x2="1118.36" y2="1872" stroke="#06A9EA" stroke-width="2.23" stroke-miterlimit="3.99933"/>
<line x1="1163.05" y1="-1.115e-07" x2="1163.05" y2="1872" stroke="#06A9EA" stroke-width="2.23" stroke-miterlimit="3.99933"/>
<line x1="1207.74" y1="-1.115e-07" x2="1207.74" y2="1872" stroke="#06A9EA" stroke-width="2.23" stroke-miterlimit="3.99933"/>
<line x1="1252.44" y1="-1.115e-07" x2="1252.44" y2="1872" stroke="#06A9EA" stroke-width="2.23" stroke-miterlimit="3.99933"/>
<line x1="1297.12" y1="-1.115e-07" x2="1297.12" y2="1872" stroke="#06A9EA" stroke-width="2.23" stroke-miterlimit="3.99933"/>
<line x1="1341.82" y1="-1.115e-07" x2="1341.82" y2="1872" stroke="#06A9EA" stroke-width="2.23" stroke-miterlimit="3.99933"/>
<line x1="1386.5" y1="-1.115e-07" x2="1386.5" y2="1872" stroke="#06A9EA" stroke-width="2.23" stroke-miterlimit="3.99933"/>
<rect width="85" height="85" transform="translate(47 1296)" fill="white"/>
<path d="M109.218 1378.34L75.6681 1378.46C75.2609 1378.44 74.8555 1378.35 74.4559 1378.34L59.2455 1378.34C58.8282 1378.34 58.3924 1378.35 57.9807 1378.28C55.7664 1377.89 54.4237 1375.44 54.4193 1373.32L54.4196 1305.03C54.4192 1304.18 54.3616 1303.3 54.4478 1302.46C54.7955 1299.08 57.2515 1298.23 60.1229 1298.22L69.6304 1298.22L99.7025 1298.22C100.352 1298.23 101.162 1298.17 101.785 1298.38L102.711 1298.63C105.077 1299.42 106.083 1300.55 107.733 1302.21L114.677 1309.28C117.287 1311.92 119.048 1313.6 119.053 1317.45L119.079 1354.27C119.91 1354.75 120.097 1354.88 120.812 1355.63C129.051 1364.2 123.048 1378.31 111.427 1378.33L109.218 1378.34ZM62.346 1300.67L60.2783 1300.67C58.7783 1300.68 56.9397 1300.85 56.8859 1302.83L56.8878 1372.05C56.8874 1372.63 56.809 1373.31 56.9233 1373.89C57.0797 1374.67 57.7073 1375.83 58.6262 1375.88L104.065 1375.87C103.764 1375.73 103.455 1375.31 103.21 1375.06C101.523 1373.38 100.214 1371.68 99.403 1369.41L98.8509 1367.31L98.7155 1366.43C98.3575 1362.97 99.3144 1359.39 101.495 1356.66C104.809 1352.51 110.838 1350.35 115.881 1352.44C116.156 1352.56 116.45 1352.6 116.641 1352.84L116.615 1322.78C116.615 1322.25 116.663 1316.5 116.621 1316.41C116.262 1315.63 111.457 1314.96 110.543 1314.89C109.882 1314.84 109.209 1314.88 108.549 1314.8C105.671 1314.45 102.664 1311.51 102.578 1308.59L102.581 1303.56C102.589 1300.68 102.893 1300.67 99.3703 1300.67L62.346 1300.67ZM105.065 1302.96L105.024 1306.51C105.022 1307.34 104.933 1308.28 105.137 1309.09C105.469 1310.41 106.551 1311.67 107.845 1312.12C108.778 1312.45 109.858 1312.43 110.834 1312.53C112.224 1312.68 113.63 1312.86 114.985 1313.21C114.237 1312.23 113.387 1311.4 112.513 1310.53L106.381 1304.35C105.939 1303.9 105.531 1303.38 105.065 1302.96ZM111.113 1354.13C108.304 1354.26 105.769 1355.5 103.876 1357.57C97.6285 1364.41 102.705 1376.32 112.045 1375.85L112.359 1375.82C118.27 1375.41 122.612 1369.98 122.219 1364.17C122.017 1361.18 120.386 1358.38 118.149 1356.44C116.193 1354.74 113.659 1354.09 111.113 1354.13Z" fill="#0A3445"/>
<path d="M102.429 1326.44L64.2711 1326.44C63.8803 1326.45 63.452 1326.49 63.0659 1326.45C61.6855 1326.3 61.6792 1324.31 63.0355 1324.09C63.3573 1324.04 63.7075 1324.06 64.0331 1324.06L71.1042 1324.05L109.037 1324.05C109.469 1324.05 109.919 1324 110.347 1324.03C111.955 1324.14 111.792 1326.15 110.48 1326.41C110.208 1326.47 109.897 1326.44 109.62 1326.44L102.429 1326.44Z" fill="#0A3445"/>
<path d="M90.3092 1333.53L64.2383 1333.53C63.9141 1333.53 63.5697 1333.56 63.2487 1333.52C61.6657 1333.32 61.4624 1331.28 63.146 1331.12C63.8251 1331.05 64.5597 1331.1 65.2439 1331.1L83.0359 1331.1L110.426 1331.11C110.596 1331.12 110.718 1331.13 110.854 1331.24L110.895 1331.28C111.59 1331.88 111.741 1332.88 110.803 1333.38L110.684 1333.45C110.452 1333.55 110.137 1333.52 109.888 1333.52L90.3092 1333.53Z" fill="#0A3445"/>
<path d="M110.299 1340.54L63.1131 1340.57C61.7951 1340.53 61.4486 1338.4 63.3798 1338.14L108.866 1338.14C109.381 1338.14 109.917 1338.1 110.43 1338.14C111.951 1338.24 111.855 1340.32 110.299 1340.54Z" fill="#0A3445"/>
<path d="M107.138 1347.63C106.724 1347.61 106.294 1347.63 105.877 1347.63L63.8829 1347.64C63.6023 1347.65 63.2549 1347.7 62.9807 1347.64C61.734 1347.38 61.2252 1345.25 64.1613 1345.24L66.1856 1345.23L110.291 1345.25C111.453 1345.31 111.955 1346.72 110.973 1347.46L110.916 1347.5C110.629 1347.72 109.974 1347.63 109.616 1347.63L107.138 1347.63Z" fill="#0A3445"/>
<path d="M62.5445 1354.55C61.7742 1353.85 61.9174 1352.59 62.9979 1352.39C63.2586 1352.34 63.5545 1352.37 63.8205 1352.36L95.6625 1352.36C98.5652 1352.36 101.079 1352.42 103.935 1351.72H104.113L101.756 1353.33C101.183 1353.73 100.549 1354.48 99.8957 1354.72L99.654 1354.79C99.3762 1354.85 99.0226 1354.81 98.7351 1354.81L63.2743 1354.82C62.9601 1354.81 62.7957 1354.72 62.5445 1354.55Z" fill="#0A3445"/>
<path d="M63.5066 1361.91C63.3025 1361.95 62.8925 1362 62.7311 1361.87L62.6883 1361.83C61.6278 1360.97 61.9168 1359.68 63.0464 1359.49C63.2779 1359.46 63.527 1359.47 63.7616 1359.47L87.6011 1359.46C88.5458 1359.46 89.5022 1359.49 90.4447 1359.42C91.1657 1359.35 91.8262 1359.85 91.8614 1360.61C91.923 1361.94 90.6108 1361.92 89.7593 1361.92L63.5066 1361.91Z" fill="#0A3445"/>
<path d="M105.632 1367.06C105.243 1366.64 104.786 1366.19 104.609 1365.63C104.289 1364.63 105.45 1363.95 106.273 1364.45C106.73 1364.72 107.12 1365.19 107.516 1365.56C108.182 1366.16 108.886 1366.76 109.633 1367.26C110.935 1366.61 113.557 1363.2 114.479 1362.04C115.187 1361.15 115.91 1359.86 116.986 1359.38L117.185 1359.37C118.341 1359.35 118.751 1360.44 118.075 1361.43L114.522 1365.87C113.799 1366.71 113.079 1367.55 112.292 1368.33C109.605 1370.99 107.854 1369.31 105.632 1367.06Z" fill="#0A3445"/>
<path d="M67.2288 1369L63.1683 1369C61.6873 1369 61.6068 1367.26 62.7749 1366.77L62.8386 1366.74C63.188 1366.59 63.7157 1366.66 64.0964 1366.66L84.5714 1366.65L87.4078 1366.64C87.9523 1366.64 88.5478 1366.58 89.0847 1366.65C90.4353 1366.83 89.9918 1368.87 88.8475 1368.98C88.0961 1369.05 87.2856 1368.99 86.5286 1369L67.2288 1369Z" fill="#0A3445"/>
<path d="M78.7917 1379.78C78.6152 1379.8 78.4304 1379.79 78.2524 1379.78L79.2384 1379.65C79.4127 1379.61 79.7185 1379.61 79.8913 1379.65C79.5505 1379.76 79.1468 1379.75 78.7917 1379.78Z" fill="#0A3445"/>
<rect width="87" height="87" transform="translate(46 358)" fill="white"/>
<path d="M82.1296 441.78L59.2944 441.778C57.2093 441.779 55.77 442.38 55.7651 439.777L55.7656 370.819C55.7661 370.191 55.7394 369.559 55.8521 368.939C56.2644 366.668 58.159 364.927 60.4565 364.692C61.0597 364.63 61.7 364.677 62.3084 364.665C62.817 364.655 62.7082 364.71 62.8374 364.218C63.3181 362.386 65.0829 360.565 67.0982 360.973C68.5797 361.273 69.5367 362.465 70.1894 363.751C70.3389 364.046 70.4116 364.414 70.5902 364.68L76.1501 364.619L76.2495 364.07C76.6442 362.347 78.6782 360.519 80.5402 360.992L80.6216 361.013C82.6797 361.533 83.2299 363.09 83.976 364.732L89.5532 364.653C89.666 364.479 89.6476 364.206 89.699 364.003C90.0804 362.496 91.6724 361.04 93.2109 360.906C95.6969 360.902 96.4462 362.91 97.3794 364.654L102.859 364.664C103.479 360.155 108.681 359.572 110.443 364.123C110.685 364.749 110.552 364.667 111.222 364.668C111.836 364.668 112.518 364.613 113.126 364.693C115.149 364.963 117.117 366.947 117.426 368.949C117.504 369.454 117.488 369.984 117.489 370.495L117.482 423.01C117.467 424.358 117.319 424.283 118.334 425.168C118.876 425.641 119.539 426.076 120.197 426.373C121.051 426.759 122.14 426.426 122.837 427.094C124.992 429.159 119.137 436.991 117.519 438.614C116.969 439.166 114.443 441.452 113.736 441.665C113.224 441.819 112.628 441.783 112.096 441.783L82.1296 441.78ZM66.3135 363.331C65.8895 363.545 65.6103 363.966 65.4674 364.41L65.3955 364.684L67.0491 364.677L67.9196 364.661C67.4669 364.223 67.1038 363.133 66.3135 363.331ZM79.7397 363.351C79.1633 363.665 78.9353 364.064 78.7285 364.666L80.3454 364.677L81.2916 364.648C80.8357 364.21 80.8192 363.33 79.7397 363.351ZM93.1489 363.394C92.6595 363.684 92.3832 364.035 92.2452 364.592L93.9295 364.677L94.7555 364.653C94.3518 364.228 94.0168 363.434 93.3445 363.387L93.1489 363.394ZM106.336 363.446C105.713 363.632 105.703 364.145 105.495 364.665L107.13 364.677L107.968 364.629C107.416 364.121 107.356 363.396 106.336 363.446ZM111.196 367.184C111.106 367.841 111.017 368.509 110.82 369.154C110.717 369.494 110.515 369.84 110.452 370.184C110.377 370.598 110.558 371.001 110.497 371.424C110.379 372.251 109.927 372.894 109.268 373.402C106.613 375.448 102.486 371.852 106.19 369.419C107.024 368.871 108.171 368.583 108.559 367.569C108.595 367.474 108.644 367.424 108.704 367.345L97.7482 367.294C97.6236 367.815 97.6183 368.339 97.4627 368.863C97.0319 370.315 97.0316 369.409 97.0376 371.079C97.0413 372.094 96.3625 373.154 95.5098 373.682C92.7987 375.361 88.9799 371.542 93.0683 369.222C94.4896 368.416 94.4172 368.638 95.3711 367.349C95.158 367.303 94.911 367.328 94.6911 367.327L84.8188 367.442C84.5906 367.443 84.2771 367.405 84.0654 367.47C83.9879 368.2 84.0533 369.878 83.6028 370.404C83.8207 370.961 83.8752 371.268 83.6297 371.835C81.9188 375.784 76.5394 373.628 78.1365 370.631C78.9149 369.17 81.1437 368.861 81.6676 367.569C81.7058 367.475 81.7617 367.423 81.8202 367.345L70.9415 367.31L70.8344 368.541C70.8074 368.851 70.7311 369.143 70.8232 369.448L70.5537 369.311C69.8169 369.798 70.0949 370.403 70.1595 371.132C70.3398 373.167 68.219 374.281 66.3588 373.926C64.0228 373.481 63.749 370.72 65.9583 369.374C66.7449 368.894 67.6037 368.574 68.1789 367.816C68.3157 367.636 68.343 367.454 68.549 367.327L61.7371 367.298C60.5701 367.252 59.5963 367.337 58.826 368.372L58.5736 368.773C58.4104 369.048 58.399 369.329 58.3837 369.642L58.3674 399.525L58.3701 439.208C58.4593 439.272 61.8194 439.221 62.1581 439.221H111.88C113.898 439.216 113.051 438.548 114.648 437.806C115.088 437.602 114.883 436.587 114.884 436.173L114.89 371.36C114.888 368.108 114.387 367.283 111.196 367.184ZM117.448 427.554L117.402 434.441L118.647 432.701L120.467 429.181C119.456 429.005 118.159 428.297 117.448 427.554Z" fill="#0A3445"/>
<path d="M72.9065 385.85L66.818 385.852C64.8863 385.85 64.7745 383.977 65.9519 383.405L66.0158 383.375C66.1772 383.298 66.3325 383.28 66.5097 383.274L101.705 383.271L107.545 383.268C107.827 383.268 108.157 383.238 108.423 383.337L108.489 383.364C108.903 383.531 109.588 384.176 109.4 384.696L109.383 384.741C108.967 385.948 108.016 385.845 106.979 385.847L72.9065 385.85Z" fill="#0A3445"/>
<path d="M107.988 394.252L66.5875 394.26C64.8271 394.16 64.5839 392.017 66.5683 391.701L106.558 391.708C107.069 391.708 107.591 391.683 108.101 391.718C109.841 391.84 109.743 394.162 107.988 394.252Z" fill="#0A3445"/>
<path d="M93.9894 402.691L69.3946 402.695C68.138 402.697 65.2107 403.242 65.1871 401.326C65.1706 399.99 66.9487 400.138 67.8202 400.141L80.482 400.139L106.987 400.138C107.406 400.138 107.838 400.114 108.255 400.145C109.696 400.252 109.712 402.464 108.239 402.65C107.698 402.718 107.122 402.684 106.577 402.685L93.9894 402.691Z" fill="#0A3445"/>
<path d="M108.075 411.101L67.953 411.115C67.4578 411.117 66.9518 411.146 66.4582 411.119C64.8881 411.034 64.5739 408.779 66.666 408.566L108.358 408.572C109.92 408.648 109.633 410.942 108.075 411.101Z" fill="#0A3445"/>
<path d="M78.5666 419.449L67.5488 419.453C67.1007 419.454 66.6304 419.482 66.1847 419.438C65.7335 419.393 65.2139 418.635 65.1973 418.235C65.1409 416.878 66.7189 416.915 67.6068 416.912L96.1511 416.911L108.042 416.902C108.197 416.908 108.352 416.917 108.497 416.978L108.553 417.004C109.949 417.637 109.356 419.35 108.325 419.444C107.982 419.475 107.617 419.452 107.272 419.452L78.5666 419.449Z" fill="#0A3445"/>
<path d="M69.293 427.924L67.7084 427.931C67.2252 427.932 66.4386 428.026 66.0128 427.786L65.9657 427.758C64.6072 426.983 65.1428 425.501 66.4257 425.38C67.3222 425.294 68.2937 425.366 69.1966 425.366L93.0288 425.365L95.2286 425.359C95.534 425.358 95.918 425.312 96.2132 425.375C97.4845 425.645 97.3054 427.751 95.9688 427.905C95.6416 427.942 95.3005 427.923 94.9709 427.923L69.293 427.924Z" fill="#0A3445"/>
<rect width="86" height="86" transform="translate(47 268)" fill="white"/>
<path d="M90.6602 289.75C82.4939 290.024 81.4219 278.675 89.4471 277.633C92.515 277.356 95.6554 279.531 96.0671 282.685C96.5243 286.19 94.1954 289.306 90.6602 289.75ZM89.9475 280.198C85.0398 280.529 85.8146 287.273 90.1784 287.046C94.8312 286.744 94.3802 280.059 89.9475 280.198Z" fill="#0A3445"/>
<path d="M61.2327 298.147C57.9806 298.215 54.8825 295.822 54.6111 292.518C54.2986 288.714 56.759 285.63 60.6081 285.361C61.9862 285.253 63.5953 285.825 64.6741 286.653C69.2677 290.175 67.2039 297.393 61.2327 298.147ZM60.4593 288.042C55.5464 288.829 56.6781 296.026 61.2463 295.363C66.059 294.603 65.1206 287.553 60.4593 288.042Z" fill="#0A3445"/>
<path d="M119.657 298.142C111.664 298.408 110.082 286.469 118.682 285.401C121.901 285.118 125.045 287.61 125.383 290.844C125.762 294.484 123.36 297.777 119.657 298.142ZM118.775 288.044C113.913 288.781 114.854 295.591 119.541 295.418C122.995 294.828 123.869 290.514 121.247 288.706C120.572 288.24 119.604 287.9 118.775 288.044Z" fill="#0A3445"/>
<path d="M103.841 315.158L74.9176 315.156C71.1437 315.154 69.1417 315.601 68.1982 311.131L67.7793 308.778C67.2801 305.476 66.5746 304.065 63.197 302.606C61.2067 301.747 58.9448 301.852 56.952 302.648C55.5333 303.215 53.2432 304.535 52.6144 306.009C52.7746 307.511 53.0657 309.012 53.3331 310.497L55.6042 323.067C56.2016 326.192 56.2493 328.5 60.0247 328.511L67.9864 328.529C67.8377 328.379 67.7919 328.178 67.7002 327.991C66.7997 326.157 66.9241 325.72 64.9186 325.537C61.4949 325.226 57.7026 323.637 56.4803 320.141C55.7734 318.119 57.5257 317.153 58.3583 317.967C58.6445 318.246 58.7749 318.677 58.926 319.04C60.9815 323.976 66.1293 321.962 68.3315 324.05C69.5451 325.201 70.1372 327.132 70.7567 328.639L73.0192 333.927C73.32 334.658 73.5923 335.456 73.9902 336.137C74.6762 337.312 76.2257 337.084 76.7755 335.932C77.1331 335.183 76.4283 333.812 76.1725 333.107L72.7528 323.37C72.1532 321.649 70.5454 320.161 68.737 319.81C68.0064 319.668 67.1818 319.688 66.5052 319.35C65.0966 318.644 64.8005 317.267 64.5743 315.867L63.2531 307.789C63.1918 307.518 63.0923 307.219 63.0764 306.943C62.9887 305.422 65.0034 304.655 65.6728 306.445C65.9736 307.249 66.0438 308.218 66.1831 309.063L67.2384 315.872C67.4121 316.791 67.7302 316.83 68.5761 317.055C73.4195 318.347 74.3289 319.854 75.8152 324.154L78.6398 332.114C78.9376 332.947 79.265 333.792 79.4237 334.665C80.2575 339.247 74.1582 341.517 71.7111 337.559C71.2345 336.788 70.928 335.909 70.5874 335.072L69.272 331.869C69.0862 331.426 69.1976 331.208 68.7207 331.174L59.6697 331.139C55.9619 331.12 54.0633 329.081 53.3328 325.505L50.0711 307.186C49.8412 305.737 49.9629 305.156 50.8703 303.925C52.7619 301.359 55.6256 299.987 58.6947 299.492L59.1128 299.441C63.1635 299.124 67.9241 301.023 69.6155 304.877C70.0613 305.892 70.235 307.044 70.3186 308.143C71.012 308.039 71.7309 308.062 72.4303 308.035L75.9595 307.906L76.8434 302.735C77.4291 299.599 77.9667 295.842 81.523 294.772C82.5519 294.463 83.6515 294.521 84.6719 294.233C85.3476 294.043 85.7843 293.47 86.4525 293.287C88.0393 293.21 87.929 294.501 88.2132 295.684L88.2316 295.758C88.5123 296.936 88.9302 297.889 89.1388 299.138L89.4573 301.734C89.5562 302.727 89.412 303.026 90.1021 303.78C90.476 303.257 90.5767 301.227 90.6692 300.551L91.0097 298.508C91.2196 297.54 91.628 296.642 91.847 295.687C92.0413 294.841 91.9325 293.408 93.1046 293.269C93.6203 293.208 94.0338 293.465 94.4322 293.752C95.4525 294.487 96.9875 294.379 98.1861 294.685C101.154 295.444 102.203 297.762 102.744 300.468L104 307.917L109.671 308.074C109.919 306.825 109.992 305.596 110.602 304.445C111.766 302.247 114.246 300.56 116.576 299.849C121.16 298.45 126.517 300.248 129.299 304.158C130.521 305.874 130.026 306.829 129.677 308.72L126.516 326.374C125.801 329.369 123.643 331.131 120.459 331.139L113.913 331.146C112.952 331.147 111.976 331.116 111.017 331.179C110.86 331.332 110.736 331.8 110.642 332.02L108.735 336.689C106.295 342.107 99.7983 339.023 100.568 334.773C100.761 333.706 101.224 332.662 101.589 331.642L104.537 323.33C105.53 320.413 106.506 318.632 109.783 317.594C111.358 317.095 112.493 317.427 112.802 315.655L114.039 307.552C114.152 306.775 114.257 305.716 115.154 305.446C116.145 305.147 117.002 306.23 116.874 307.18L115.503 315.574C115.279 317.131 115.019 318.88 113.259 319.468C112.696 319.656 112.062 319.666 111.478 319.764C108.93 320.194 107.928 321.702 107.16 323.885L104.696 330.947C104.247 332.235 103.697 333.509 103.317 334.818C102.927 336.163 103.851 337.189 105.179 336.79C105.976 336.551 106.266 335.686 106.558 334.996L108.97 329.219C109.856 327.109 111.001 323.631 113.526 323.087C114.735 322.827 115.942 322.868 117.143 322.486C119.591 321.708 120.253 320.654 121.326 318.602C122.442 316.467 125.192 318.233 122.73 321.726C121.372 323.654 118.962 324.974 116.663 325.352C113.978 325.792 113.771 324.879 112.451 327.805C112.362 328.003 112.331 328.261 112.211 328.436L119.466 328.51C122.793 328.501 123.436 327.893 124.119 324.474L127.064 308.28C127.188 307.527 127.358 306.742 127.367 305.979C125.514 302.82 120.454 301.221 117.099 302.428C116.222 302.743 115.409 303.23 114.66 303.779C112.897 305.071 112.747 305.753 112.407 307.844L111.997 310.27C111.296 314.311 110.49 315.139 106.607 315.152L103.841 315.158ZM94.1255 296.487C93.7681 297.951 93.455 299.45 93.264 300.946C93.1318 301.981 93.132 303.074 92.8765 304.085C92.8169 304.321 91.5238 307.765 91.3868 307.932L98.5977 307.925L101.34 307.903L100.302 301.88C99.7541 299.025 99.8158 297.94 96.7396 297.165C95.8643 296.945 94.9868 296.761 94.1255 296.487ZM85.7373 296.619L83.071 297.214C81.2685 297.664 80.7229 298.013 80.1685 299.915C79.9022 300.828 79.74 301.766 79.5698 302.701L78.899 306.549C78.6129 308.166 78.385 307.926 79.721 307.926L81.6224 307.925L88.6255 307.815C88.5437 307.682 88.5137 307.531 88.4586 307.386L88.0996 306.539C86.8434 303.632 87.0328 303.628 86.6531 300.566C86.6037 300.168 86.0413 296.702 85.8433 296.6L85.7373 296.619ZM78.6932 310.545L73.384 310.564C72.8274 310.593 71.2829 310.684 70.861 310.798C71.0402 311.592 71.1697 312.474 72.1112 312.505L101.474 312.52L105.673 312.52C106.571 312.519 107.574 312.602 108.453 312.42C108.822 312.026 109.172 311.442 109.167 310.877L109.157 310.803C107.527 310.508 105.914 310.551 104.265 310.548L78.6932 310.545Z" fill="#0A3445"/>
<path d="M90.3574 296.837C88.518 296.698 88.2203 294.484 89.8943 293.915C91.807 293.853 91.8649 296.473 90.3574 296.837Z" fill="#0A3445"/>
<g clip-path="url(#clip0_65_115473)">
<rect width="130" height="41" transform="translate(35 113)" fill="white"/>
<text fill="#0A3445" xml:space="preserve" style="white-space: pre" font-family="Open Sans" font-size="36" font-weight="bold" letter-spacing="0em"><tspan x="35" y="142.699">Topic:</tspan></text>
</g>
<defs>
<clipPath id="clip0_65_115473">
<rect width="130" height="41" fill="white" transform="translate(35 113)"/>
</clipPath>
</defs>
</svg>
