<svg width="1404" height="1872" viewBox="0 0 1404 1872" fill="none" xmlns="http://www.w3.org/2000/svg">
<rect width="1404" height="1872" fill="white"/>
<line x1="179" y1="43.5745" x2="1404" y2="43.5745" stroke="#06A9EA" stroke-width="2.23" stroke-miterlimit="3.99933"/>
<line x1="179" y1="88.2639" x2="1404" y2="88.2639" stroke="#06A9EA" stroke-width="2.23" stroke-miterlimit="3.99933"/>
<line x1="179" y1="132.955" x2="1404" y2="132.955" stroke="#06A9EA" stroke-width="2.23" stroke-miterlimit="3.99933"/>
<line x1="179" y1="176.76" x2="1404" y2="176.76" stroke="#06A9EA" stroke-width="4" stroke-miterlimit="3.99933"/>
<line x1="179" y1="222.334" x2="1404" y2="222.334" stroke="#06A9EA" stroke-width="2.23" stroke-miterlimit="3.99933"/>
<line x1="179" y1="267.024" x2="1404" y2="267.024" stroke="#06A9EA" stroke-width="2.23" stroke-miterlimit="3.99933"/>
<line x1="179" y1="311.715" x2="1404" y2="311.715" stroke="#06A9EA" stroke-width="2.23" stroke-miterlimit="3.99933"/>
<line x1="179" y1="356.405" x2="1404" y2="356.405" stroke="#06A9EA" stroke-width="2.23" stroke-miterlimit="3.99933"/>
<line x1="179" y1="401.094" x2="1404" y2="401.094" stroke="#06A9EA" stroke-width="2.23" stroke-miterlimit="3.99933"/>
<line x1="179" y1="445.785" x2="1404" y2="445.785" stroke="#06A9EA" stroke-width="2.23" stroke-miterlimit="3.99933"/>
<line x1="179" y1="490.475" x2="1404" y2="490.475" stroke="#06A9EA" stroke-width="2.23" stroke-miterlimit="3.99933"/>
<line x1="179" y1="535.164" x2="1404" y2="535.164" stroke="#06A9EA" stroke-width="2.23" stroke-miterlimit="3.99933"/>
<line x1="179" y1="579.854" x2="1404" y2="579.854" stroke="#06A9EA" stroke-width="2.23" stroke-miterlimit="3.99933"/>
<line x1="179" y1="624.545" x2="1404" y2="624.545" stroke="#06A9EA" stroke-width="2.23" stroke-miterlimit="3.99933"/>
<line x1="179" y1="669.235" x2="1404" y2="669.235" stroke="#06A9EA" stroke-width="2.23" stroke-miterlimit="3.99933"/>
<line x1="179" y1="713.924" x2="1404" y2="713.924" stroke="#06A9EA" stroke-width="2.23" stroke-miterlimit="3.99933"/>
<line x1="179" y1="758.614" x2="1404" y2="758.614" stroke="#06A9EA" stroke-width="2.23" stroke-miterlimit="3.99933"/>
<line x1="179" y1="803.305" x2="1404" y2="803.305" stroke="#06A9EA" stroke-width="2.23" stroke-miterlimit="3.99933"/>
<line x1="179" y1="847.994" x2="1404" y2="847.994" stroke="#06A9EA" stroke-width="2.23" stroke-miterlimit="3.99933"/>
<line x1="179" y1="892.684" x2="1404" y2="892.684" stroke="#06A9EA" stroke-width="2.23" stroke-miterlimit="3.99933"/>
<line x1="179" y1="937.375" x2="1404" y2="937.375" stroke="#06A9EA" stroke-width="2.23" stroke-miterlimit="3.99933"/>
<line x1="179" y1="982.065" x2="1404" y2="982.065" stroke="#06A9EA" stroke-width="2.23" stroke-miterlimit="3.99933"/>
<line x1="179" y1="1026.75" x2="1404" y2="1026.75" stroke="#06A9EA" stroke-width="2.23" stroke-miterlimit="3.99933"/>
<line x1="179" y1="1071.44" x2="1404" y2="1071.44" stroke="#06A9EA" stroke-width="2.23" stroke-miterlimit="3.99933"/>
<line x1="179" y1="1116.13" x2="1404" y2="1116.14" stroke="#06A9EA" stroke-width="2.23" stroke-miterlimit="3.99933"/>
<line x1="179" y1="1160.82" x2="1404" y2="1160.82" stroke="#06A9EA" stroke-width="2.23" stroke-miterlimit="3.99933"/>
<line x1="179" y1="1205.51" x2="1404" y2="1205.51" stroke="#06A9EA" stroke-width="2.23" stroke-miterlimit="3.99933"/>
<line x1="179" y1="1250.21" x2="1404" y2="1250.21" stroke="#06A9EA" stroke-width="2.23" stroke-miterlimit="3.99933"/>
<line x1="179" y1="1294.89" x2="1404" y2="1294.89" stroke="#06A9EA" stroke-width="2.23" stroke-miterlimit="3.99933"/>
<line x1="179" y1="1339.58" x2="1404" y2="1339.58" stroke="#06A9EA" stroke-width="2.23" stroke-miterlimit="3.99933"/>
<line x1="179" y1="1383.39" x2="1404" y2="1383.39" stroke="#06A9EA" stroke-width="4" stroke-miterlimit="3.99933"/>
<line x1="179" y1="1428.97" x2="1404" y2="1428.97" stroke="#06A9EA" stroke-width="2.23" stroke-miterlimit="3.99933"/>
<line x1="179" y1="1473.65" x2="1404" y2="1473.65" stroke="#06A9EA" stroke-width="2.23" stroke-miterlimit="3.99933"/>
<line x1="179" y1="1518.34" x2="1404" y2="1518.34" stroke="#06A9EA" stroke-width="2.23" stroke-miterlimit="3.99933"/>
<line x1="179" y1="1563.04" x2="1404" y2="1563.04" stroke="#06A9EA" stroke-width="2.23" stroke-miterlimit="3.99933"/>
<line x1="179" y1="1607.72" x2="1404" y2="1607.72" stroke="#06A9EA" stroke-width="2.23" stroke-miterlimit="3.99933"/>
<line x1="179" y1="1652.41" x2="1404" y2="1652.41" stroke="#06A9EA" stroke-width="2.23" stroke-miterlimit="3.99933"/>
<line x1="179" y1="1697.1" x2="1404" y2="1697.1" stroke="#06A9EA" stroke-width="2.23" stroke-miterlimit="3.99933"/>
<line x1="179" y1="1741.8" x2="1404" y2="1741.8" stroke="#06A9EA" stroke-width="2.23" stroke-miterlimit="3.99933"/>
<line x1="179" y1="1786.48" x2="1404" y2="1786.48" stroke="#06A9EA" stroke-width="2.23" stroke-miterlimit="3.99933"/>
<line x1="179" y1="1831.17" x2="1404" y2="1831.17" stroke="#06A9EA" stroke-width="2.23" stroke-miterlimit="3.99933"/>
<line x1="179.875" y1="-1.115e-07" x2="179.875" y2="1872" stroke="#06A9EA" stroke-width="2.23" stroke-miterlimit="3.99933"/>
<line x1="224.565" y1="-1.115e-07" x2="224.565" y2="1872" stroke="#06A9EA" stroke-width="2.23" stroke-miterlimit="3.99933"/>
<line x1="269.255" y1="-1.115e-07" x2="269.255" y2="1872" stroke="#06A9EA" stroke-width="2.23" stroke-miterlimit="3.99933"/>
<line x1="313.945" y1="-1.115e-07" x2="313.945" y2="1872" stroke="#06A9EA" stroke-width="2.23" stroke-miterlimit="3.99933"/>
<line x1="358.635" y1="-1.115e-07" x2="358.635" y2="1872" stroke="#06A9EA" stroke-width="2.23" stroke-miterlimit="3.99933"/>
<line x1="403.325" y1="-1.115e-07" x2="403.325" y2="1872" stroke="#06A9EA" stroke-width="2.23" stroke-miterlimit="3.99933"/>
<line x1="448.014" y1="-1.115e-07" x2="448.014" y2="1872" stroke="#06A9EA" stroke-width="2.23" stroke-miterlimit="3.99933"/>
<line x1="492.705" y1="-1.115e-07" x2="492.705" y2="1872" stroke="#06A9EA" stroke-width="2.23" stroke-miterlimit="3.99933"/>
<line x1="537.394" y1="-1.115e-07" x2="537.394" y2="1872" stroke="#06A9EA" stroke-width="2.23" stroke-miterlimit="3.99933"/>
<line x1="582.085" y1="-1.115e-07" x2="582.085" y2="1872" stroke="#06A9EA" stroke-width="2.23" stroke-miterlimit="3.99933"/>
<line x1="626.775" y1="-1.115e-07" x2="626.775" y2="1872" stroke="#06A9EA" stroke-width="2.23" stroke-miterlimit="3.99933"/>
<line x1="671.465" y1="-1.115e-07" x2="671.465" y2="1872" stroke="#06A9EA" stroke-width="2.23" stroke-miterlimit="3.99933"/>
<line x1="716.155" y1="-1.115e-07" x2="716.155" y2="1872" stroke="#06A9EA" stroke-width="2.23" stroke-miterlimit="3.99933"/>
<line x1="760.844" y1="-1.115e-07" x2="760.844" y2="1872" stroke="#06A9EA" stroke-width="2.23" stroke-miterlimit="3.99933"/>
<line x1="805.535" y1="-1.115e-07" x2="805.535" y2="1872" stroke="#06A9EA" stroke-width="2.23" stroke-miterlimit="3.99933"/>
<line x1="850.224" y1="-1.115e-07" x2="850.224" y2="1872" stroke="#06A9EA" stroke-width="2.23" stroke-miterlimit="3.99933"/>
<line x1="894.915" y1="-1.115e-07" x2="894.915" y2="1872" stroke="#06A9EA" stroke-width="2.23" stroke-miterlimit="3.99933"/>
<line x1="939.605" y1="-1.115e-07" x2="939.605" y2="1872" stroke="#06A9EA" stroke-width="2.23" stroke-miterlimit="3.99933"/>
<line x1="984.295" y1="-1.115e-07" x2="984.295" y2="1872" stroke="#06A9EA" stroke-width="2.23" stroke-miterlimit="3.99933"/>
<line x1="1028.99" y1="-1.115e-07" x2="1028.99" y2="1872" stroke="#06A9EA" stroke-width="2.23" stroke-miterlimit="3.99933"/>
<line x1="1073.67" y1="-1.115e-07" x2="1073.67" y2="1872" stroke="#06A9EA" stroke-width="2.23" stroke-miterlimit="3.99933"/>
<line x1="1118.37" y1="-1.115e-07" x2="1118.36" y2="1872" stroke="#06A9EA" stroke-width="2.23" stroke-miterlimit="3.99933"/>
<line x1="1163.05" y1="-1.115e-07" x2="1163.05" y2="1872" stroke="#06A9EA" stroke-width="2.23" stroke-miterlimit="3.99933"/>
<line x1="1207.74" y1="-1.115e-07" x2="1207.74" y2="1872" stroke="#06A9EA" stroke-width="2.23" stroke-miterlimit="3.99933"/>
<line x1="1252.44" y1="-1.115e-07" x2="1252.44" y2="1872" stroke="#06A9EA" stroke-width="2.23" stroke-miterlimit="3.99933"/>
<line x1="1297.12" y1="-1.115e-07" x2="1297.12" y2="1872" stroke="#06A9EA" stroke-width="2.23" stroke-miterlimit="3.99933"/>
<line x1="1341.82" y1="-1.115e-07" x2="1341.82" y2="1872" stroke="#06A9EA" stroke-width="2.23" stroke-miterlimit="3.99933"/>
<line x1="1386.5" y1="-1.115e-07" x2="1386.5" y2="1872" stroke="#06A9EA" stroke-width="2.23" stroke-miterlimit="3.99933"/>
<rect width="85" height="85" transform="translate(51 1296)" fill="white"/>
<path d="M113.218 1378.34L79.6681 1378.46C79.2609 1378.44 78.8555 1378.35 78.4559 1378.34L63.2455 1378.34C62.8282 1378.34 62.3924 1378.35 61.9807 1378.28C59.7664 1377.89 58.4237 1375.44 58.4193 1373.32L58.4196 1305.03C58.4192 1304.18 58.3616 1303.3 58.4478 1302.46C58.7955 1299.08 61.2515 1298.23 64.1229 1298.22L73.6304 1298.22L103.703 1298.22C104.352 1298.23 105.162 1298.17 105.785 1298.38L106.711 1298.63C109.077 1299.42 110.083 1300.55 111.733 1302.21L118.677 1309.28C121.287 1311.92 123.048 1313.6 123.053 1317.45L123.079 1354.27C123.91 1354.75 124.097 1354.88 124.812 1355.63C133.051 1364.2 127.048 1378.31 115.427 1378.33L113.218 1378.34ZM66.346 1300.67L64.2783 1300.67C62.7783 1300.68 60.9397 1300.85 60.8859 1302.83L60.8878 1372.05C60.8874 1372.63 60.809 1373.31 60.9233 1373.89C61.0797 1374.67 61.7073 1375.83 62.6262 1375.88L108.065 1375.87C107.764 1375.73 107.455 1375.31 107.21 1375.06C105.523 1373.38 104.214 1371.68 103.403 1369.41L102.851 1367.31L102.716 1366.43C102.357 1362.97 103.314 1359.39 105.495 1356.66C108.809 1352.51 114.838 1350.35 119.881 1352.44C120.156 1352.56 120.45 1352.6 120.641 1352.84L120.615 1322.78C120.615 1322.25 120.663 1316.5 120.621 1316.41C120.262 1315.63 115.457 1314.96 114.543 1314.89C113.882 1314.84 113.209 1314.88 112.549 1314.8C109.671 1314.45 106.664 1311.51 106.578 1308.59L106.581 1303.56C106.589 1300.68 106.893 1300.67 103.37 1300.67L66.346 1300.67ZM109.065 1302.96L109.024 1306.51C109.022 1307.34 108.933 1308.28 109.137 1309.09C109.469 1310.41 110.551 1311.67 111.845 1312.12C112.778 1312.45 113.858 1312.43 114.834 1312.53C116.224 1312.68 117.63 1312.86 118.985 1313.21C118.237 1312.23 117.387 1311.4 116.513 1310.53L110.381 1304.35C109.939 1303.9 109.531 1303.38 109.065 1302.96ZM115.113 1354.13C112.304 1354.26 109.769 1355.5 107.876 1357.57C101.628 1364.41 106.705 1376.32 116.045 1375.85L116.359 1375.82C122.27 1375.41 126.612 1369.98 126.219 1364.17C126.017 1361.18 124.386 1358.38 122.149 1356.44C120.193 1354.74 117.659 1354.09 115.113 1354.13Z" fill="#0A3445"/>
<path d="M106.429 1326.44L68.2711 1326.44C67.8803 1326.45 67.452 1326.49 67.0659 1326.45C65.6855 1326.3 65.6792 1324.31 67.0355 1324.09C67.3573 1324.04 67.7075 1324.06 68.0331 1324.06L75.1042 1324.05L113.037 1324.05C113.469 1324.05 113.919 1324 114.347 1324.03C115.955 1324.14 115.792 1326.15 114.48 1326.41C114.208 1326.47 113.897 1326.44 113.62 1326.44L106.429 1326.44Z" fill="#0A3445"/>
<path d="M94.3092 1333.53L68.2383 1333.53C67.9141 1333.53 67.5697 1333.56 67.2487 1333.52C65.6657 1333.32 65.4624 1331.28 67.146 1331.12C67.8251 1331.05 68.5597 1331.1 69.2439 1331.1L87.0359 1331.1L114.426 1331.11C114.596 1331.12 114.718 1331.13 114.854 1331.24L114.895 1331.28C115.59 1331.88 115.741 1332.88 114.803 1333.38L114.684 1333.45C114.452 1333.55 114.137 1333.52 113.888 1333.52L94.3092 1333.53Z" fill="#0A3445"/>
<path d="M114.298 1340.54L67.1127 1340.57C65.7947 1340.53 65.4481 1338.4 67.3793 1338.14L112.866 1338.14C113.381 1338.14 113.916 1338.1 114.43 1338.14C115.95 1338.24 115.854 1340.32 114.298 1340.54Z" fill="#0A3445"/>
<path d="M111.138 1347.63C110.724 1347.61 110.294 1347.63 109.877 1347.63L67.8829 1347.64C67.6023 1347.65 67.2549 1347.7 66.9807 1347.64C65.734 1347.38 65.2252 1345.25 68.1613 1345.24L70.1856 1345.23L114.291 1345.25C115.453 1345.31 115.955 1346.72 114.973 1347.46L114.916 1347.5C114.629 1347.72 113.974 1347.63 113.616 1347.63L111.138 1347.63Z" fill="#0A3445"/>
<path d="M66.545 1354.55C65.7746 1353.85 65.9179 1352.59 66.9984 1352.39C67.2591 1352.34 67.555 1352.37 67.821 1352.36L99.6629 1352.36C102.566 1352.36 105.079 1352.42 107.936 1351.72H108.113L105.757 1353.33C105.183 1353.73 104.55 1354.48 103.896 1354.72L103.654 1354.79C103.377 1354.85 103.023 1354.81 102.736 1354.81L67.2748 1354.82C66.9606 1354.81 66.7962 1354.72 66.545 1354.55Z" fill="#0A3445"/>
<path d="M67.5066 1361.91C67.3025 1361.95 66.8925 1362 66.7311 1361.87L66.6883 1361.83C65.6278 1360.97 65.9168 1359.68 67.0464 1359.49C67.2779 1359.46 67.527 1359.47 67.7616 1359.47L91.6011 1359.46C92.5458 1359.46 93.5022 1359.49 94.4447 1359.42C95.1657 1359.35 95.8262 1359.85 95.8614 1360.61C95.923 1361.94 94.6108 1361.92 93.7593 1361.92L67.5066 1361.91Z" fill="#0A3445"/>
<path d="M109.632 1367.06C109.242 1366.64 108.786 1366.19 108.608 1365.63C108.288 1364.63 109.45 1363.95 110.272 1364.45C110.73 1364.72 111.119 1365.19 111.516 1365.56C112.181 1366.16 112.885 1366.76 113.632 1367.26C114.934 1366.61 117.557 1363.2 118.478 1362.04C119.187 1361.15 119.909 1359.86 120.985 1359.38L121.185 1359.37C122.34 1359.35 122.75 1360.44 122.075 1361.43L118.521 1365.87C117.798 1366.71 117.079 1367.55 116.292 1368.33C113.604 1370.99 111.853 1369.31 109.632 1367.06Z" fill="#0A3445"/>
<path d="M71.2293 1369L67.1688 1369C65.6878 1369 65.6072 1367.26 66.7754 1366.77L66.8391 1366.74C67.1885 1366.59 67.7162 1366.66 68.0969 1366.66L88.5719 1366.65L91.4083 1366.64C91.9528 1366.64 92.5483 1366.58 93.0852 1366.65C94.4358 1366.83 93.9923 1368.87 92.848 1368.98C92.0966 1369.05 91.2861 1368.99 90.5291 1369L71.2293 1369Z" fill="#0A3445"/>
<path d="M82.7921 1379.78C82.6157 1379.8 82.4309 1379.79 82.2529 1379.78L83.2389 1379.65C83.4132 1379.61 83.719 1379.61 83.8918 1379.65C83.551 1379.76 83.1473 1379.75 82.7921 1379.78Z" fill="#0A3445"/>
<rect width="87" height="87" transform="translate(50 179)" fill="white"/>
<path d="M86.1301 262.78L63.2949 262.778C61.2098 262.779 59.7705 263.38 59.7656 260.777L59.7661 191.819C59.7666 191.191 59.7399 190.559 59.8526 189.939C60.2649 187.668 62.1594 185.927 64.457 185.692C65.0602 185.63 65.7004 185.677 66.3089 185.665C66.8175 185.655 66.7087 185.71 66.8379 185.218C67.3186 183.386 69.0834 181.565 71.0987 181.973C72.5802 182.273 73.5372 183.465 74.1899 184.751C74.3394 185.046 74.4121 185.414 74.5907 185.68L80.1506 185.619L80.25 185.07C80.6447 183.347 82.6787 181.519 84.5407 181.992L84.6221 182.013C86.6802 182.533 87.2304 184.09 87.9765 185.732L93.5537 185.653C93.6665 185.479 93.6481 185.206 93.6995 185.003C94.0809 183.496 95.6729 182.04 97.2114 181.906C99.6974 181.902 100.447 183.91 101.38 185.654L106.859 185.664C107.48 181.155 112.681 180.572 114.444 185.123C114.686 185.749 114.553 185.667 115.223 185.668C115.837 185.668 116.519 185.613 117.126 185.693C119.149 185.963 121.117 187.947 121.427 189.949C121.505 190.454 121.489 190.984 121.49 191.495L121.483 244.01C121.468 245.358 121.32 245.283 122.334 246.168C122.877 246.641 123.54 247.076 124.197 247.373C125.052 247.759 126.141 247.426 126.838 248.094C128.993 250.159 123.138 257.991 121.519 259.614C120.97 260.166 118.444 262.452 117.736 262.665C117.224 262.819 116.628 262.783 116.097 262.783L86.1301 262.78ZM70.314 184.331C69.89 184.545 69.6108 184.966 69.4679 185.41L69.396 185.684L71.0495 185.677L71.9201 185.661C71.4674 185.223 71.1043 184.133 70.314 184.331ZM83.7402 184.351C83.1638 184.665 82.9358 185.064 82.729 185.666L84.3459 185.677L85.2921 185.648C84.8362 185.21 84.8197 184.33 83.7402 184.351ZM97.1494 184.394C96.66 184.684 96.3837 185.035 96.2457 185.592L97.93 185.677L98.756 185.653C98.3523 185.228 98.0173 184.434 97.345 184.387L97.1494 184.394ZM110.336 184.446C109.713 184.632 109.703 185.145 109.496 185.665L111.131 185.677L111.969 185.629C111.416 185.121 111.356 184.396 110.336 184.446ZM115.197 188.184C115.106 188.841 115.017 189.509 114.821 190.154C114.717 190.494 114.515 190.84 114.453 191.184C114.377 191.598 114.558 192.001 114.498 192.424C114.379 193.251 113.927 193.894 113.268 194.402C110.613 196.448 106.486 192.852 110.19 190.419C111.025 189.871 112.172 189.583 112.559 188.569C112.595 188.474 112.644 188.424 112.704 188.345L101.749 188.294C101.624 188.815 101.619 189.339 101.463 189.863C101.032 191.315 101.032 190.409 101.038 192.079C101.042 193.094 100.363 194.154 99.5103 194.682C96.7992 196.361 92.9803 192.542 97.0688 190.222C98.4901 189.416 98.4177 189.638 99.3716 188.349C99.1585 188.303 98.9115 188.328 98.6916 188.327L88.8193 188.442C88.5911 188.443 88.2776 188.405 88.0659 188.47C87.9884 189.2 88.0538 190.878 87.6033 191.404C87.8212 191.961 87.8757 192.268 87.6302 192.835C85.9192 196.784 80.5399 194.628 82.1369 191.631C82.9154 190.17 85.1442 189.861 85.6681 188.569C85.7063 188.475 85.7622 188.423 85.8207 188.345L74.9419 188.31L74.8349 189.541C74.8079 189.851 74.7316 190.143 74.8237 190.448L74.5542 190.311C73.8174 190.798 74.0954 191.403 74.16 192.132C74.3403 194.167 72.2195 195.281 70.3593 194.926C68.0232 194.481 67.7495 191.72 69.9588 190.374C70.7454 189.894 71.6042 189.574 72.1794 188.816C72.3161 188.636 72.3435 188.454 72.5494 188.327L65.7376 188.298C64.5705 188.252 63.5967 188.337 62.8265 189.372L62.5741 189.773C62.4109 190.048 62.3995 190.329 62.3842 190.642L62.3679 220.525L62.3706 260.208C62.4598 260.272 65.8199 260.221 66.1586 260.221H115.88C117.899 260.216 117.052 259.548 118.649 258.806C119.088 258.602 118.884 257.587 118.885 257.173L118.89 192.36C118.889 189.108 118.388 188.283 115.197 188.184ZM121.448 248.554L121.402 255.441L122.647 253.701L124.468 250.181C123.457 250.005 122.159 249.297 121.448 248.554Z" fill="#0A3445"/>
<path d="M76.9069 206.85L70.8185 206.852C68.8868 206.85 68.775 204.977 69.9524 204.405L70.0163 204.375C70.1777 204.298 70.333 204.28 70.5102 204.274L105.706 204.271L111.545 204.268C111.828 204.268 112.157 204.238 112.424 204.337L112.489 204.364C112.903 204.531 113.589 205.176 113.401 205.696L113.383 205.741C112.967 206.948 112.017 206.845 110.979 206.847L76.9069 206.85Z" fill="#0A3445"/>
<path d="M111.988 215.252L70.5875 215.26C68.8271 215.16 68.5839 213.017 70.5683 212.701L110.558 212.708C111.069 212.708 111.591 212.683 112.101 212.718C113.841 212.84 113.743 215.162 111.988 215.252Z" fill="#0A3445"/>
<path d="M97.9889 223.691L73.3941 223.695C72.1375 223.697 69.2103 224.242 69.1866 222.326C69.1702 220.99 70.9482 221.138 71.8197 221.141L84.4815 221.139L110.986 221.138C111.405 221.138 111.838 221.114 112.255 221.145C113.696 221.252 113.711 223.464 112.238 223.65C111.698 223.718 111.122 223.684 110.577 223.685L97.9889 223.691Z" fill="#0A3445"/>
<path d="M112.075 232.101L71.953 232.115C71.4578 232.117 70.9518 232.146 70.4582 232.119C68.8881 232.034 68.5739 229.779 70.666 229.566L112.358 229.572C113.92 229.648 113.633 231.942 112.075 232.101Z" fill="#0A3445"/>
<path d="M82.5661 240.449L71.5483 240.453C71.1003 240.454 70.6299 240.482 70.1842 240.438C69.7331 240.393 69.2134 239.635 69.1968 239.235C69.1404 237.878 70.7184 237.915 71.6063 237.912L100.151 237.911L112.042 237.902C112.197 237.908 112.352 237.917 112.497 237.978L112.552 238.004C113.948 238.637 113.355 240.35 112.325 240.444C111.982 240.475 111.617 240.452 111.272 240.452L82.5661 240.449Z" fill="#0A3445"/>
<path d="M73.293 248.924L71.7084 248.931C71.2252 248.932 70.4386 249.026 70.0128 248.786L69.9657 248.758C68.6072 247.983 69.1428 246.501 70.4257 246.38C71.3222 246.294 72.2937 246.366 73.1966 246.366L97.0288 246.365L99.2286 246.359C99.534 246.358 99.918 246.312 100.213 246.375C101.485 246.645 101.305 248.751 99.9688 248.905C99.6416 248.942 99.3005 248.923 98.9709 248.923L73.293 248.924Z" fill="#0A3445"/>
</svg>
