<svg width="1404" height="1872" viewBox="0 0 1404 1872" fill="none" xmlns="http://www.w3.org/2000/svg">
<g clip-path="url(#clip0_60_112656)">
<rect width="1404" height="1872" fill="white"/>
<line y1="43.5745" x2="1404" y2="43.5745" stroke="#06A9EA" stroke-width="2.23" stroke-miterlimit="3.99933"/>
<line y1="88.2639" x2="1404" y2="88.2639" stroke="#06A9EA" stroke-width="2.23" stroke-miterlimit="3.99933"/>
<line y1="132.955" x2="1404" y2="132.955" stroke="#06A9EA" stroke-width="2.23" stroke-miterlimit="3.99933"/>
<line y1="176.76" x2="1404" y2="176.76" stroke="#06A9EA" stroke-width="4" stroke-miterlimit="3.99933"/>
<line y1="222.334" x2="1404" y2="222.334" stroke="#06A9EA" stroke-width="2.23" stroke-miterlimit="3.99933"/>
<line y1="267.024" x2="1404" y2="267.024" stroke="#06A9EA" stroke-width="2.23" stroke-miterlimit="3.99933"/>
<line y1="311.715" x2="1404" y2="311.715" stroke="#06A9EA" stroke-width="2.23" stroke-miterlimit="3.99933"/>
<line y1="356.405" x2="1404" y2="356.405" stroke="#06A9EA" stroke-width="2.23" stroke-miterlimit="3.99933"/>
<line y1="401.094" x2="1404" y2="401.094" stroke="#06A9EA" stroke-width="2.23" stroke-miterlimit="3.99933"/>
<line y1="445.785" x2="1404" y2="445.785" stroke="#06A9EA" stroke-width="2.23" stroke-miterlimit="3.99933"/>
<line y1="490.475" x2="1404" y2="490.475" stroke="#06A9EA" stroke-width="2.23" stroke-miterlimit="3.99933"/>
<line y1="535.164" x2="1404" y2="535.164" stroke="#06A9EA" stroke-width="2.23" stroke-miterlimit="3.99933"/>
<line y1="579.854" x2="1404" y2="579.854" stroke="#06A9EA" stroke-width="2.23" stroke-miterlimit="3.99933"/>
<line y1="624.545" x2="1404" y2="624.545" stroke="#06A9EA" stroke-width="2.23" stroke-miterlimit="3.99933"/>
<line y1="669.235" x2="1404" y2="669.235" stroke="#06A9EA" stroke-width="2.23" stroke-miterlimit="3.99933"/>
<line y1="713.924" x2="1404" y2="713.924" stroke="#06A9EA" stroke-width="2.23" stroke-miterlimit="3.99933"/>
<line y1="758.614" x2="1404" y2="758.614" stroke="#06A9EA" stroke-width="2.23" stroke-miterlimit="3.99933"/>
<line y1="803.305" x2="1404" y2="803.305" stroke="#06A9EA" stroke-width="2.23" stroke-miterlimit="3.99933"/>
<line y1="847.994" x2="1404" y2="847.994" stroke="#06A9EA" stroke-width="2.23" stroke-miterlimit="3.99933"/>
<line y1="892.684" x2="1404" y2="892.684" stroke="#06A9EA" stroke-width="2.23" stroke-miterlimit="3.99933"/>
<line y1="937.375" x2="1404" y2="937.375" stroke="#06A9EA" stroke-width="2.23" stroke-miterlimit="3.99933"/>
<line y1="982.065" x2="1404" y2="982.065" stroke="#06A9EA" stroke-width="2.23" stroke-miterlimit="3.99933"/>
<line y1="1026.75" x2="1404" y2="1026.75" stroke="#06A9EA" stroke-width="2.23" stroke-miterlimit="3.99933"/>
<line y1="1071.44" x2="1404" y2="1071.44" stroke="#06A9EA" stroke-width="2.23" stroke-miterlimit="3.99933"/>
<line y1="1116.13" x2="1404" y2="1116.14" stroke="#06A9EA" stroke-width="2.23" stroke-miterlimit="3.99933"/>
<line y1="1160.82" x2="1404" y2="1160.82" stroke="#06A9EA" stroke-width="2.23" stroke-miterlimit="3.99933"/>
<line y1="1205.51" x2="1404" y2="1205.51" stroke="#06A9EA" stroke-width="2.23" stroke-miterlimit="3.99933"/>
<line y1="1250.21" x2="1404" y2="1250.21" stroke="#06A9EA" stroke-width="2.23" stroke-miterlimit="3.99933"/>
<line y1="1294.89" x2="1404" y2="1294.89" stroke="#06A9EA" stroke-width="2.23" stroke-miterlimit="3.99933"/>
<line y1="1339.58" x2="1404" y2="1339.58" stroke="#06A9EA" stroke-width="2.23" stroke-miterlimit="3.99933"/>
<line y1="1383.39" x2="1404" y2="1383.39" stroke="#06A9EA" stroke-width="4" stroke-miterlimit="3.99933"/>
<line y1="1428.97" x2="1404" y2="1428.97" stroke="#06A9EA" stroke-width="2.23" stroke-miterlimit="3.99933"/>
<line y1="1473.65" x2="1404" y2="1473.65" stroke="#06A9EA" stroke-width="2.23" stroke-miterlimit="3.99933"/>
<line y1="1518.34" x2="1404" y2="1518.34" stroke="#06A9EA" stroke-width="2.23" stroke-miterlimit="3.99933"/>
<line y1="1563.04" x2="1404" y2="1563.04" stroke="#06A9EA" stroke-width="2.23" stroke-miterlimit="3.99933"/>
<line y1="1607.72" x2="1404" y2="1607.72" stroke="#06A9EA" stroke-width="2.23" stroke-miterlimit="3.99933"/>
<line y1="1652.41" x2="1404" y2="1652.41" stroke="#06A9EA" stroke-width="2.23" stroke-miterlimit="3.99933"/>
<line y1="1697.1" x2="1404" y2="1697.1" stroke="#06A9EA" stroke-width="2.23" stroke-miterlimit="3.99933"/>
<line y1="1741.8" x2="1404" y2="1741.8" stroke="#06A9EA" stroke-width="2.23" stroke-miterlimit="3.99933"/>
<line y1="1786.48" x2="1404" y2="1786.48" stroke="#06A9EA" stroke-width="2.23" stroke-miterlimit="3.99933"/>
<line y1="1831.17" x2="1404" y2="1831.17" stroke="#06A9EA" stroke-width="2.23" stroke-miterlimit="3.99933"/>
<line x1="45.8049" y1="-1.115e-07" x2="45.8049" y2="1872" stroke="#06A9EA" stroke-width="2.23" stroke-miterlimit="3.99933"/>
<line x1="90.4949" y1="-1.115e-07" x2="90.4949" y2="1872" stroke="#06A9EA" stroke-width="2.23" stroke-miterlimit="3.99933"/>
<line x1="135.185" y1="-1.115e-07" x2="135.185" y2="1872" stroke="#06A9EA" stroke-width="2.23" stroke-miterlimit="3.99933"/>
<line x1="179.875" y1="-1.115e-07" x2="179.875" y2="1872" stroke="#06A9EA" stroke-width="2.23" stroke-miterlimit="3.99933"/>
<line x1="224.565" y1="-1.115e-07" x2="224.565" y2="1872" stroke="#06A9EA" stroke-width="2.23" stroke-miterlimit="3.99933"/>
<line x1="269.255" y1="-1.115e-07" x2="269.255" y2="1872" stroke="#06A9EA" stroke-width="2.23" stroke-miterlimit="3.99933"/>
<line x1="313.945" y1="-1.115e-07" x2="313.945" y2="1872" stroke="#06A9EA" stroke-width="2.23" stroke-miterlimit="3.99933"/>
<line x1="358.635" y1="-1.115e-07" x2="358.635" y2="1872" stroke="#06A9EA" stroke-width="2.23" stroke-miterlimit="3.99933"/>
<line x1="403.325" y1="-1.115e-07" x2="403.325" y2="1872" stroke="#06A9EA" stroke-width="2.23" stroke-miterlimit="3.99933"/>
<line x1="448.015" y1="-1.115e-07" x2="448.015" y2="1872" stroke="#06A9EA" stroke-width="2.23" stroke-miterlimit="3.99933"/>
<line x1="492.705" y1="-1.115e-07" x2="492.705" y2="1872" stroke="#06A9EA" stroke-width="2.23" stroke-miterlimit="3.99933"/>
<line x1="537.395" y1="-1.115e-07" x2="537.395" y2="1872" stroke="#06A9EA" stroke-width="2.23" stroke-miterlimit="3.99933"/>
<line x1="582.085" y1="-1.115e-07" x2="582.085" y2="1872" stroke="#06A9EA" stroke-width="2.23" stroke-miterlimit="3.99933"/>
<line x1="626.775" y1="-1.115e-07" x2="626.775" y2="1872" stroke="#06A9EA" stroke-width="2.23" stroke-miterlimit="3.99933"/>
<line x1="671.465" y1="-1.115e-07" x2="671.465" y2="1872" stroke="#06A9EA" stroke-width="2.23" stroke-miterlimit="3.99933"/>
<line x1="716.155" y1="-1.115e-07" x2="716.155" y2="1872" stroke="#06A9EA" stroke-width="2.23" stroke-miterlimit="3.99933"/>
<line x1="760.845" y1="-1.115e-07" x2="760.845" y2="1872" stroke="#06A9EA" stroke-width="2.23" stroke-miterlimit="3.99933"/>
<line x1="805.535" y1="-1.115e-07" x2="805.535" y2="1872" stroke="#06A9EA" stroke-width="2.23" stroke-miterlimit="3.99933"/>
<line x1="850.225" y1="-1.115e-07" x2="850.225" y2="1872" stroke="#06A9EA" stroke-width="2.23" stroke-miterlimit="3.99933"/>
<line x1="894.915" y1="-1.115e-07" x2="894.915" y2="1872" stroke="#06A9EA" stroke-width="2.23" stroke-miterlimit="3.99933"/>
<line x1="939.605" y1="-1.115e-07" x2="939.605" y2="1872" stroke="#06A9EA" stroke-width="2.23" stroke-miterlimit="3.99933"/>
<line x1="984.295" y1="-1.115e-07" x2="984.295" y2="1872" stroke="#06A9EA" stroke-width="2.23" stroke-miterlimit="3.99933"/>
<line x1="1028.98" y1="-1.115e-07" x2="1028.98" y2="1872" stroke="#06A9EA" stroke-width="2.23" stroke-miterlimit="3.99933"/>
<line x1="1073.68" y1="-1.115e-07" x2="1073.68" y2="1872" stroke="#06A9EA" stroke-width="2.23" stroke-miterlimit="3.99933"/>
<line x1="1118.37" y1="-1.115e-07" x2="1118.36" y2="1872" stroke="#06A9EA" stroke-width="2.23" stroke-miterlimit="3.99933"/>
<line x1="1163.05" y1="-1.115e-07" x2="1163.05" y2="1872" stroke="#06A9EA" stroke-width="2.23" stroke-miterlimit="3.99933"/>
<line x1="1207.74" y1="-1.115e-07" x2="1207.74" y2="1872" stroke="#06A9EA" stroke-width="2.23" stroke-miterlimit="3.99933"/>
<line x1="1252.43" y1="-1.115e-07" x2="1252.43" y2="1872" stroke="#06A9EA" stroke-width="2.23" stroke-miterlimit="3.99933"/>
<line x1="1297.13" y1="-1.115e-07" x2="1297.12" y2="1872" stroke="#06A9EA" stroke-width="2.23" stroke-miterlimit="3.99933"/>
<line x1="1341.81" y1="-1.115e-07" x2="1341.81" y2="1872" stroke="#06A9EA" stroke-width="2.23" stroke-miterlimit="3.99933"/>
<line x1="1386.51" y1="-1.115e-07" x2="1386.51" y2="1872" stroke="#06A9EA" stroke-width="2.23" stroke-miterlimit="3.99933"/>
<line x1="180.99" y1="-2.23e-07" x2="180.99" y2="1872" stroke="#E03436" stroke-width="4.46" stroke-miterlimit="3.99933"/>
<rect width="85" height="85" transform="translate(92 1296)" fill="white"/>
<path d="M154.218 1378.34L120.668 1378.46C120.261 1378.44 119.855 1378.35 119.456 1378.34L104.245 1378.34C103.828 1378.34 103.392 1378.35 102.98 1378.28C100.766 1377.89 99.4234 1375.44 99.419 1373.32L99.4193 1305.03C99.4189 1304.18 99.3614 1303.3 99.4476 1302.46C99.7953 1299.08 102.251 1298.23 105.123 1298.22L114.63 1298.22L144.702 1298.22C145.352 1298.23 146.162 1298.17 146.785 1298.38L147.711 1298.63C150.076 1299.42 151.083 1300.55 152.733 1302.21L159.677 1309.28C162.287 1311.92 164.048 1313.6 164.053 1317.45L164.078 1354.27C164.909 1354.75 165.096 1354.88 165.812 1355.63C174.051 1364.2 168.048 1378.31 156.427 1378.33L154.218 1378.34ZM107.346 1300.67L105.278 1300.67C103.778 1300.68 101.939 1300.85 101.886 1302.83L101.888 1372.05C101.887 1372.63 101.809 1373.31 101.923 1373.89C102.079 1374.67 102.707 1375.83 103.626 1375.88L149.065 1375.87C148.764 1375.73 148.455 1375.31 148.21 1375.06C146.522 1373.38 145.214 1371.68 144.403 1369.41L143.851 1367.31L143.715 1366.43C143.357 1362.97 144.314 1359.39 146.495 1356.66C149.809 1352.51 155.838 1350.35 160.881 1352.44C161.156 1352.56 161.45 1352.6 161.641 1352.84L161.615 1322.78C161.615 1322.25 161.663 1316.5 161.621 1316.41C161.262 1315.63 156.457 1314.96 155.543 1314.89C154.881 1314.84 154.209 1314.88 153.549 1314.8C150.671 1314.45 147.664 1311.51 147.578 1308.59L147.581 1303.56C147.589 1300.68 147.893 1300.67 144.37 1300.67L107.346 1300.67ZM150.065 1302.96L150.024 1306.51C150.022 1307.34 149.933 1308.28 150.137 1309.09C150.469 1310.41 151.551 1311.67 152.845 1312.12C153.778 1312.45 154.857 1312.43 155.833 1312.53C157.224 1312.68 158.629 1312.86 159.985 1313.21C159.236 1312.23 158.386 1311.4 157.513 1310.53L151.381 1304.35C150.938 1303.9 150.531 1303.38 150.065 1302.96ZM156.113 1354.13C153.303 1354.26 150.768 1355.5 148.876 1357.57C142.628 1364.41 147.705 1376.32 157.044 1375.85L157.358 1375.82C163.269 1375.41 167.612 1369.98 167.219 1364.17C167.017 1361.18 165.385 1358.38 163.148 1356.44C161.193 1354.74 158.659 1354.09 156.113 1354.13Z" fill="#0A3445"/>
<path d="M147.429 1326.44L109.271 1326.44C108.88 1326.45 108.452 1326.49 108.066 1326.45C106.685 1326.3 106.679 1324.31 108.035 1324.09C108.357 1324.04 108.707 1324.06 109.033 1324.06L116.104 1324.05L154.037 1324.05C154.469 1324.05 154.919 1324 155.347 1324.03C156.955 1324.14 156.792 1326.15 155.48 1326.41C155.208 1326.47 154.897 1326.44 154.62 1326.44L147.429 1326.44Z" fill="#0A3445"/>
<path d="M135.309 1333.53L109.238 1333.53C108.914 1333.53 108.57 1333.56 108.249 1333.52C106.666 1333.32 106.463 1331.28 108.146 1331.12C108.825 1331.05 109.56 1331.1 110.244 1331.1L128.036 1331.1L155.426 1331.11C155.596 1331.12 155.718 1331.13 155.855 1331.24L155.895 1331.28C156.59 1331.88 156.741 1332.88 155.803 1333.38L155.684 1333.45C155.453 1333.55 155.137 1333.52 154.888 1333.52L135.309 1333.53Z" fill="#0A3445"/>
<path d="M155.298 1340.54L108.113 1340.57C106.795 1340.53 106.448 1338.4 108.38 1338.14L153.866 1338.14C154.381 1338.14 154.917 1338.1 155.43 1338.14C156.95 1338.24 156.855 1340.32 155.298 1340.54Z" fill="#0A3445"/>
<path d="M152.138 1347.63C151.724 1347.61 151.294 1347.63 150.877 1347.63L108.883 1347.64C108.602 1347.65 108.255 1347.7 107.981 1347.64C106.734 1347.38 106.225 1345.25 109.161 1345.24L111.185 1345.23L155.291 1345.25C156.453 1345.31 156.955 1346.72 155.973 1347.46L155.916 1347.5C155.628 1347.72 154.974 1347.63 154.616 1347.63L152.138 1347.63Z" fill="#0A3445"/>
<path d="M107.544 1354.55C106.774 1353.85 106.917 1352.59 107.998 1352.39C108.259 1352.34 108.554 1352.37 108.82 1352.36L140.662 1352.36C143.565 1352.36 146.079 1352.42 148.935 1351.72H149.113L146.756 1353.33C146.183 1353.73 145.549 1354.48 144.896 1354.72L144.654 1354.79C144.376 1354.85 144.023 1354.81 143.735 1354.81L108.274 1354.82C107.96 1354.81 107.796 1354.72 107.544 1354.55Z" fill="#0A3445"/>
<path d="M108.507 1361.91C108.303 1361.95 107.893 1362 107.731 1361.87L107.688 1361.83C106.628 1360.97 106.917 1359.68 108.047 1359.49C108.278 1359.46 108.527 1359.47 108.762 1359.47L132.601 1359.46C133.546 1359.46 134.502 1359.49 135.445 1359.42C136.166 1359.35 136.826 1359.85 136.862 1360.61C136.923 1361.94 135.611 1361.92 134.759 1361.92L108.507 1361.91Z" fill="#0A3445"/>
<path d="M150.632 1367.06C150.242 1366.64 149.786 1366.19 149.608 1365.63C149.288 1364.63 150.45 1363.95 151.273 1364.45C151.73 1364.72 152.119 1365.19 152.516 1365.56C153.182 1366.16 153.886 1366.76 154.633 1367.26C155.935 1366.61 158.557 1363.2 159.479 1362.04C160.187 1361.15 160.909 1359.86 161.986 1359.38L162.185 1359.37C163.34 1359.35 163.75 1360.44 163.075 1361.43L159.522 1365.87C158.799 1366.71 158.079 1367.55 157.292 1368.33C154.605 1370.99 152.853 1369.31 150.632 1367.06Z" fill="#0A3445"/>
<path d="M112.229 1369L108.169 1369C106.688 1369 106.607 1367.26 107.775 1366.77L107.839 1366.74C108.188 1366.59 108.716 1366.66 109.097 1366.66L129.572 1366.65L132.408 1366.64C132.953 1366.64 133.548 1366.58 134.085 1366.65C135.436 1366.83 134.992 1368.87 133.848 1368.98C133.096 1369.05 132.286 1368.99 131.529 1369L112.229 1369Z" fill="#0A3445"/>
<path d="M123.792 1379.78C123.615 1379.8 123.431 1379.79 123.253 1379.78L124.239 1379.65C124.413 1379.61 124.719 1379.61 124.891 1379.65C124.551 1379.76 124.147 1379.75 123.792 1379.78Z" fill="#0A3445"/>
<rect width="87" height="87" transform="translate(92 179)" fill="white"/>
<path d="M128.13 262.78L105.294 262.778C103.209 262.779 101.77 263.38 101.765 260.777L101.766 191.819C101.766 191.191 101.739 190.559 101.852 189.939C102.264 187.668 104.159 185.927 106.457 185.692C107.06 185.63 107.7 185.677 108.308 185.665C108.817 185.655 108.708 185.71 108.837 185.218C109.318 183.386 111.083 181.565 113.098 181.973C114.58 182.273 115.537 183.465 116.189 184.751C116.339 185.046 116.412 185.414 116.59 185.68L122.15 185.619L122.249 185.07C122.644 183.347 124.678 181.519 126.54 181.992L126.622 182.013C128.68 182.533 129.23 184.09 129.976 185.732L135.553 185.653C135.666 185.479 135.648 185.206 135.699 185.003C136.08 183.496 137.672 182.04 139.211 181.906C141.697 181.902 142.446 183.91 143.379 185.654L148.859 185.664C149.479 181.155 154.681 180.572 156.443 185.123C156.685 185.749 156.552 185.667 157.222 185.668C157.836 185.668 158.518 185.613 159.126 185.693C161.149 185.963 163.117 187.947 163.426 189.949C163.504 190.454 163.488 190.984 163.489 191.495L163.482 244.01C163.467 245.358 163.319 245.283 164.334 246.168C164.876 246.641 165.539 247.076 166.197 247.373C167.051 247.759 168.14 247.426 168.837 248.094C170.992 250.159 165.137 257.991 163.519 259.614C162.969 260.166 160.443 262.452 159.736 262.665C159.224 262.819 158.628 262.783 158.096 262.783L128.13 262.78ZM112.313 184.331C111.89 184.545 111.61 184.966 111.467 185.41L111.396 185.684L113.049 185.677L113.92 185.661C113.467 185.223 113.104 184.133 112.313 184.331ZM125.74 184.351C125.163 184.665 124.935 185.064 124.728 185.666L126.345 185.677L127.292 185.648C126.836 185.21 126.819 184.33 125.74 184.351ZM139.149 184.394C138.66 184.684 138.383 185.035 138.245 185.592L139.93 185.677L140.755 185.653C140.352 185.228 140.017 184.434 139.344 184.387L139.149 184.394ZM152.336 184.446C151.713 184.632 151.703 185.145 151.495 185.665L153.13 185.677L153.968 185.629C153.416 185.121 153.356 184.396 152.336 184.446ZM157.196 188.184C157.106 188.841 157.017 189.509 156.82 190.154C156.717 190.494 156.515 190.84 156.452 191.184C156.377 191.598 156.558 192.001 156.497 192.424C156.379 193.251 155.927 193.894 155.268 194.402C152.613 196.448 148.486 192.852 152.19 190.419C153.024 189.871 154.171 189.583 154.559 188.569C154.595 188.474 154.644 188.424 154.704 188.345L143.748 188.294C143.624 188.815 143.618 189.339 143.463 189.863C143.032 191.315 143.032 190.409 143.038 192.079C143.041 193.094 142.362 194.154 141.51 194.682C138.799 196.361 134.98 192.542 139.068 190.222C140.49 189.416 140.417 189.638 141.371 188.349C141.158 188.303 140.911 188.328 140.691 188.327L130.819 188.442C130.591 188.443 130.277 188.405 130.065 188.47C129.988 189.2 130.053 190.878 129.603 191.404C129.821 191.961 129.875 192.268 129.63 192.835C127.919 196.784 122.539 194.628 124.136 191.631C124.915 190.17 127.144 189.861 127.668 188.569C127.706 188.475 127.762 188.423 127.82 188.345L116.941 188.31L116.834 189.541C116.807 189.851 116.731 190.143 116.823 190.448L116.554 190.311C115.817 190.798 116.095 191.403 116.159 192.132C116.34 194.167 114.219 195.281 112.359 194.926C110.023 194.481 109.749 191.72 111.958 190.374C112.745 189.894 113.604 189.574 114.179 188.816C114.316 188.636 114.343 188.454 114.549 188.327L107.737 188.298C106.57 188.252 105.596 188.337 104.826 189.372L104.574 189.773C104.41 190.048 104.399 190.329 104.384 190.642L104.367 220.525L104.37 260.208C104.459 260.272 107.819 260.221 108.158 260.221H157.88C159.898 260.216 159.051 259.548 160.648 258.806C161.088 258.602 160.883 257.587 160.884 257.173L160.89 192.36C160.888 189.108 160.387 188.283 157.196 188.184ZM163.448 248.554L163.402 255.441L164.647 253.701L166.467 250.181C165.456 250.005 164.159 249.297 163.448 248.554Z" fill="#0A3445"/>
<path d="M118.907 206.85L112.818 206.852C110.886 206.85 110.775 204.977 111.952 204.405L112.016 204.375C112.177 204.298 112.333 204.28 112.51 204.274L147.705 204.271L153.545 204.268C153.827 204.268 154.157 204.238 154.423 204.337L154.489 204.364C154.903 204.531 155.588 205.176 155.401 205.696L155.383 205.741C154.967 206.948 154.016 206.845 152.979 206.847L118.907 206.85Z" fill="#0A3445"/>
<path d="M153.988 215.252L112.588 215.26C110.827 215.16 110.584 213.017 112.568 212.701L152.558 212.708C153.069 212.708 153.592 212.683 154.101 212.718C155.841 212.84 155.743 215.162 153.988 215.252Z" fill="#0A3445"/>
<path d="M139.989 223.691L115.395 223.695C114.138 223.697 111.211 224.242 111.187 222.326C111.171 220.99 112.949 221.138 113.82 221.141L126.482 221.139L152.987 221.138C153.406 221.138 153.838 221.114 154.255 221.145C155.696 221.252 155.712 223.464 154.239 223.65C153.698 223.718 153.122 223.684 152.577 223.685L139.989 223.691Z" fill="#0A3445"/>
<path d="M154.075 232.101L113.953 232.115C113.458 232.117 112.952 232.146 112.458 232.119C110.888 232.034 110.574 229.779 112.666 229.566L154.358 229.572C155.92 229.648 155.633 231.942 154.075 232.101Z" fill="#0A3445"/>
<path d="M124.566 240.449L113.549 240.453C113.101 240.454 112.63 240.482 112.185 240.438C111.733 240.393 111.214 239.635 111.197 239.235C111.141 237.878 112.719 237.915 113.607 237.912L142.151 237.911L154.042 237.902C154.197 237.908 154.352 237.917 154.497 237.978L154.553 238.004C155.949 238.637 155.355 240.35 154.325 240.444C153.982 240.475 153.617 240.452 153.272 240.452L124.566 240.449Z" fill="#0A3445"/>
<path d="M115.293 248.924L113.709 248.931C113.225 248.932 112.439 249.026 112.013 248.786L111.966 248.758C110.607 247.983 111.143 246.501 112.426 246.38C113.322 246.294 114.294 246.366 115.197 246.366L139.029 246.365L141.229 246.359C141.534 246.358 141.918 246.312 142.213 246.375C143.485 246.645 143.306 248.751 141.969 248.905C141.642 248.942 141.301 248.923 140.971 248.923L115.293 248.924Z" fill="#0A3445"/>
</g>
<defs>
<clipPath id="clip0_60_112656">
<rect width="1404" height="1872" fill="white"/>
</clipPath>
</defs>
</svg>
