<svg width="1404" height="1872" viewBox="0 0 1404 1872" fill="none" xmlns="http://www.w3.org/2000/svg">
<g clip-path="url(#clip0_60_112734)">
<rect width="1404" height="1872" fill="white"/>
<line y1="43.5745" x2="1404" y2="43.5745" stroke="#06A9EA" stroke-width="2.23" stroke-miterlimit="3.99933"/>
<line y1="88.2639" x2="1404" y2="88.2639" stroke="#06A9EA" stroke-width="2.23" stroke-miterlimit="3.99933"/>
<line y1="132.955" x2="1404" y2="132.955" stroke="#06A9EA" stroke-width="2.23" stroke-miterlimit="3.99933"/>
<line y1="176.76" x2="1404" y2="176.76" stroke="#06A9EA" stroke-width="4" stroke-miterlimit="3.99933"/>
<line y1="222.334" x2="1404" y2="222.334" stroke="#06A9EA" stroke-width="2.23" stroke-miterlimit="3.99933"/>
<line y1="267.024" x2="1404" y2="267.024" stroke="#06A9EA" stroke-width="2.23" stroke-miterlimit="3.99933"/>
<line y1="311.715" x2="1404" y2="311.715" stroke="#06A9EA" stroke-width="2.23" stroke-miterlimit="3.99933"/>
<line y1="355.52" x2="1404" y2="355.52" stroke="#06A9EA" stroke-width="4" stroke-miterlimit="3.99933"/>
<line y1="401.094" x2="1404" y2="401.094" stroke="#06A9EA" stroke-width="2.23" stroke-miterlimit="3.99933"/>
<line y1="445.785" x2="1404" y2="445.785" stroke="#06A9EA" stroke-width="2.23" stroke-miterlimit="3.99933"/>
<line y1="490.475" x2="1404" y2="490.475" stroke="#06A9EA" stroke-width="2.23" stroke-miterlimit="3.99933"/>
<line y1="535.164" x2="1404" y2="535.164" stroke="#06A9EA" stroke-width="2.23" stroke-miterlimit="3.99933"/>
<line y1="579.854" x2="1404" y2="579.854" stroke="#06A9EA" stroke-width="2.23" stroke-miterlimit="3.99933"/>
<line y1="624.545" x2="1404" y2="624.545" stroke="#06A9EA" stroke-width="2.23" stroke-miterlimit="3.99933"/>
<line y1="669.235" x2="1404" y2="669.235" stroke="#06A9EA" stroke-width="2.23" stroke-miterlimit="3.99933"/>
<line y1="713.924" x2="1404" y2="713.924" stroke="#06A9EA" stroke-width="2.23" stroke-miterlimit="3.99933"/>
<line y1="758.614" x2="1404" y2="758.614" stroke="#06A9EA" stroke-width="2.23" stroke-miterlimit="3.99933"/>
<line y1="803.305" x2="1404" y2="803.305" stroke="#06A9EA" stroke-width="2.23" stroke-miterlimit="3.99933"/>
<line y1="847.994" x2="1404" y2="847.994" stroke="#06A9EA" stroke-width="2.23" stroke-miterlimit="3.99933"/>
<line y1="892.684" x2="1404" y2="892.684" stroke="#06A9EA" stroke-width="2.23" stroke-miterlimit="3.99933"/>
<line y1="937.375" x2="1404" y2="937.375" stroke="#06A9EA" stroke-width="2.23" stroke-miterlimit="3.99933"/>
<line y1="982.065" x2="1404" y2="982.065" stroke="#06A9EA" stroke-width="2.23" stroke-miterlimit="3.99933"/>
<line y1="1026.75" x2="1404" y2="1026.75" stroke="#06A9EA" stroke-width="2.23" stroke-miterlimit="3.99933"/>
<line y1="1071.44" x2="1404" y2="1071.44" stroke="#06A9EA" stroke-width="2.23" stroke-miterlimit="3.99933"/>
<line y1="1116.13" x2="1404" y2="1116.14" stroke="#06A9EA" stroke-width="2.23" stroke-miterlimit="3.99933"/>
<line y1="1160.82" x2="1404" y2="1160.82" stroke="#06A9EA" stroke-width="2.23" stroke-miterlimit="3.99933"/>
<line y1="1205.51" x2="1404" y2="1205.51" stroke="#06A9EA" stroke-width="2.23" stroke-miterlimit="3.99933"/>
<line y1="1250.21" x2="1404" y2="1250.21" stroke="#06A9EA" stroke-width="2.23" stroke-miterlimit="3.99933"/>
<line y1="1294.89" x2="1404" y2="1294.89" stroke="#06A9EA" stroke-width="2.23" stroke-miterlimit="3.99933"/>
<line y1="1339.58" x2="1404" y2="1339.58" stroke="#06A9EA" stroke-width="2.23" stroke-miterlimit="3.99933"/>
<line y1="1383.39" x2="1404" y2="1383.39" stroke="#06A9EA" stroke-width="4" stroke-miterlimit="3.99933"/>
<line y1="1428.97" x2="1404" y2="1428.97" stroke="#06A9EA" stroke-width="2.23" stroke-miterlimit="3.99933"/>
<line y1="1473.65" x2="1404" y2="1473.65" stroke="#06A9EA" stroke-width="2.23" stroke-miterlimit="3.99933"/>
<line y1="1518.34" x2="1404" y2="1518.34" stroke="#06A9EA" stroke-width="2.23" stroke-miterlimit="3.99933"/>
<line y1="1563.04" x2="1404" y2="1563.04" stroke="#06A9EA" stroke-width="2.23" stroke-miterlimit="3.99933"/>
<line y1="1607.72" x2="1404" y2="1607.72" stroke="#06A9EA" stroke-width="2.23" stroke-miterlimit="3.99933"/>
<line y1="1652.41" x2="1404" y2="1652.41" stroke="#06A9EA" stroke-width="2.23" stroke-miterlimit="3.99933"/>
<line y1="1697.1" x2="1404" y2="1697.1" stroke="#06A9EA" stroke-width="2.23" stroke-miterlimit="3.99933"/>
<line y1="1741.8" x2="1404" y2="1741.8" stroke="#06A9EA" stroke-width="2.23" stroke-miterlimit="3.99933"/>
<line y1="1786.48" x2="1404" y2="1786.48" stroke="#06A9EA" stroke-width="2.23" stroke-miterlimit="3.99933"/>
<line y1="1831.17" x2="1404" y2="1831.17" stroke="#06A9EA" stroke-width="2.23" stroke-miterlimit="3.99933"/>
<line x1="45.805" y1="-1.115e-07" x2="45.805" y2="1872" stroke="#06A9EA" stroke-width="2.23" stroke-miterlimit="3.99933"/>
<line x1="90.495" y1="-1.115e-07" x2="90.495" y2="1872" stroke="#06A9EA" stroke-width="2.23" stroke-miterlimit="3.99933"/>
<line x1="135.185" y1="-1.115e-07" x2="135.185" y2="1872" stroke="#06A9EA" stroke-width="2.23" stroke-miterlimit="3.99933"/>
<line x1="179.875" y1="-1.115e-07" x2="179.875" y2="1872" stroke="#06A9EA" stroke-width="2.23" stroke-miterlimit="3.99933"/>
<line x1="224.565" y1="-1.115e-07" x2="224.565" y2="1872" stroke="#06A9EA" stroke-width="2.23" stroke-miterlimit="3.99933"/>
<line x1="269.255" y1="-1.115e-07" x2="269.255" y2="1872" stroke="#06A9EA" stroke-width="2.23" stroke-miterlimit="3.99933"/>
<line x1="313.945" y1="-1.115e-07" x2="313.945" y2="1872" stroke="#06A9EA" stroke-width="2.23" stroke-miterlimit="3.99933"/>
<line x1="358.635" y1="-1.115e-07" x2="358.635" y2="1872" stroke="#06A9EA" stroke-width="2.23" stroke-miterlimit="3.99933"/>
<line x1="403.325" y1="-1.115e-07" x2="403.325" y2="1872" stroke="#06A9EA" stroke-width="2.23" stroke-miterlimit="3.99933"/>
<line x1="448.015" y1="-1.115e-07" x2="448.015" y2="1872" stroke="#06A9EA" stroke-width="2.23" stroke-miterlimit="3.99933"/>
<line x1="492.705" y1="-1.115e-07" x2="492.705" y2="1872" stroke="#06A9EA" stroke-width="2.23" stroke-miterlimit="3.99933"/>
<line x1="537.395" y1="-1.115e-07" x2="537.395" y2="1872" stroke="#06A9EA" stroke-width="2.23" stroke-miterlimit="3.99933"/>
<line x1="582.085" y1="-1.115e-07" x2="582.085" y2="1872" stroke="#06A9EA" stroke-width="2.23" stroke-miterlimit="3.99933"/>
<line x1="626.775" y1="-1.115e-07" x2="626.775" y2="1872" stroke="#06A9EA" stroke-width="2.23" stroke-miterlimit="3.99933"/>
<line x1="671.465" y1="-1.115e-07" x2="671.465" y2="1872" stroke="#06A9EA" stroke-width="2.23" stroke-miterlimit="3.99933"/>
<line x1="716.155" y1="-1.115e-07" x2="716.155" y2="1872" stroke="#06A9EA" stroke-width="2.23" stroke-miterlimit="3.99933"/>
<line x1="760.845" y1="-1.115e-07" x2="760.845" y2="1872" stroke="#06A9EA" stroke-width="2.23" stroke-miterlimit="3.99933"/>
<line x1="805.535" y1="-1.115e-07" x2="805.535" y2="1872" stroke="#06A9EA" stroke-width="2.23" stroke-miterlimit="3.99933"/>
<line x1="850.225" y1="-1.115e-07" x2="850.225" y2="1872" stroke="#06A9EA" stroke-width="2.23" stroke-miterlimit="3.99933"/>
<line x1="894.915" y1="-1.115e-07" x2="894.915" y2="1872" stroke="#06A9EA" stroke-width="2.23" stroke-miterlimit="3.99933"/>
<line x1="939.605" y1="-1.115e-07" x2="939.605" y2="1872" stroke="#06A9EA" stroke-width="2.23" stroke-miterlimit="3.99933"/>
<line x1="984.295" y1="-1.115e-07" x2="984.295" y2="1872" stroke="#06A9EA" stroke-width="2.23" stroke-miterlimit="3.99933"/>
<line x1="1028.98" y1="-1.115e-07" x2="1028.98" y2="1872" stroke="#06A9EA" stroke-width="2.23" stroke-miterlimit="3.99933"/>
<line x1="1073.68" y1="-1.115e-07" x2="1073.68" y2="1872" stroke="#06A9EA" stroke-width="2.23" stroke-miterlimit="3.99933"/>
<line x1="1118.37" y1="-1.115e-07" x2="1118.36" y2="1872" stroke="#06A9EA" stroke-width="2.23" stroke-miterlimit="3.99933"/>
<line x1="1163.05" y1="-1.115e-07" x2="1163.05" y2="1872" stroke="#06A9EA" stroke-width="2.23" stroke-miterlimit="3.99933"/>
<line x1="1207.75" y1="-1.115e-07" x2="1207.75" y2="1872" stroke="#06A9EA" stroke-width="2.23" stroke-miterlimit="3.99933"/>
<line x1="1252.44" y1="-1.115e-07" x2="1252.44" y2="1872" stroke="#06A9EA" stroke-width="2.23" stroke-miterlimit="3.99933"/>
<line x1="1297.13" y1="-1.115e-07" x2="1297.12" y2="1872" stroke="#06A9EA" stroke-width="2.23" stroke-miterlimit="3.99933"/>
<line x1="1341.81" y1="-1.115e-07" x2="1341.81" y2="1872" stroke="#06A9EA" stroke-width="2.23" stroke-miterlimit="3.99933"/>
<line x1="1386.51" y1="-1.115e-07" x2="1386.51" y2="1872" stroke="#06A9EA" stroke-width="2.23" stroke-miterlimit="3.99933"/>
<line x1="180.99" y1="-2.23e-07" x2="180.99" y2="1872" stroke="#E03436" stroke-width="4.46" stroke-miterlimit="3.99933"/>
<rect width="85" height="85" transform="translate(92 1296)" fill="white"/>
<path d="M154.218 1378.34L120.668 1378.46C120.261 1378.44 119.855 1378.35 119.456 1378.34L104.245 1378.34C103.828 1378.34 103.392 1378.35 102.981 1378.28C100.766 1377.89 99.4235 1375.44 99.4191 1373.32L99.4194 1305.03C99.419 1304.18 99.3614 1303.3 99.4477 1302.46C99.7954 1299.08 102.251 1298.23 105.123 1298.22L114.63 1298.22L144.702 1298.22C145.352 1298.23 146.162 1298.17 146.785 1298.38L147.711 1298.63C150.076 1299.42 151.083 1300.55 152.733 1302.21L159.677 1309.28C162.287 1311.92 164.048 1313.6 164.053 1317.45L164.078 1354.27C164.909 1354.75 165.097 1354.88 165.812 1355.63C174.051 1364.2 168.048 1378.31 156.427 1378.33L154.218 1378.34ZM107.346 1300.67L105.278 1300.67C103.778 1300.68 101.94 1300.85 101.886 1302.83L101.888 1372.05C101.887 1372.63 101.809 1373.31 101.923 1373.89C102.08 1374.67 102.707 1375.83 103.626 1375.88L149.065 1375.87C148.764 1375.73 148.455 1375.31 148.21 1375.06C146.523 1373.38 145.214 1371.68 144.403 1369.41L143.851 1367.31L143.715 1366.43C143.357 1362.97 144.314 1359.39 146.495 1356.66C149.809 1352.51 155.838 1350.35 160.881 1352.44C161.156 1352.56 161.45 1352.6 161.641 1352.84L161.615 1322.78C161.615 1322.25 161.663 1316.5 161.621 1316.41C161.262 1315.63 156.457 1314.96 155.543 1314.89C154.881 1314.84 154.209 1314.88 153.549 1314.8C150.671 1314.45 147.664 1311.51 147.578 1308.59L147.581 1303.56C147.589 1300.68 147.893 1300.67 144.37 1300.67L107.346 1300.67ZM150.065 1302.96L150.024 1306.51C150.022 1307.34 149.933 1308.28 150.137 1309.09C150.469 1310.41 151.551 1311.67 152.845 1312.12C153.778 1312.45 154.858 1312.43 155.834 1312.53C157.224 1312.68 158.629 1312.86 159.985 1313.21C159.236 1312.23 158.386 1311.4 157.513 1310.53L151.381 1304.35C150.938 1303.9 150.531 1303.38 150.065 1302.96ZM156.113 1354.13C153.303 1354.26 150.769 1355.5 148.876 1357.57C142.628 1364.41 147.705 1376.32 157.044 1375.85L157.359 1375.82C163.269 1375.41 167.612 1369.98 167.219 1364.17C167.017 1361.18 165.385 1358.38 163.148 1356.44C161.193 1354.74 158.659 1354.09 156.113 1354.13Z" fill="#0A3445"/>
<path d="M147.429 1326.44L109.271 1326.44C108.88 1326.45 108.452 1326.49 108.066 1326.45C106.685 1326.3 106.679 1324.31 108.035 1324.09C108.357 1324.04 108.707 1324.06 109.033 1324.06L116.104 1324.05L154.037 1324.05C154.469 1324.05 154.919 1324 155.347 1324.03C156.955 1324.14 156.792 1326.15 155.48 1326.41C155.208 1326.47 154.897 1326.44 154.62 1326.44L147.429 1326.44Z" fill="#0A3445"/>
<path d="M135.309 1333.53L109.238 1333.53C108.914 1333.53 108.57 1333.56 108.249 1333.52C106.666 1333.32 106.463 1331.28 108.146 1331.12C108.825 1331.05 109.56 1331.1 110.244 1331.1L128.036 1331.1L155.426 1331.11C155.596 1331.12 155.718 1331.13 155.855 1331.24L155.895 1331.28C156.59 1331.88 156.741 1332.88 155.803 1333.38L155.684 1333.45C155.452 1333.55 155.137 1333.52 154.888 1333.52L135.309 1333.53Z" fill="#0A3445"/>
<path d="M155.298 1340.54L108.113 1340.57C106.795 1340.53 106.448 1338.4 108.38 1338.14L153.866 1338.14C154.381 1338.14 154.917 1338.1 155.43 1338.14C156.95 1338.24 156.855 1340.32 155.298 1340.54Z" fill="#0A3445"/>
<path d="M152.138 1347.63C151.724 1347.61 151.294 1347.63 150.877 1347.63L108.883 1347.64C108.602 1347.65 108.255 1347.7 107.981 1347.64C106.734 1347.38 106.225 1345.25 109.161 1345.24L111.185 1345.23L155.291 1345.25C156.453 1345.31 156.955 1346.72 155.973 1347.46L155.916 1347.5C155.628 1347.72 154.974 1347.63 154.616 1347.63L152.138 1347.63Z" fill="#0A3445"/>
<path d="M107.545 1354.55C106.774 1353.85 106.917 1352.59 107.998 1352.39C108.259 1352.34 108.555 1352.37 108.821 1352.36L140.663 1352.36C143.565 1352.36 146.079 1352.42 148.935 1351.72H149.113L146.756 1353.33C146.183 1353.73 145.549 1354.48 144.896 1354.72L144.654 1354.79C144.376 1354.85 144.023 1354.81 143.735 1354.81L108.274 1354.82C107.96 1354.81 107.796 1354.72 107.545 1354.55Z" fill="#0A3445"/>
<path d="M108.507 1361.91C108.303 1361.95 107.893 1362 107.731 1361.87L107.688 1361.83C106.628 1360.97 106.917 1359.68 108.047 1359.49C108.278 1359.46 108.527 1359.47 108.762 1359.47L132.601 1359.46C133.546 1359.46 134.502 1359.49 135.445 1359.42C136.166 1359.35 136.826 1359.85 136.862 1360.61C136.923 1361.94 135.611 1361.92 134.759 1361.92L108.507 1361.91Z" fill="#0A3445"/>
<path d="M150.632 1367.06C150.242 1366.64 149.786 1366.19 149.608 1365.63C149.288 1364.63 150.45 1363.95 151.273 1364.45C151.73 1364.72 152.119 1365.19 152.516 1365.56C153.182 1366.16 153.886 1366.76 154.633 1367.26C155.935 1366.61 158.557 1363.2 159.479 1362.04C160.187 1361.15 160.909 1359.86 161.986 1359.38L162.185 1359.37C163.34 1359.35 163.75 1360.44 163.075 1361.43L159.522 1365.87C158.799 1366.71 158.079 1367.55 157.292 1368.33C154.605 1370.99 152.853 1369.31 150.632 1367.06Z" fill="#0A3445"/>
<path d="M112.229 1369L108.169 1369C106.688 1369 106.607 1367.26 107.775 1366.77L107.839 1366.74C108.188 1366.59 108.716 1366.66 109.097 1366.66L129.572 1366.65L132.408 1366.64C132.953 1366.64 133.548 1366.58 134.085 1366.65C135.435 1366.83 134.992 1368.87 133.848 1368.98C133.096 1369.05 132.286 1368.99 131.529 1369L112.229 1369Z" fill="#0A3445"/>
<path d="M123.792 1379.78C123.615 1379.8 123.431 1379.79 123.253 1379.78L124.239 1379.65C124.413 1379.61 124.719 1379.61 124.892 1379.65C124.551 1379.76 124.147 1379.75 123.792 1379.78Z" fill="#0A3445"/>
<rect width="87" height="87" transform="translate(92 358)" fill="white"/>
<path d="M128.13 441.78L105.294 441.778C103.209 441.779 101.77 442.38 101.765 439.777L101.766 370.819C101.766 370.191 101.739 369.559 101.852 368.939C102.264 366.668 104.159 364.927 106.457 364.692C107.06 364.63 107.7 364.677 108.308 364.665C108.817 364.655 108.708 364.71 108.837 364.218C109.318 362.386 111.083 360.565 113.098 360.973C114.58 361.273 115.537 362.465 116.189 363.751C116.339 364.046 116.412 364.414 116.59 364.68L122.15 364.619L122.249 364.07C122.644 362.347 124.678 360.519 126.54 360.992L126.622 361.013C128.68 361.533 129.23 363.09 129.976 364.732L135.553 364.653C135.666 364.479 135.648 364.206 135.699 364.003C136.08 362.496 137.672 361.04 139.211 360.906C141.697 360.902 142.446 362.91 143.379 364.654L148.859 364.664C149.479 360.155 154.681 359.572 156.443 364.123C156.685 364.749 156.552 364.667 157.222 364.668C157.836 364.668 158.518 364.613 159.126 364.693C161.149 364.963 163.117 366.947 163.426 368.949C163.504 369.454 163.488 369.984 163.489 370.495L163.482 423.01C163.467 424.358 163.319 424.283 164.334 425.168C164.876 425.641 165.539 426.076 166.197 426.373C167.051 426.759 168.14 426.426 168.837 427.094C170.992 429.159 165.137 436.991 163.519 438.614C162.969 439.166 160.443 441.452 159.736 441.665C159.224 441.819 158.628 441.783 158.096 441.783L128.13 441.78ZM112.313 363.331C111.89 363.545 111.61 363.966 111.467 364.41L111.396 364.684L113.049 364.677L113.92 364.661C113.467 364.223 113.104 363.133 112.313 363.331ZM125.74 363.351C125.163 363.665 124.935 364.064 124.728 364.666L126.345 364.677L127.292 364.648C126.836 364.21 126.819 363.33 125.74 363.351ZM139.149 363.394C138.66 363.684 138.383 364.035 138.245 364.592L139.93 364.677L140.756 364.653C140.352 364.228 140.017 363.434 139.344 363.387L139.149 363.394ZM152.336 363.446C151.713 363.632 151.703 364.145 151.495 364.665L153.13 364.677L153.968 364.629C153.416 364.121 153.356 363.396 152.336 363.446ZM157.196 367.184C157.106 367.841 157.017 368.509 156.82 369.154C156.717 369.494 156.515 369.84 156.452 370.184C156.377 370.598 156.558 371.001 156.497 371.424C156.379 372.251 155.927 372.894 155.268 373.402C152.613 375.448 148.486 371.852 152.19 369.419C153.024 368.871 154.171 368.583 154.559 367.569C154.595 367.474 154.644 367.424 154.704 367.345L143.748 367.294C143.624 367.815 143.618 368.339 143.463 368.863C143.032 370.315 143.032 369.409 143.038 371.079C143.041 372.094 142.362 373.154 141.51 373.682C138.799 375.361 134.98 371.542 139.068 369.222C140.49 368.416 140.417 368.638 141.371 367.349C141.158 367.303 140.911 367.328 140.691 367.327L130.819 367.442C130.591 367.443 130.277 367.405 130.065 367.47C129.988 368.2 130.053 369.878 129.603 370.404C129.821 370.961 129.875 371.268 129.63 371.835C127.919 375.784 122.539 373.628 124.136 370.631C124.915 369.17 127.144 368.861 127.668 367.569C127.706 367.475 127.762 367.423 127.82 367.345L116.941 367.31L116.834 368.541C116.807 368.851 116.731 369.143 116.823 369.448L116.554 369.311C115.817 369.798 116.095 370.403 116.159 371.132C116.34 373.167 114.219 374.281 112.359 373.926C110.023 373.481 109.749 370.72 111.958 369.374C112.745 368.894 113.604 368.574 114.179 367.816C114.316 367.636 114.343 367.454 114.549 367.327L107.737 367.298C106.57 367.252 105.596 367.337 104.826 368.372L104.574 368.773C104.41 369.048 104.399 369.329 104.384 369.642L104.367 399.525L104.37 439.208C104.459 439.272 107.819 439.221 108.158 439.221H157.88C159.898 439.216 159.052 438.548 160.648 437.806C161.088 437.602 160.883 436.587 160.884 436.173L160.89 371.36C160.888 368.108 160.387 367.283 157.196 367.184ZM163.448 427.554L163.402 434.441L164.647 432.701L166.467 429.181C165.456 429.005 164.159 428.297 163.448 427.554Z" fill="#0A3445"/>
<path d="M118.907 385.85L112.818 385.852C110.886 385.85 110.775 383.977 111.952 383.405L112.016 383.375C112.177 383.298 112.333 383.28 112.51 383.274L147.705 383.271L153.545 383.268C153.827 383.268 154.157 383.238 154.424 383.337L154.489 383.364C154.903 383.531 155.588 384.176 155.401 384.696L155.383 384.741C154.967 385.948 154.016 385.845 152.979 385.847L118.907 385.85Z" fill="#0A3445"/>
<path d="M153.988 394.252L112.588 394.26C110.827 394.16 110.584 392.017 112.568 391.701L152.558 391.708C153.069 391.708 153.592 391.683 154.101 391.718C155.841 391.84 155.743 394.162 153.988 394.252Z" fill="#0A3445"/>
<path d="M139.989 402.691L115.394 402.695C114.138 402.697 111.211 403.242 111.187 401.326C111.171 399.99 112.949 400.138 113.82 400.141L126.482 400.139L152.987 400.138C153.406 400.138 153.838 400.114 154.255 400.145C155.696 400.252 155.712 402.464 154.238 402.65C153.698 402.718 153.122 402.684 152.577 402.685L139.989 402.691Z" fill="#0A3445"/>
<path d="M154.075 411.101L113.953 411.115C113.458 411.117 112.952 411.146 112.458 411.119C110.888 411.034 110.574 408.779 112.666 408.566L154.358 408.572C155.92 408.648 155.633 410.942 154.075 411.101Z" fill="#0A3445"/>
<path d="M124.566 419.449L113.549 419.453C113.101 419.454 112.63 419.482 112.185 419.438C111.733 419.393 111.214 418.635 111.197 418.235C111.141 416.878 112.719 416.915 113.607 416.912L142.151 416.911L154.042 416.902C154.197 416.908 154.352 416.917 154.497 416.978L154.552 417.004C155.949 417.637 155.355 419.35 154.325 419.444C153.982 419.475 153.617 419.452 153.272 419.452L124.566 419.449Z" fill="#0A3445"/>
<path d="M115.293 427.924L113.709 427.931C113.225 427.932 112.439 428.026 112.013 427.786L111.966 427.758C110.607 426.983 111.143 425.501 112.426 425.38C113.322 425.294 114.294 425.366 115.197 425.366L139.029 425.365L141.229 425.359C141.534 425.358 141.918 425.312 142.213 425.375C143.485 425.645 143.306 427.751 141.969 427.905C141.642 427.942 141.301 427.923 140.971 427.923L115.293 427.924Z" fill="#0A3445"/>
<rect width="86" height="86" transform="translate(92 179)" fill="white"/>
<path d="M135.66 200.75C127.494 201.024 126.422 189.675 134.447 188.633C137.515 188.356 140.655 190.531 141.067 193.685C141.524 197.19 139.195 200.306 135.66 200.75ZM134.947 191.198C130.04 191.529 130.814 198.273 135.178 198.046C139.831 197.744 139.38 191.059 134.947 191.198Z" fill="#0A3445"/>
<path d="M106.233 209.147C102.98 209.215 99.8824 206.822 99.611 203.518C99.2985 199.714 101.759 196.63 105.608 196.361C106.986 196.253 108.595 196.825 109.674 197.653C114.268 201.175 112.204 208.393 106.233 209.147ZM105.459 199.042C100.546 199.829 101.678 207.026 106.246 206.363C111.059 205.603 110.12 198.553 105.459 199.042Z" fill="#0A3445"/>
<path d="M164.657 209.142C156.664 209.408 155.082 197.469 163.682 196.401C166.901 196.118 170.045 198.61 170.383 201.844C170.762 205.484 168.36 208.777 164.657 209.142ZM163.775 199.044C158.913 199.781 159.854 206.591 164.541 206.418C167.994 205.828 168.869 201.514 166.247 199.706C165.572 199.24 164.604 198.9 163.775 199.044Z" fill="#0A3445"/>
<path d="M148.841 226.158L119.918 226.156C116.144 226.154 114.142 226.601 113.198 222.131L112.779 219.778C112.28 216.476 111.575 215.065 108.197 213.606C106.207 212.747 103.945 212.852 101.952 213.648C100.533 214.215 98.2433 215.535 97.6146 217.009C97.7747 218.511 98.0659 220.012 98.3332 221.497L100.604 234.067C101.202 237.192 101.249 239.5 105.025 239.511L112.987 239.529C112.838 239.379 112.792 239.178 112.7 238.991C111.8 237.157 111.924 236.72 109.919 236.537C106.495 236.226 102.703 234.637 101.48 231.141C100.774 229.119 102.526 228.153 103.358 228.967C103.645 229.246 103.775 229.677 103.926 230.04C105.982 234.976 111.129 232.962 113.332 235.05C114.545 236.201 115.137 238.132 115.757 239.639L118.019 244.927C118.32 245.658 118.592 246.456 118.99 247.137C119.676 248.312 121.226 248.084 121.776 246.932C122.133 246.183 121.428 244.812 121.173 244.107L117.753 234.37C117.153 232.649 115.546 231.161 113.737 230.81C113.007 230.668 112.182 230.688 111.505 230.35C110.097 229.644 109.801 228.267 109.574 226.867L108.253 218.789C108.192 218.518 108.092 218.219 108.077 217.943C107.989 216.422 110.004 215.655 110.673 217.445C110.974 218.249 111.044 219.218 111.183 220.063L112.239 226.872C112.412 227.791 112.73 227.83 113.576 228.055C118.42 229.347 119.329 230.854 120.815 235.154L123.64 243.114C123.938 243.947 124.265 244.792 124.424 245.665C125.258 250.247 119.158 252.517 116.711 248.559C116.235 247.788 115.928 246.909 115.588 246.072L114.272 242.869C114.086 242.426 114.198 242.208 113.721 242.174L104.67 242.139C100.962 242.12 99.0634 240.081 98.333 236.505L95.0712 218.186C94.8414 216.737 94.9631 216.156 95.8705 214.925C97.7621 212.359 100.626 210.987 103.695 210.492L104.113 210.441C108.164 210.124 112.924 212.023 114.616 215.877C115.061 216.892 115.235 218.044 115.319 219.143C116.012 219.039 116.731 219.062 117.43 219.035L120.96 218.906L121.844 213.735C122.429 210.599 122.967 206.842 126.523 205.772C127.552 205.463 128.652 205.521 129.672 205.233C130.348 205.043 130.784 204.47 131.453 204.287C133.039 204.21 132.929 205.501 133.213 206.684L133.232 206.758C133.512 207.936 133.93 208.889 134.139 210.138L134.457 212.734C134.556 213.727 134.412 214.026 135.102 214.78C135.476 214.257 135.577 212.227 135.669 211.551L136.01 209.508C136.22 208.54 136.628 207.642 136.847 206.687C137.041 205.841 136.933 204.408 138.105 204.269C138.62 204.208 139.034 204.465 139.432 204.752C140.453 205.487 141.988 205.379 143.186 205.685C146.155 206.444 147.203 208.762 147.744 211.468L149.001 218.917L154.671 219.074C154.919 217.825 154.992 216.596 155.602 215.445C156.766 213.247 159.246 211.56 161.576 210.849C166.161 209.45 171.517 211.248 174.3 215.158C175.521 216.874 175.026 217.829 174.677 219.72L171.517 237.374C170.801 240.369 168.643 242.131 165.459 242.139L158.913 242.146C157.952 242.147 156.977 242.116 156.017 242.179C155.86 242.332 155.737 242.8 155.642 243.02L153.735 247.689C151.295 253.107 144.798 250.023 145.568 245.773C145.762 244.706 146.224 243.662 146.59 242.642L149.537 234.33C150.53 231.413 151.506 229.632 154.783 228.594C156.358 228.095 157.493 228.427 157.802 226.655L159.039 218.552C159.153 217.775 159.257 216.716 160.154 216.446C161.145 216.147 162.002 217.23 161.874 218.18L160.503 226.574C160.279 228.131 160.019 229.88 158.259 230.468C157.696 230.656 157.063 230.666 156.478 230.764C153.93 231.194 152.928 232.702 152.161 234.885L149.697 241.947C149.247 243.235 148.697 244.509 148.317 245.818C147.928 247.163 148.852 248.189 150.179 247.79C150.977 247.551 151.266 246.686 151.558 245.996L153.971 240.219C154.856 238.109 156.001 234.631 158.526 234.087C159.735 233.827 160.942 233.868 162.144 233.486C164.591 232.708 165.254 231.654 166.326 229.602C167.442 227.467 170.192 229.233 167.73 232.726C166.372 234.654 163.962 235.974 161.664 236.352C158.979 236.792 158.771 235.879 157.452 238.805C157.362 239.003 157.332 239.261 157.211 239.436L164.467 239.51C167.794 239.501 168.436 238.893 169.119 235.474L172.064 219.28C172.188 218.527 172.358 217.742 172.367 216.979C170.514 213.82 165.454 212.221 162.099 213.428C161.222 213.743 160.409 214.23 159.66 214.779C157.897 216.071 157.747 216.753 157.407 218.844L156.997 221.27C156.296 225.311 155.49 226.139 151.608 226.152L148.841 226.158ZM139.126 207.487C138.768 208.951 138.455 210.45 138.264 211.946C138.132 212.981 138.132 214.074 137.877 215.085C137.817 215.321 136.524 218.765 136.387 218.932L143.598 218.925L146.34 218.903L145.302 212.88C144.754 210.025 144.816 208.94 141.74 208.165C140.864 207.945 139.987 207.761 139.126 207.487ZM130.737 207.619L128.071 208.214C126.269 208.664 125.723 209.013 125.169 210.915C124.902 211.828 124.74 212.766 124.57 213.701L123.899 217.549C123.613 219.166 123.385 218.926 124.721 218.926L126.623 218.925L133.626 218.815C133.544 218.682 133.514 218.531 133.459 218.386L133.1 217.539C131.844 214.632 132.033 214.628 131.653 211.566C131.604 211.168 131.041 207.702 130.843 207.6L130.737 207.619ZM123.693 221.545L118.384 221.564C117.828 221.593 116.283 221.684 115.861 221.798C116.04 222.592 116.17 223.474 117.111 223.505L146.474 223.52L150.674 223.52C151.571 223.519 152.574 223.602 153.453 223.42C153.822 223.026 154.172 222.442 154.167 221.877L154.158 221.803C152.527 221.508 150.914 221.551 149.265 221.548L123.693 221.545Z" fill="#0A3445"/>
<path d="M135.357 207.837C133.518 207.698 133.22 205.484 134.894 204.915C136.807 204.853 136.865 207.473 135.357 207.837Z" fill="#0A3445"/>
<rect width="130" height="41" transform="translate(47 113)" fill="white"/>
<text fill="#0A3445" xml:space="preserve" style="white-space: pre" font-family="Open Sans" font-size="36" font-weight="bold" letter-spacing="0em"><tspan x="71.2852" y="142.699">Topic:</tspan></text>
</g>
<defs>
<clipPath id="clip0_60_112734">
<rect width="1404" height="1872" fill="white"/>
</clipPath>
</defs>
</svg>
