<svg width="1404" height="1872" viewBox="0 0 1404 1872" fill="none" xmlns="http://www.w3.org/2000/svg">
<rect width="1404" height="1872" fill="white"/>
<rect x="93" y="91" width="618.22" height="346" fill="white"/>
<rect x="93" y="91" width="618.22" height="346" stroke="#06A9EA" stroke-width="4"/>
<line x1="91" y1="110.78" x2="711" y2="110.78" stroke="#06A9EA" stroke-width="1.12" stroke-miterlimit="3.99933"/>
<line x1="91" y1="133.12" x2="711" y2="133.12" stroke="#06A9EA" stroke-width="1.12" stroke-miterlimit="3.99933"/>
<line x1="91" y1="155.46" x2="711" y2="155.46" stroke="#06A9EA" stroke-width="1.12" stroke-miterlimit="3.99933"/>
<line x1="91" y1="177.799" x2="711" y2="177.799" stroke="#06A9EA" stroke-width="1.12" stroke-miterlimit="3.99933"/>
<line x1="91" y1="200.139" x2="711" y2="200.139" stroke="#06A9EA" stroke-width="1.12" stroke-miterlimit="3.99933"/>
<line x1="91" y1="222.479" x2="711" y2="222.479" stroke="#06A9EA" stroke-width="1.12" stroke-miterlimit="3.99933"/>
<line x1="91" y1="244.819" x2="711" y2="244.819" stroke="#06A9EA" stroke-width="1.12" stroke-miterlimit="3.99933"/>
<line x1="91" y1="267.161" x2="711" y2="267.161" stroke="#06A9EA" stroke-width="1.12" stroke-miterlimit="3.99933"/>
<line x1="91" y1="289.501" x2="711" y2="289.501" stroke="#06A9EA" stroke-width="1.12" stroke-miterlimit="3.99933"/>
<line x1="91" y1="311.84" x2="711" y2="311.84" stroke="#06A9EA" stroke-width="1.12" stroke-miterlimit="3.99933"/>
<line x1="91" y1="334.18" x2="711" y2="334.18" stroke="#06A9EA" stroke-width="1.12" stroke-miterlimit="3.99933"/>
<line x1="91" y1="356.52" x2="711" y2="356.52" stroke="#06A9EA" stroke-width="1.12" stroke-miterlimit="3.99933"/>
<line x1="91" y1="378.86" x2="711" y2="378.86" stroke="#06A9EA" stroke-width="1.12" stroke-miterlimit="3.99933"/>
<line x1="91" y1="401.2" x2="711" y2="401.2" stroke="#06A9EA" stroke-width="1.12" stroke-miterlimit="3.99933"/>
<line x1="91" y1="423.54" x2="711" y2="423.54" stroke="#06A9EA" stroke-width="1.12" stroke-miterlimit="3.99933"/>
<line x1="113.9" y1="89" x2="113.9" y2="437" stroke="#06A9EA" stroke-width="1.12" stroke-miterlimit="3.99933"/>
<line x1="136.24" y1="89" x2="136.24" y2="437" stroke="#06A9EA" stroke-width="1.12" stroke-miterlimit="3.99933"/>
<line x1="158.58" y1="89" x2="158.58" y2="437" stroke="#06A9EA" stroke-width="1.12" stroke-miterlimit="3.99933"/>
<line x1="180.92" y1="89" x2="180.92" y2="437" stroke="#06A9EA" stroke-width="1.12" stroke-miterlimit="3.99933"/>
<line x1="203.26" y1="89" x2="203.26" y2="437" stroke="#06A9EA" stroke-width="1.12" stroke-miterlimit="3.99933"/>
<line x1="225.6" y1="89" x2="225.6" y2="437" stroke="#06A9EA" stroke-width="1.12" stroke-miterlimit="3.99933"/>
<line x1="247.94" y1="89" x2="247.94" y2="437" stroke="#06A9EA" stroke-width="1.12" stroke-miterlimit="3.99933"/>
<line x1="270.28" y1="89" x2="270.28" y2="437" stroke="#06A9EA" stroke-width="1.12" stroke-miterlimit="3.99933"/>
<line x1="292.62" y1="89" x2="292.62" y2="437" stroke="#06A9EA" stroke-width="1.12" stroke-miterlimit="3.99933"/>
<line x1="314.96" y1="89" x2="314.96" y2="437" stroke="#06A9EA" stroke-width="1.12" stroke-miterlimit="3.99933"/>
<line x1="337.3" y1="89" x2="337.3" y2="437" stroke="#06A9EA" stroke-width="1.12" stroke-miterlimit="3.99933"/>
<line x1="359.64" y1="89" x2="359.64" y2="437" stroke="#06A9EA" stroke-width="1.12" stroke-miterlimit="3.99933"/>
<line x1="381.98" y1="89" x2="381.98" y2="437" stroke="#06A9EA" stroke-width="1.12" stroke-miterlimit="3.99933"/>
<line x1="404.32" y1="89" x2="404.32" y2="437" stroke="#06A9EA" stroke-width="1.12" stroke-miterlimit="3.99933"/>
<line x1="426.66" y1="89" x2="426.66" y2="437" stroke="#06A9EA" stroke-width="1.12" stroke-miterlimit="3.99933"/>
<line x1="449" y1="89" x2="449" y2="437" stroke="#06A9EA" stroke-width="1.12" stroke-miterlimit="3.99933"/>
<line x1="471.34" y1="89" x2="471.34" y2="437" stroke="#06A9EA" stroke-width="1.12" stroke-miterlimit="3.99933"/>
<line x1="493.68" y1="89" x2="493.68" y2="437" stroke="#06A9EA" stroke-width="1.12" stroke-miterlimit="3.99933"/>
<line x1="516.02" y1="89" x2="516.02" y2="437" stroke="#06A9EA" stroke-width="1.12" stroke-miterlimit="3.99933"/>
<line x1="538.36" y1="89" x2="538.36" y2="437" stroke="#06A9EA" stroke-width="1.12" stroke-miterlimit="3.99933"/>
<line x1="560.7" y1="89" x2="560.7" y2="437" stroke="#06A9EA" stroke-width="1.12" stroke-miterlimit="3.99933"/>
<line x1="583.04" y1="89" x2="583.04" y2="437" stroke="#06A9EA" stroke-width="1.12" stroke-miterlimit="3.99933"/>
<line x1="605.38" y1="89" x2="605.38" y2="437" stroke="#06A9EA" stroke-width="1.12" stroke-miterlimit="3.99933"/>
<line x1="627.72" y1="89" x2="627.72" y2="437" stroke="#06A9EA" stroke-width="1.12" stroke-miterlimit="3.99933"/>
<line x1="650.06" y1="89" x2="650.06" y2="437" stroke="#06A9EA" stroke-width="1.12" stroke-miterlimit="3.99933"/>
<line x1="672.4" y1="89" x2="672.4" y2="437" stroke="#06A9EA" stroke-width="1.12" stroke-miterlimit="3.99933"/>
<line x1="694.74" y1="89" x2="694.74" y2="437" stroke="#06A9EA" stroke-width="1.12" stroke-miterlimit="3.99933"/>
<rect x="93" y="561" width="618.22" height="346" fill="white"/>
<rect x="93" y="561" width="618.22" height="346" stroke="#06A9EA" stroke-width="4"/>
<line x1="91" y1="580.78" x2="711" y2="580.78" stroke="#06A9EA" stroke-width="1.12" stroke-miterlimit="3.99933"/>
<line x1="91" y1="603.12" x2="711" y2="603.12" stroke="#06A9EA" stroke-width="1.12" stroke-miterlimit="3.99933"/>
<line x1="91" y1="625.46" x2="711" y2="625.46" stroke="#06A9EA" stroke-width="1.12" stroke-miterlimit="3.99933"/>
<line x1="91" y1="647.799" x2="711" y2="647.799" stroke="#06A9EA" stroke-width="1.12" stroke-miterlimit="3.99933"/>
<line x1="91" y1="670.139" x2="711" y2="670.139" stroke="#06A9EA" stroke-width="1.12" stroke-miterlimit="3.99933"/>
<line x1="91" y1="692.479" x2="711" y2="692.479" stroke="#06A9EA" stroke-width="1.12" stroke-miterlimit="3.99933"/>
<line x1="91" y1="714.819" x2="711" y2="714.819" stroke="#06A9EA" stroke-width="1.12" stroke-miterlimit="3.99933"/>
<line x1="91" y1="737.161" x2="711" y2="737.161" stroke="#06A9EA" stroke-width="1.12" stroke-miterlimit="3.99933"/>
<line x1="91" y1="759.501" x2="711" y2="759.501" stroke="#06A9EA" stroke-width="1.12" stroke-miterlimit="3.99933"/>
<line x1="91" y1="781.84" x2="711" y2="781.84" stroke="#06A9EA" stroke-width="1.12" stroke-miterlimit="3.99933"/>
<line x1="91" y1="804.18" x2="711" y2="804.18" stroke="#06A9EA" stroke-width="1.12" stroke-miterlimit="3.99933"/>
<line x1="91" y1="826.52" x2="711" y2="826.52" stroke="#06A9EA" stroke-width="1.12" stroke-miterlimit="3.99933"/>
<line x1="91" y1="848.86" x2="711" y2="848.86" stroke="#06A9EA" stroke-width="1.12" stroke-miterlimit="3.99933"/>
<line x1="91" y1="871.2" x2="711" y2="871.2" stroke="#06A9EA" stroke-width="1.12" stroke-miterlimit="3.99933"/>
<line x1="91" y1="893.54" x2="711" y2="893.54" stroke="#06A9EA" stroke-width="1.12" stroke-miterlimit="3.99933"/>
<line x1="113.9" y1="559" x2="113.9" y2="907" stroke="#06A9EA" stroke-width="1.12" stroke-miterlimit="3.99933"/>
<line x1="136.24" y1="559" x2="136.24" y2="907" stroke="#06A9EA" stroke-width="1.12" stroke-miterlimit="3.99933"/>
<line x1="158.58" y1="559" x2="158.58" y2="907" stroke="#06A9EA" stroke-width="1.12" stroke-miterlimit="3.99933"/>
<line x1="180.92" y1="559" x2="180.92" y2="907" stroke="#06A9EA" stroke-width="1.12" stroke-miterlimit="3.99933"/>
<line x1="203.26" y1="559" x2="203.26" y2="907" stroke="#06A9EA" stroke-width="1.12" stroke-miterlimit="3.99933"/>
<line x1="225.6" y1="559" x2="225.6" y2="907" stroke="#06A9EA" stroke-width="1.12" stroke-miterlimit="3.99933"/>
<line x1="247.94" y1="559" x2="247.94" y2="907" stroke="#06A9EA" stroke-width="1.12" stroke-miterlimit="3.99933"/>
<line x1="270.28" y1="559" x2="270.28" y2="907" stroke="#06A9EA" stroke-width="1.12" stroke-miterlimit="3.99933"/>
<line x1="292.62" y1="559" x2="292.62" y2="907" stroke="#06A9EA" stroke-width="1.12" stroke-miterlimit="3.99933"/>
<line x1="314.96" y1="559" x2="314.96" y2="907" stroke="#06A9EA" stroke-width="1.12" stroke-miterlimit="3.99933"/>
<line x1="337.3" y1="559" x2="337.3" y2="907" stroke="#06A9EA" stroke-width="1.12" stroke-miterlimit="3.99933"/>
<line x1="359.64" y1="559" x2="359.64" y2="907" stroke="#06A9EA" stroke-width="1.12" stroke-miterlimit="3.99933"/>
<line x1="381.98" y1="559" x2="381.98" y2="907" stroke="#06A9EA" stroke-width="1.12" stroke-miterlimit="3.99933"/>
<line x1="404.32" y1="559" x2="404.32" y2="907" stroke="#06A9EA" stroke-width="1.12" stroke-miterlimit="3.99933"/>
<line x1="426.66" y1="559" x2="426.66" y2="907" stroke="#06A9EA" stroke-width="1.12" stroke-miterlimit="3.99933"/>
<line x1="449" y1="559" x2="449" y2="907" stroke="#06A9EA" stroke-width="1.12" stroke-miterlimit="3.99933"/>
<line x1="471.34" y1="559" x2="471.34" y2="907" stroke="#06A9EA" stroke-width="1.12" stroke-miterlimit="3.99933"/>
<line x1="493.68" y1="559" x2="493.68" y2="907" stroke="#06A9EA" stroke-width="1.12" stroke-miterlimit="3.99933"/>
<line x1="516.02" y1="559" x2="516.02" y2="907" stroke="#06A9EA" stroke-width="1.12" stroke-miterlimit="3.99933"/>
<line x1="538.36" y1="559" x2="538.36" y2="907" stroke="#06A9EA" stroke-width="1.12" stroke-miterlimit="3.99933"/>
<line x1="560.7" y1="559" x2="560.7" y2="907" stroke="#06A9EA" stroke-width="1.12" stroke-miterlimit="3.99933"/>
<line x1="583.04" y1="559" x2="583.04" y2="907" stroke="#06A9EA" stroke-width="1.12" stroke-miterlimit="3.99933"/>
<line x1="605.38" y1="559" x2="605.38" y2="907" stroke="#06A9EA" stroke-width="1.12" stroke-miterlimit="3.99933"/>
<line x1="627.72" y1="559" x2="627.72" y2="907" stroke="#06A9EA" stroke-width="1.12" stroke-miterlimit="3.99933"/>
<line x1="650.06" y1="559" x2="650.06" y2="907" stroke="#06A9EA" stroke-width="1.12" stroke-miterlimit="3.99933"/>
<line x1="672.4" y1="559" x2="672.4" y2="907" stroke="#06A9EA" stroke-width="1.12" stroke-miterlimit="3.99933"/>
<line x1="694.74" y1="559" x2="694.74" y2="907" stroke="#06A9EA" stroke-width="1.12" stroke-miterlimit="3.99933"/>
<rect x="93" y="1031" width="618.22" height="346" fill="white"/>
<rect x="93" y="1031" width="618.22" height="346" stroke="#06A9EA" stroke-width="4"/>
<line x1="91" y1="1050.78" x2="711" y2="1050.78" stroke="#06A9EA" stroke-width="1.12" stroke-miterlimit="3.99933"/>
<line x1="91" y1="1073.12" x2="711" y2="1073.12" stroke="#06A9EA" stroke-width="1.12" stroke-miterlimit="3.99933"/>
<line x1="91" y1="1095.46" x2="711" y2="1095.46" stroke="#06A9EA" stroke-width="1.12" stroke-miterlimit="3.99933"/>
<line x1="91" y1="1117.8" x2="711" y2="1117.8" stroke="#06A9EA" stroke-width="1.12" stroke-miterlimit="3.99933"/>
<line x1="91" y1="1140.14" x2="711" y2="1140.14" stroke="#06A9EA" stroke-width="1.12" stroke-miterlimit="3.99933"/>
<line x1="91" y1="1162.48" x2="711" y2="1162.48" stroke="#06A9EA" stroke-width="1.12" stroke-miterlimit="3.99933"/>
<line x1="91" y1="1184.82" x2="711" y2="1184.82" stroke="#06A9EA" stroke-width="1.12" stroke-miterlimit="3.99933"/>
<line x1="91" y1="1207.16" x2="711" y2="1207.16" stroke="#06A9EA" stroke-width="1.12" stroke-miterlimit="3.99933"/>
<line x1="91" y1="1229.5" x2="711" y2="1229.5" stroke="#06A9EA" stroke-width="1.12" stroke-miterlimit="3.99933"/>
<line x1="91" y1="1251.84" x2="711" y2="1251.84" stroke="#06A9EA" stroke-width="1.12" stroke-miterlimit="3.99933"/>
<line x1="91" y1="1274.18" x2="711" y2="1274.18" stroke="#06A9EA" stroke-width="1.12" stroke-miterlimit="3.99933"/>
<line x1="91" y1="1296.52" x2="711" y2="1296.52" stroke="#06A9EA" stroke-width="1.12" stroke-miterlimit="3.99933"/>
<line x1="91" y1="1318.86" x2="711" y2="1318.86" stroke="#06A9EA" stroke-width="1.12" stroke-miterlimit="3.99933"/>
<line x1="91" y1="1341.2" x2="711" y2="1341.2" stroke="#06A9EA" stroke-width="1.12" stroke-miterlimit="3.99933"/>
<line x1="91" y1="1363.54" x2="711" y2="1363.54" stroke="#06A9EA" stroke-width="1.12" stroke-miterlimit="3.99933"/>
<line x1="113.9" y1="1029" x2="113.9" y2="1377" stroke="#06A9EA" stroke-width="1.12" stroke-miterlimit="3.99933"/>
<line x1="136.24" y1="1029" x2="136.24" y2="1377" stroke="#06A9EA" stroke-width="1.12" stroke-miterlimit="3.99933"/>
<line x1="158.58" y1="1029" x2="158.58" y2="1377" stroke="#06A9EA" stroke-width="1.12" stroke-miterlimit="3.99933"/>
<line x1="180.92" y1="1029" x2="180.92" y2="1377" stroke="#06A9EA" stroke-width="1.12" stroke-miterlimit="3.99933"/>
<line x1="203.26" y1="1029" x2="203.26" y2="1377" stroke="#06A9EA" stroke-width="1.12" stroke-miterlimit="3.99933"/>
<line x1="225.6" y1="1029" x2="225.6" y2="1377" stroke="#06A9EA" stroke-width="1.12" stroke-miterlimit="3.99933"/>
<line x1="247.94" y1="1029" x2="247.94" y2="1377" stroke="#06A9EA" stroke-width="1.12" stroke-miterlimit="3.99933"/>
<line x1="270.28" y1="1029" x2="270.28" y2="1377" stroke="#06A9EA" stroke-width="1.12" stroke-miterlimit="3.99933"/>
<line x1="292.62" y1="1029" x2="292.62" y2="1377" stroke="#06A9EA" stroke-width="1.12" stroke-miterlimit="3.99933"/>
<line x1="314.96" y1="1029" x2="314.96" y2="1377" stroke="#06A9EA" stroke-width="1.12" stroke-miterlimit="3.99933"/>
<line x1="337.3" y1="1029" x2="337.3" y2="1377" stroke="#06A9EA" stroke-width="1.12" stroke-miterlimit="3.99933"/>
<line x1="359.64" y1="1029" x2="359.64" y2="1377" stroke="#06A9EA" stroke-width="1.12" stroke-miterlimit="3.99933"/>
<line x1="381.98" y1="1029" x2="381.98" y2="1377" stroke="#06A9EA" stroke-width="1.12" stroke-miterlimit="3.99933"/>
<line x1="404.32" y1="1029" x2="404.32" y2="1377" stroke="#06A9EA" stroke-width="1.12" stroke-miterlimit="3.99933"/>
<line x1="426.66" y1="1029" x2="426.66" y2="1377" stroke="#06A9EA" stroke-width="1.12" stroke-miterlimit="3.99933"/>
<line x1="449" y1="1029" x2="449" y2="1377" stroke="#06A9EA" stroke-width="1.12" stroke-miterlimit="3.99933"/>
<line x1="471.34" y1="1029" x2="471.34" y2="1377" stroke="#06A9EA" stroke-width="1.12" stroke-miterlimit="3.99933"/>
<line x1="493.68" y1="1029" x2="493.68" y2="1377" stroke="#06A9EA" stroke-width="1.12" stroke-miterlimit="3.99933"/>
<line x1="516.02" y1="1029" x2="516.02" y2="1377" stroke="#06A9EA" stroke-width="1.12" stroke-miterlimit="3.99933"/>
<line x1="538.36" y1="1029" x2="538.36" y2="1377" stroke="#06A9EA" stroke-width="1.12" stroke-miterlimit="3.99933"/>
<line x1="560.7" y1="1029" x2="560.7" y2="1377" stroke="#06A9EA" stroke-width="1.12" stroke-miterlimit="3.99933"/>
<line x1="583.04" y1="1029" x2="583.04" y2="1377" stroke="#06A9EA" stroke-width="1.12" stroke-miterlimit="3.99933"/>
<line x1="605.38" y1="1029" x2="605.38" y2="1377" stroke="#06A9EA" stroke-width="1.12" stroke-miterlimit="3.99933"/>
<line x1="627.72" y1="1029" x2="627.72" y2="1377" stroke="#06A9EA" stroke-width="1.12" stroke-miterlimit="3.99933"/>
<line x1="650.06" y1="1029" x2="650.06" y2="1377" stroke="#06A9EA" stroke-width="1.12" stroke-miterlimit="3.99933"/>
<line x1="672.4" y1="1029" x2="672.4" y2="1377" stroke="#06A9EA" stroke-width="1.12" stroke-miterlimit="3.99933"/>
<line x1="694.74" y1="1029" x2="694.74" y2="1377" stroke="#06A9EA" stroke-width="1.12" stroke-miterlimit="3.99933"/>
<rect x="93" y="1501" width="618.22" height="346" fill="white"/>
<rect x="93" y="1501" width="618.22" height="346" stroke="#06A9EA" stroke-width="4"/>
<line x1="91" y1="1520.78" x2="711" y2="1520.78" stroke="#06A9EA" stroke-width="1.12" stroke-miterlimit="3.99933"/>
<line x1="91" y1="1543.12" x2="711" y2="1543.12" stroke="#06A9EA" stroke-width="1.12" stroke-miterlimit="3.99933"/>
<line x1="91" y1="1565.46" x2="711" y2="1565.46" stroke="#06A9EA" stroke-width="1.12" stroke-miterlimit="3.99933"/>
<line x1="91" y1="1587.8" x2="711" y2="1587.8" stroke="#06A9EA" stroke-width="1.12" stroke-miterlimit="3.99933"/>
<line x1="91" y1="1610.14" x2="711" y2="1610.14" stroke="#06A9EA" stroke-width="1.12" stroke-miterlimit="3.99933"/>
<line x1="91" y1="1632.48" x2="711" y2="1632.48" stroke="#06A9EA" stroke-width="1.12" stroke-miterlimit="3.99933"/>
<line x1="91" y1="1654.82" x2="711" y2="1654.82" stroke="#06A9EA" stroke-width="1.12" stroke-miterlimit="3.99933"/>
<line x1="91" y1="1677.16" x2="711" y2="1677.16" stroke="#06A9EA" stroke-width="1.12" stroke-miterlimit="3.99933"/>
<line x1="91" y1="1699.5" x2="711" y2="1699.5" stroke="#06A9EA" stroke-width="1.12" stroke-miterlimit="3.99933"/>
<line x1="91" y1="1721.84" x2="711" y2="1721.84" stroke="#06A9EA" stroke-width="1.12" stroke-miterlimit="3.99933"/>
<line x1="91" y1="1744.18" x2="711" y2="1744.18" stroke="#06A9EA" stroke-width="1.12" stroke-miterlimit="3.99933"/>
<line x1="91" y1="1766.52" x2="711" y2="1766.52" stroke="#06A9EA" stroke-width="1.12" stroke-miterlimit="3.99933"/>
<line x1="91" y1="1788.86" x2="711" y2="1788.86" stroke="#06A9EA" stroke-width="1.12" stroke-miterlimit="3.99933"/>
<line x1="91" y1="1811.2" x2="711" y2="1811.2" stroke="#06A9EA" stroke-width="1.12" stroke-miterlimit="3.99933"/>
<line x1="91" y1="1833.54" x2="711" y2="1833.54" stroke="#06A9EA" stroke-width="1.12" stroke-miterlimit="3.99933"/>
<line x1="113.9" y1="1499" x2="113.9" y2="1847" stroke="#06A9EA" stroke-width="1.12" stroke-miterlimit="3.99933"/>
<line x1="136.24" y1="1499" x2="136.24" y2="1847" stroke="#06A9EA" stroke-width="1.12" stroke-miterlimit="3.99933"/>
<line x1="158.58" y1="1499" x2="158.58" y2="1847" stroke="#06A9EA" stroke-width="1.12" stroke-miterlimit="3.99933"/>
<line x1="180.92" y1="1499" x2="180.92" y2="1847" stroke="#06A9EA" stroke-width="1.12" stroke-miterlimit="3.99933"/>
<line x1="203.26" y1="1499" x2="203.26" y2="1847" stroke="#06A9EA" stroke-width="1.12" stroke-miterlimit="3.99933"/>
<line x1="225.6" y1="1499" x2="225.6" y2="1847" stroke="#06A9EA" stroke-width="1.12" stroke-miterlimit="3.99933"/>
<line x1="247.94" y1="1499" x2="247.94" y2="1847" stroke="#06A9EA" stroke-width="1.12" stroke-miterlimit="3.99933"/>
<line x1="270.28" y1="1499" x2="270.28" y2="1847" stroke="#06A9EA" stroke-width="1.12" stroke-miterlimit="3.99933"/>
<line x1="292.62" y1="1499" x2="292.62" y2="1847" stroke="#06A9EA" stroke-width="1.12" stroke-miterlimit="3.99933"/>
<line x1="314.96" y1="1499" x2="314.96" y2="1847" stroke="#06A9EA" stroke-width="1.12" stroke-miterlimit="3.99933"/>
<line x1="337.3" y1="1499" x2="337.3" y2="1847" stroke="#06A9EA" stroke-width="1.12" stroke-miterlimit="3.99933"/>
<line x1="359.64" y1="1499" x2="359.64" y2="1847" stroke="#06A9EA" stroke-width="1.12" stroke-miterlimit="3.99933"/>
<line x1="381.98" y1="1499" x2="381.98" y2="1847" stroke="#06A9EA" stroke-width="1.12" stroke-miterlimit="3.99933"/>
<line x1="404.32" y1="1499" x2="404.32" y2="1847" stroke="#06A9EA" stroke-width="1.12" stroke-miterlimit="3.99933"/>
<line x1="426.66" y1="1499" x2="426.66" y2="1847" stroke="#06A9EA" stroke-width="1.12" stroke-miterlimit="3.99933"/>
<line x1="449" y1="1499" x2="449" y2="1847" stroke="#06A9EA" stroke-width="1.12" stroke-miterlimit="3.99933"/>
<line x1="471.34" y1="1499" x2="471.34" y2="1847" stroke="#06A9EA" stroke-width="1.12" stroke-miterlimit="3.99933"/>
<line x1="493.68" y1="1499" x2="493.68" y2="1847" stroke="#06A9EA" stroke-width="1.12" stroke-miterlimit="3.99933"/>
<line x1="516.02" y1="1499" x2="516.02" y2="1847" stroke="#06A9EA" stroke-width="1.12" stroke-miterlimit="3.99933"/>
<line x1="538.36" y1="1499" x2="538.36" y2="1847" stroke="#06A9EA" stroke-width="1.12" stroke-miterlimit="3.99933"/>
<line x1="560.7" y1="1499" x2="560.7" y2="1847" stroke="#06A9EA" stroke-width="1.12" stroke-miterlimit="3.99933"/>
<line x1="583.04" y1="1499" x2="583.04" y2="1847" stroke="#06A9EA" stroke-width="1.12" stroke-miterlimit="3.99933"/>
<line x1="605.38" y1="1499" x2="605.38" y2="1847" stroke="#06A9EA" stroke-width="1.12" stroke-miterlimit="3.99933"/>
<line x1="627.72" y1="1499" x2="627.72" y2="1847" stroke="#06A9EA" stroke-width="1.12" stroke-miterlimit="3.99933"/>
<line x1="650.06" y1="1499" x2="650.06" y2="1847" stroke="#06A9EA" stroke-width="1.12" stroke-miterlimit="3.99933"/>
<line x1="672.4" y1="1499" x2="672.4" y2="1847" stroke="#06A9EA" stroke-width="1.12" stroke-miterlimit="3.99933"/>
<line x1="694.74" y1="1499" x2="694.74" y2="1847" stroke="#06A9EA" stroke-width="1.12" stroke-miterlimit="3.99933"/>
<rect x="762" y="91" width="618.22" height="346" fill="white"/>
<rect x="762" y="91" width="618.22" height="346" stroke="#06A9EA" stroke-width="4"/>
<line x1="760" y1="110.78" x2="1380" y2="110.78" stroke="#06A9EA" stroke-width="1.12" stroke-miterlimit="3.99933"/>
<line x1="760" y1="133.12" x2="1380" y2="133.12" stroke="#06A9EA" stroke-width="1.12" stroke-miterlimit="3.99933"/>
<line x1="760" y1="155.46" x2="1380" y2="155.46" stroke="#06A9EA" stroke-width="1.12" stroke-miterlimit="3.99933"/>
<line x1="760" y1="177.799" x2="1380" y2="177.799" stroke="#06A9EA" stroke-width="1.12" stroke-miterlimit="3.99933"/>
<line x1="760" y1="200.139" x2="1380" y2="200.139" stroke="#06A9EA" stroke-width="1.12" stroke-miterlimit="3.99933"/>
<line x1="760" y1="222.479" x2="1380" y2="222.479" stroke="#06A9EA" stroke-width="1.12" stroke-miterlimit="3.99933"/>
<line x1="760" y1="244.819" x2="1380" y2="244.819" stroke="#06A9EA" stroke-width="1.12" stroke-miterlimit="3.99933"/>
<line x1="760" y1="267.161" x2="1380" y2="267.161" stroke="#06A9EA" stroke-width="1.12" stroke-miterlimit="3.99933"/>
<line x1="760" y1="289.501" x2="1380" y2="289.501" stroke="#06A9EA" stroke-width="1.12" stroke-miterlimit="3.99933"/>
<line x1="760" y1="311.84" x2="1380" y2="311.84" stroke="#06A9EA" stroke-width="1.12" stroke-miterlimit="3.99933"/>
<line x1="760" y1="334.18" x2="1380" y2="334.18" stroke="#06A9EA" stroke-width="1.12" stroke-miterlimit="3.99933"/>
<line x1="760" y1="356.52" x2="1380" y2="356.52" stroke="#06A9EA" stroke-width="1.12" stroke-miterlimit="3.99933"/>
<line x1="760" y1="378.86" x2="1380" y2="378.86" stroke="#06A9EA" stroke-width="1.12" stroke-miterlimit="3.99933"/>
<line x1="760" y1="401.2" x2="1380" y2="401.2" stroke="#06A9EA" stroke-width="1.12" stroke-miterlimit="3.99933"/>
<line x1="760" y1="423.54" x2="1380" y2="423.54" stroke="#06A9EA" stroke-width="1.12" stroke-miterlimit="3.99933"/>
<line x1="782.9" y1="89" x2="782.9" y2="437" stroke="#06A9EA" stroke-width="1.12" stroke-miterlimit="3.99933"/>
<line x1="805.24" y1="89" x2="805.24" y2="437" stroke="#06A9EA" stroke-width="1.12" stroke-miterlimit="3.99933"/>
<line x1="827.58" y1="89" x2="827.58" y2="437" stroke="#06A9EA" stroke-width="1.12" stroke-miterlimit="3.99933"/>
<line x1="849.92" y1="89" x2="849.92" y2="437" stroke="#06A9EA" stroke-width="1.12" stroke-miterlimit="3.99933"/>
<line x1="872.26" y1="89" x2="872.26" y2="437" stroke="#06A9EA" stroke-width="1.12" stroke-miterlimit="3.99933"/>
<line x1="894.6" y1="89" x2="894.6" y2="437" stroke="#06A9EA" stroke-width="1.12" stroke-miterlimit="3.99933"/>
<line x1="916.94" y1="89" x2="916.94" y2="437" stroke="#06A9EA" stroke-width="1.12" stroke-miterlimit="3.99933"/>
<line x1="939.28" y1="89" x2="939.28" y2="437" stroke="#06A9EA" stroke-width="1.12" stroke-miterlimit="3.99933"/>
<line x1="961.62" y1="89" x2="961.62" y2="437" stroke="#06A9EA" stroke-width="1.12" stroke-miterlimit="3.99933"/>
<line x1="983.96" y1="89" x2="983.96" y2="437" stroke="#06A9EA" stroke-width="1.12" stroke-miterlimit="3.99933"/>
<line x1="1006.3" y1="89" x2="1006.3" y2="437" stroke="#06A9EA" stroke-width="1.12" stroke-miterlimit="3.99933"/>
<line x1="1028.64" y1="89" x2="1028.64" y2="437" stroke="#06A9EA" stroke-width="1.12" stroke-miterlimit="3.99933"/>
<line x1="1050.98" y1="89" x2="1050.98" y2="437" stroke="#06A9EA" stroke-width="1.12" stroke-miterlimit="3.99933"/>
<line x1="1073.32" y1="89" x2="1073.32" y2="437" stroke="#06A9EA" stroke-width="1.12" stroke-miterlimit="3.99933"/>
<line x1="1095.66" y1="89" x2="1095.66" y2="437" stroke="#06A9EA" stroke-width="1.12" stroke-miterlimit="3.99933"/>
<line x1="1118" y1="89" x2="1118" y2="437" stroke="#06A9EA" stroke-width="1.12" stroke-miterlimit="3.99933"/>
<line x1="1140.34" y1="89" x2="1140.34" y2="437" stroke="#06A9EA" stroke-width="1.12" stroke-miterlimit="3.99933"/>
<line x1="1162.68" y1="89" x2="1162.68" y2="437" stroke="#06A9EA" stroke-width="1.12" stroke-miterlimit="3.99933"/>
<line x1="1185.02" y1="89" x2="1185.02" y2="437" stroke="#06A9EA" stroke-width="1.12" stroke-miterlimit="3.99933"/>
<line x1="1207.36" y1="89" x2="1207.36" y2="437" stroke="#06A9EA" stroke-width="1.12" stroke-miterlimit="3.99933"/>
<line x1="1229.7" y1="89" x2="1229.7" y2="437" stroke="#06A9EA" stroke-width="1.12" stroke-miterlimit="3.99933"/>
<line x1="1252.04" y1="89" x2="1252.04" y2="437" stroke="#06A9EA" stroke-width="1.12" stroke-miterlimit="3.99933"/>
<line x1="1274.38" y1="89" x2="1274.38" y2="437" stroke="#06A9EA" stroke-width="1.12" stroke-miterlimit="3.99933"/>
<line x1="1296.72" y1="89" x2="1296.72" y2="437" stroke="#06A9EA" stroke-width="1.12" stroke-miterlimit="3.99933"/>
<line x1="1319.06" y1="89" x2="1319.06" y2="437" stroke="#06A9EA" stroke-width="1.12" stroke-miterlimit="3.99933"/>
<line x1="1341.4" y1="89" x2="1341.4" y2="437" stroke="#06A9EA" stroke-width="1.12" stroke-miterlimit="3.99933"/>
<line x1="1363.74" y1="89" x2="1363.74" y2="437" stroke="#06A9EA" stroke-width="1.12" stroke-miterlimit="3.99933"/>
<rect x="762" y="561" width="618.22" height="346" fill="white"/>
<rect x="762" y="561" width="618.22" height="346" stroke="#06A9EA" stroke-width="4"/>
<line x1="760" y1="580.78" x2="1380" y2="580.78" stroke="#06A9EA" stroke-width="1.12" stroke-miterlimit="3.99933"/>
<line x1="760" y1="603.12" x2="1380" y2="603.12" stroke="#06A9EA" stroke-width="1.12" stroke-miterlimit="3.99933"/>
<line x1="760" y1="625.46" x2="1380" y2="625.46" stroke="#06A9EA" stroke-width="1.12" stroke-miterlimit="3.99933"/>
<line x1="760" y1="647.799" x2="1380" y2="647.799" stroke="#06A9EA" stroke-width="1.12" stroke-miterlimit="3.99933"/>
<line x1="760" y1="670.139" x2="1380" y2="670.139" stroke="#06A9EA" stroke-width="1.12" stroke-miterlimit="3.99933"/>
<line x1="760" y1="692.479" x2="1380" y2="692.479" stroke="#06A9EA" stroke-width="1.12" stroke-miterlimit="3.99933"/>
<line x1="760" y1="714.819" x2="1380" y2="714.819" stroke="#06A9EA" stroke-width="1.12" stroke-miterlimit="3.99933"/>
<line x1="760" y1="737.161" x2="1380" y2="737.161" stroke="#06A9EA" stroke-width="1.12" stroke-miterlimit="3.99933"/>
<line x1="760" y1="759.501" x2="1380" y2="759.501" stroke="#06A9EA" stroke-width="1.12" stroke-miterlimit="3.99933"/>
<line x1="760" y1="781.84" x2="1380" y2="781.84" stroke="#06A9EA" stroke-width="1.12" stroke-miterlimit="3.99933"/>
<line x1="760" y1="804.18" x2="1380" y2="804.18" stroke="#06A9EA" stroke-width="1.12" stroke-miterlimit="3.99933"/>
<line x1="760" y1="826.52" x2="1380" y2="826.52" stroke="#06A9EA" stroke-width="1.12" stroke-miterlimit="3.99933"/>
<line x1="760" y1="848.86" x2="1380" y2="848.86" stroke="#06A9EA" stroke-width="1.12" stroke-miterlimit="3.99933"/>
<line x1="760" y1="871.2" x2="1380" y2="871.2" stroke="#06A9EA" stroke-width="1.12" stroke-miterlimit="3.99933"/>
<line x1="760" y1="893.54" x2="1380" y2="893.54" stroke="#06A9EA" stroke-width="1.12" stroke-miterlimit="3.99933"/>
<line x1="782.9" y1="559" x2="782.9" y2="907" stroke="#06A9EA" stroke-width="1.12" stroke-miterlimit="3.99933"/>
<line x1="805.24" y1="559" x2="805.24" y2="907" stroke="#06A9EA" stroke-width="1.12" stroke-miterlimit="3.99933"/>
<line x1="827.58" y1="559" x2="827.58" y2="907" stroke="#06A9EA" stroke-width="1.12" stroke-miterlimit="3.99933"/>
<line x1="849.92" y1="559" x2="849.92" y2="907" stroke="#06A9EA" stroke-width="1.12" stroke-miterlimit="3.99933"/>
<line x1="872.26" y1="559" x2="872.26" y2="907" stroke="#06A9EA" stroke-width="1.12" stroke-miterlimit="3.99933"/>
<line x1="894.6" y1="559" x2="894.6" y2="907" stroke="#06A9EA" stroke-width="1.12" stroke-miterlimit="3.99933"/>
<line x1="916.94" y1="559" x2="916.94" y2="907" stroke="#06A9EA" stroke-width="1.12" stroke-miterlimit="3.99933"/>
<line x1="939.28" y1="559" x2="939.28" y2="907" stroke="#06A9EA" stroke-width="1.12" stroke-miterlimit="3.99933"/>
<line x1="961.62" y1="559" x2="961.62" y2="907" stroke="#06A9EA" stroke-width="1.12" stroke-miterlimit="3.99933"/>
<line x1="983.96" y1="559" x2="983.96" y2="907" stroke="#06A9EA" stroke-width="1.12" stroke-miterlimit="3.99933"/>
<line x1="1006.3" y1="559" x2="1006.3" y2="907" stroke="#06A9EA" stroke-width="1.12" stroke-miterlimit="3.99933"/>
<line x1="1028.64" y1="559" x2="1028.64" y2="907" stroke="#06A9EA" stroke-width="1.12" stroke-miterlimit="3.99933"/>
<line x1="1050.98" y1="559" x2="1050.98" y2="907" stroke="#06A9EA" stroke-width="1.12" stroke-miterlimit="3.99933"/>
<line x1="1073.32" y1="559" x2="1073.32" y2="907" stroke="#06A9EA" stroke-width="1.12" stroke-miterlimit="3.99933"/>
<line x1="1095.66" y1="559" x2="1095.66" y2="907" stroke="#06A9EA" stroke-width="1.12" stroke-miterlimit="3.99933"/>
<line x1="1118" y1="559" x2="1118" y2="907" stroke="#06A9EA" stroke-width="1.12" stroke-miterlimit="3.99933"/>
<line x1="1140.34" y1="559" x2="1140.34" y2="907" stroke="#06A9EA" stroke-width="1.12" stroke-miterlimit="3.99933"/>
<line x1="1162.68" y1="559" x2="1162.68" y2="907" stroke="#06A9EA" stroke-width="1.12" stroke-miterlimit="3.99933"/>
<line x1="1185.02" y1="559" x2="1185.02" y2="907" stroke="#06A9EA" stroke-width="1.12" stroke-miterlimit="3.99933"/>
<line x1="1207.36" y1="559" x2="1207.36" y2="907" stroke="#06A9EA" stroke-width="1.12" stroke-miterlimit="3.99933"/>
<line x1="1229.7" y1="559" x2="1229.7" y2="907" stroke="#06A9EA" stroke-width="1.12" stroke-miterlimit="3.99933"/>
<line x1="1252.04" y1="559" x2="1252.04" y2="907" stroke="#06A9EA" stroke-width="1.12" stroke-miterlimit="3.99933"/>
<line x1="1274.38" y1="559" x2="1274.38" y2="907" stroke="#06A9EA" stroke-width="1.12" stroke-miterlimit="3.99933"/>
<line x1="1296.72" y1="559" x2="1296.72" y2="907" stroke="#06A9EA" stroke-width="1.12" stroke-miterlimit="3.99933"/>
<line x1="1319.06" y1="559" x2="1319.06" y2="907" stroke="#06A9EA" stroke-width="1.12" stroke-miterlimit="3.99933"/>
<line x1="1341.4" y1="559" x2="1341.4" y2="907" stroke="#06A9EA" stroke-width="1.12" stroke-miterlimit="3.99933"/>
<line x1="1363.74" y1="559" x2="1363.74" y2="907" stroke="#06A9EA" stroke-width="1.12" stroke-miterlimit="3.99933"/>
<rect x="762" y="1031" width="618.22" height="346" fill="white"/>
<rect x="762" y="1031" width="618.22" height="346" stroke="#06A9EA" stroke-width="4"/>
<line x1="760" y1="1050.78" x2="1380" y2="1050.78" stroke="#06A9EA" stroke-width="1.12" stroke-miterlimit="3.99933"/>
<line x1="760" y1="1073.12" x2="1380" y2="1073.12" stroke="#06A9EA" stroke-width="1.12" stroke-miterlimit="3.99933"/>
<line x1="760" y1="1095.46" x2="1380" y2="1095.46" stroke="#06A9EA" stroke-width="1.12" stroke-miterlimit="3.99933"/>
<line x1="760" y1="1117.8" x2="1380" y2="1117.8" stroke="#06A9EA" stroke-width="1.12" stroke-miterlimit="3.99933"/>
<line x1="760" y1="1140.14" x2="1380" y2="1140.14" stroke="#06A9EA" stroke-width="1.12" stroke-miterlimit="3.99933"/>
<line x1="760" y1="1162.48" x2="1380" y2="1162.48" stroke="#06A9EA" stroke-width="1.12" stroke-miterlimit="3.99933"/>
<line x1="760" y1="1184.82" x2="1380" y2="1184.82" stroke="#06A9EA" stroke-width="1.12" stroke-miterlimit="3.99933"/>
<line x1="760" y1="1207.16" x2="1380" y2="1207.16" stroke="#06A9EA" stroke-width="1.12" stroke-miterlimit="3.99933"/>
<line x1="760" y1="1229.5" x2="1380" y2="1229.5" stroke="#06A9EA" stroke-width="1.12" stroke-miterlimit="3.99933"/>
<line x1="760" y1="1251.84" x2="1380" y2="1251.84" stroke="#06A9EA" stroke-width="1.12" stroke-miterlimit="3.99933"/>
<line x1="760" y1="1274.18" x2="1380" y2="1274.18" stroke="#06A9EA" stroke-width="1.12" stroke-miterlimit="3.99933"/>
<line x1="760" y1="1296.52" x2="1380" y2="1296.52" stroke="#06A9EA" stroke-width="1.12" stroke-miterlimit="3.99933"/>
<line x1="760" y1="1318.86" x2="1380" y2="1318.86" stroke="#06A9EA" stroke-width="1.12" stroke-miterlimit="3.99933"/>
<line x1="760" y1="1341.2" x2="1380" y2="1341.2" stroke="#06A9EA" stroke-width="1.12" stroke-miterlimit="3.99933"/>
<line x1="760" y1="1363.54" x2="1380" y2="1363.54" stroke="#06A9EA" stroke-width="1.12" stroke-miterlimit="3.99933"/>
<line x1="782.9" y1="1029" x2="782.9" y2="1377" stroke="#06A9EA" stroke-width="1.12" stroke-miterlimit="3.99933"/>
<line x1="805.24" y1="1029" x2="805.24" y2="1377" stroke="#06A9EA" stroke-width="1.12" stroke-miterlimit="3.99933"/>
<line x1="827.58" y1="1029" x2="827.58" y2="1377" stroke="#06A9EA" stroke-width="1.12" stroke-miterlimit="3.99933"/>
<line x1="849.92" y1="1029" x2="849.92" y2="1377" stroke="#06A9EA" stroke-width="1.12" stroke-miterlimit="3.99933"/>
<line x1="872.26" y1="1029" x2="872.26" y2="1377" stroke="#06A9EA" stroke-width="1.12" stroke-miterlimit="3.99933"/>
<line x1="894.6" y1="1029" x2="894.6" y2="1377" stroke="#06A9EA" stroke-width="1.12" stroke-miterlimit="3.99933"/>
<line x1="916.94" y1="1029" x2="916.94" y2="1377" stroke="#06A9EA" stroke-width="1.12" stroke-miterlimit="3.99933"/>
<line x1="939.28" y1="1029" x2="939.28" y2="1377" stroke="#06A9EA" stroke-width="1.12" stroke-miterlimit="3.99933"/>
<line x1="961.62" y1="1029" x2="961.62" y2="1377" stroke="#06A9EA" stroke-width="1.12" stroke-miterlimit="3.99933"/>
<line x1="983.96" y1="1029" x2="983.96" y2="1377" stroke="#06A9EA" stroke-width="1.12" stroke-miterlimit="3.99933"/>
<line x1="1006.3" y1="1029" x2="1006.3" y2="1377" stroke="#06A9EA" stroke-width="1.12" stroke-miterlimit="3.99933"/>
<line x1="1028.64" y1="1029" x2="1028.64" y2="1377" stroke="#06A9EA" stroke-width="1.12" stroke-miterlimit="3.99933"/>
<line x1="1050.98" y1="1029" x2="1050.98" y2="1377" stroke="#06A9EA" stroke-width="1.12" stroke-miterlimit="3.99933"/>
<line x1="1073.32" y1="1029" x2="1073.32" y2="1377" stroke="#06A9EA" stroke-width="1.12" stroke-miterlimit="3.99933"/>
<line x1="1095.66" y1="1029" x2="1095.66" y2="1377" stroke="#06A9EA" stroke-width="1.12" stroke-miterlimit="3.99933"/>
<line x1="1118" y1="1029" x2="1118" y2="1377" stroke="#06A9EA" stroke-width="1.12" stroke-miterlimit="3.99933"/>
<line x1="1140.34" y1="1029" x2="1140.34" y2="1377" stroke="#06A9EA" stroke-width="1.12" stroke-miterlimit="3.99933"/>
<line x1="1162.68" y1="1029" x2="1162.68" y2="1377" stroke="#06A9EA" stroke-width="1.12" stroke-miterlimit="3.99933"/>
<line x1="1185.02" y1="1029" x2="1185.02" y2="1377" stroke="#06A9EA" stroke-width="1.12" stroke-miterlimit="3.99933"/>
<line x1="1207.36" y1="1029" x2="1207.36" y2="1377" stroke="#06A9EA" stroke-width="1.12" stroke-miterlimit="3.99933"/>
<line x1="1229.7" y1="1029" x2="1229.7" y2="1377" stroke="#06A9EA" stroke-width="1.12" stroke-miterlimit="3.99933"/>
<line x1="1252.04" y1="1029" x2="1252.04" y2="1377" stroke="#06A9EA" stroke-width="1.12" stroke-miterlimit="3.99933"/>
<line x1="1274.38" y1="1029" x2="1274.38" y2="1377" stroke="#06A9EA" stroke-width="1.12" stroke-miterlimit="3.99933"/>
<line x1="1296.72" y1="1029" x2="1296.72" y2="1377" stroke="#06A9EA" stroke-width="1.12" stroke-miterlimit="3.99933"/>
<line x1="1319.06" y1="1029" x2="1319.06" y2="1377" stroke="#06A9EA" stroke-width="1.12" stroke-miterlimit="3.99933"/>
<line x1="1341.4" y1="1029" x2="1341.4" y2="1377" stroke="#06A9EA" stroke-width="1.12" stroke-miterlimit="3.99933"/>
<line x1="1363.74" y1="1029" x2="1363.74" y2="1377" stroke="#06A9EA" stroke-width="1.12" stroke-miterlimit="3.99933"/>
<rect x="762" y="1501" width="618.22" height="346" fill="white"/>
<rect x="762" y="1501" width="618.22" height="346" stroke="#06A9EA" stroke-width="4"/>
<line x1="760" y1="1520.78" x2="1380" y2="1520.78" stroke="#06A9EA" stroke-width="1.12" stroke-miterlimit="3.99933"/>
<line x1="760" y1="1543.12" x2="1380" y2="1543.12" stroke="#06A9EA" stroke-width="1.12" stroke-miterlimit="3.99933"/>
<line x1="760" y1="1565.46" x2="1380" y2="1565.46" stroke="#06A9EA" stroke-width="1.12" stroke-miterlimit="3.99933"/>
<line x1="760" y1="1587.8" x2="1380" y2="1587.8" stroke="#06A9EA" stroke-width="1.12" stroke-miterlimit="3.99933"/>
<line x1="760" y1="1610.14" x2="1380" y2="1610.14" stroke="#06A9EA" stroke-width="1.12" stroke-miterlimit="3.99933"/>
<line x1="760" y1="1632.48" x2="1380" y2="1632.48" stroke="#06A9EA" stroke-width="1.12" stroke-miterlimit="3.99933"/>
<line x1="760" y1="1654.82" x2="1380" y2="1654.82" stroke="#06A9EA" stroke-width="1.12" stroke-miterlimit="3.99933"/>
<line x1="760" y1="1677.16" x2="1380" y2="1677.16" stroke="#06A9EA" stroke-width="1.12" stroke-miterlimit="3.99933"/>
<line x1="760" y1="1699.5" x2="1380" y2="1699.5" stroke="#06A9EA" stroke-width="1.12" stroke-miterlimit="3.99933"/>
<line x1="760" y1="1721.84" x2="1380" y2="1721.84" stroke="#06A9EA" stroke-width="1.12" stroke-miterlimit="3.99933"/>
<line x1="760" y1="1744.18" x2="1380" y2="1744.18" stroke="#06A9EA" stroke-width="1.12" stroke-miterlimit="3.99933"/>
<line x1="760" y1="1766.52" x2="1380" y2="1766.52" stroke="#06A9EA" stroke-width="1.12" stroke-miterlimit="3.99933"/>
<line x1="760" y1="1788.86" x2="1380" y2="1788.86" stroke="#06A9EA" stroke-width="1.12" stroke-miterlimit="3.99933"/>
<line x1="760" y1="1811.2" x2="1380" y2="1811.2" stroke="#06A9EA" stroke-width="1.12" stroke-miterlimit="3.99933"/>
<line x1="760" y1="1833.54" x2="1380" y2="1833.54" stroke="#06A9EA" stroke-width="1.12" stroke-miterlimit="3.99933"/>
<line x1="782.9" y1="1499" x2="782.9" y2="1847" stroke="#06A9EA" stroke-width="1.12" stroke-miterlimit="3.99933"/>
<line x1="805.24" y1="1499" x2="805.24" y2="1847" stroke="#06A9EA" stroke-width="1.12" stroke-miterlimit="3.99933"/>
<line x1="827.58" y1="1499" x2="827.58" y2="1847" stroke="#06A9EA" stroke-width="1.12" stroke-miterlimit="3.99933"/>
<line x1="849.92" y1="1499" x2="849.92" y2="1847" stroke="#06A9EA" stroke-width="1.12" stroke-miterlimit="3.99933"/>
<line x1="872.26" y1="1499" x2="872.26" y2="1847" stroke="#06A9EA" stroke-width="1.12" stroke-miterlimit="3.99933"/>
<line x1="894.6" y1="1499" x2="894.6" y2="1847" stroke="#06A9EA" stroke-width="1.12" stroke-miterlimit="3.99933"/>
<line x1="916.94" y1="1499" x2="916.94" y2="1847" stroke="#06A9EA" stroke-width="1.12" stroke-miterlimit="3.99933"/>
<line x1="939.28" y1="1499" x2="939.28" y2="1847" stroke="#06A9EA" stroke-width="1.12" stroke-miterlimit="3.99933"/>
<line x1="961.62" y1="1499" x2="961.62" y2="1847" stroke="#06A9EA" stroke-width="1.12" stroke-miterlimit="3.99933"/>
<line x1="983.96" y1="1499" x2="983.96" y2="1847" stroke="#06A9EA" stroke-width="1.12" stroke-miterlimit="3.99933"/>
<line x1="1006.3" y1="1499" x2="1006.3" y2="1847" stroke="#06A9EA" stroke-width="1.12" stroke-miterlimit="3.99933"/>
<line x1="1028.64" y1="1499" x2="1028.64" y2="1847" stroke="#06A9EA" stroke-width="1.12" stroke-miterlimit="3.99933"/>
<line x1="1050.98" y1="1499" x2="1050.98" y2="1847" stroke="#06A9EA" stroke-width="1.12" stroke-miterlimit="3.99933"/>
<line x1="1073.32" y1="1499" x2="1073.32" y2="1847" stroke="#06A9EA" stroke-width="1.12" stroke-miterlimit="3.99933"/>
<line x1="1095.66" y1="1499" x2="1095.66" y2="1847" stroke="#06A9EA" stroke-width="1.12" stroke-miterlimit="3.99933"/>
<line x1="1118" y1="1499" x2="1118" y2="1847" stroke="#06A9EA" stroke-width="1.12" stroke-miterlimit="3.99933"/>
<line x1="1140.34" y1="1499" x2="1140.34" y2="1847" stroke="#06A9EA" stroke-width="1.12" stroke-miterlimit="3.99933"/>
<line x1="1162.68" y1="1499" x2="1162.68" y2="1847" stroke="#06A9EA" stroke-width="1.12" stroke-miterlimit="3.99933"/>
<line x1="1185.02" y1="1499" x2="1185.02" y2="1847" stroke="#06A9EA" stroke-width="1.12" stroke-miterlimit="3.99933"/>
<line x1="1207.36" y1="1499" x2="1207.36" y2="1847" stroke="#06A9EA" stroke-width="1.12" stroke-miterlimit="3.99933"/>
<line x1="1229.7" y1="1499" x2="1229.7" y2="1847" stroke="#06A9EA" stroke-width="1.12" stroke-miterlimit="3.99933"/>
<line x1="1252.04" y1="1499" x2="1252.04" y2="1847" stroke="#06A9EA" stroke-width="1.12" stroke-miterlimit="3.99933"/>
<line x1="1274.38" y1="1499" x2="1274.38" y2="1847" stroke="#06A9EA" stroke-width="1.12" stroke-miterlimit="3.99933"/>
<line x1="1296.72" y1="1499" x2="1296.72" y2="1847" stroke="#06A9EA" stroke-width="1.12" stroke-miterlimit="3.99933"/>
<line x1="1319.06" y1="1499" x2="1319.06" y2="1847" stroke="#06A9EA" stroke-width="1.12" stroke-miterlimit="3.99933"/>
<line x1="1341.4" y1="1499" x2="1341.4" y2="1847" stroke="#06A9EA" stroke-width="1.12" stroke-miterlimit="3.99933"/>
<line x1="1363.74" y1="1499" x2="1363.74" y2="1847" stroke="#06A9EA" stroke-width="1.12" stroke-miterlimit="3.99933"/>
</svg>
