<svg width="1872" height="1404" viewBox="0 0 1872 1404" fill="none" xmlns="http://www.w3.org/2000/svg">
<g clip-path="url(#clip0_72_123057)">
<rect width="1404" height="1872" transform="matrix(0 1 -1 0 1872 0)" fill="white"/>
<g clip-path="url(#clip1_72_123057)">
<line x1="1786" y1="485.804" x2="86" y2="485.804" stroke="#06A9EA" stroke-width="2.23" stroke-miterlimit="3.99933"/>
<line x1="1786" y1="530.494" x2="86" y2="530.494" stroke="#06A9EA" stroke-width="2.23" stroke-miterlimit="3.99933"/>
<line x1="1786" y1="575.185" x2="86" y2="575.185" stroke="#06A9EA" stroke-width="2.23" stroke-miterlimit="3.99933"/>
<line x1="1786" y1="619.875" x2="86" y2="619.875" stroke="#06A9EA" stroke-width="2.23" stroke-miterlimit="3.99933"/>
<line x1="1786" y1="664.564" x2="86" y2="664.564" stroke="#06A9EA" stroke-width="2.23" stroke-miterlimit="3.99933"/>
<line x1="1786" y1="709.254" x2="86" y2="709.254" stroke="#06A9EA" stroke-width="2.23" stroke-miterlimit="3.99933"/>
<line x1="1786" y1="753.945" x2="86" y2="753.945" stroke="#06A9EA" stroke-width="2.23" stroke-miterlimit="3.99933"/>
<line x1="1786" y1="798.635" x2="86" y2="798.635" stroke="#06A9EA" stroke-width="2.23" stroke-miterlimit="3.99933"/>
<line x1="1786" y1="843.324" x2="86" y2="843.324" stroke="#06A9EA" stroke-width="2.23" stroke-miterlimit="3.99933"/>
<line x1="1786" y1="888.015" x2="86" y2="888.015" stroke="#06A9EA" stroke-width="2.23" stroke-miterlimit="3.99933"/>
<line x1="1786" y1="932.705" x2="86" y2="932.705" stroke="#06A9EA" stroke-width="2.23" stroke-miterlimit="3.99933"/>
<line x1="1786" y1="977.394" x2="86" y2="977.394" stroke="#06A9EA" stroke-width="2.23" stroke-miterlimit="3.99933"/>
<line x1="1786" y1="1022.08" x2="86" y2="1022.08" stroke="#06A9EA" stroke-width="2.23" stroke-miterlimit="3.99933"/>
<line x1="1786" y1="1066.78" x2="86" y2="1066.78" stroke="#06A9EA" stroke-width="2.23" stroke-miterlimit="3.99933"/>
<line x1="1786" y1="1111.46" x2="86" y2="1111.46" stroke="#06A9EA" stroke-width="2.23" stroke-miterlimit="3.99933"/>
<line x1="1786" y1="1156.15" x2="86" y2="1156.15" stroke="#06A9EA" stroke-width="2.23" stroke-miterlimit="3.99933"/>
<line x1="1786" y1="1200.84" x2="86" y2="1200.84" stroke="#06A9EA" stroke-width="2.23" stroke-miterlimit="3.99933"/>
<line x1="1786" y1="1245.53" x2="86" y2="1245.53" stroke="#06A9EA" stroke-width="2.23" stroke-miterlimit="3.99933"/>
<line x1="1786" y1="1290.22" x2="86" y2="1290.22" stroke="#06A9EA" stroke-width="2.23" stroke-miterlimit="3.99933"/>
<line x1="1780.36" y1="440" x2="1780.36" y2="1315" stroke="#06A9EA" stroke-width="2.23" stroke-miterlimit="3.99933"/>
<line x1="1735.67" y1="440" x2="1735.67" y2="1315" stroke="#06A9EA" stroke-width="2.23" stroke-miterlimit="3.99933"/>
<line x1="1690.98" y1="440" x2="1690.98" y2="1315" stroke="#06A9EA" stroke-width="2.23" stroke-miterlimit="3.99933"/>
<line x1="1646.29" y1="440" x2="1646.29" y2="1315" stroke="#06A9EA" stroke-width="2.23" stroke-miterlimit="3.99933"/>
<line x1="1601.6" y1="440" x2="1601.6" y2="1315" stroke="#06A9EA" stroke-width="2.23" stroke-miterlimit="3.99933"/>
<line x1="1556.91" y1="440" x2="1556.91" y2="1315" stroke="#06A9EA" stroke-width="2.23" stroke-miterlimit="3.99933"/>
<line x1="1512.22" y1="440" x2="1512.22" y2="1315" stroke="#06A9EA" stroke-width="2.23" stroke-miterlimit="3.99933"/>
<line x1="1467.53" y1="440" x2="1467.53" y2="1315" stroke="#06A9EA" stroke-width="2.23" stroke-miterlimit="3.99933"/>
<line x1="1422.84" y1="440" x2="1422.84" y2="1315" stroke="#06A9EA" stroke-width="2.23" stroke-miterlimit="3.99933"/>
<line x1="1378.15" y1="440" x2="1378.15" y2="1315" stroke="#06A9EA" stroke-width="2.23" stroke-miterlimit="3.99933"/>
<line x1="1333.46" y1="440" x2="1333.46" y2="1315" stroke="#06A9EA" stroke-width="2.23" stroke-miterlimit="3.99933"/>
<line x1="1288.77" y1="440" x2="1288.77" y2="1315" stroke="#06A9EA" stroke-width="2.23" stroke-miterlimit="3.99933"/>
<line x1="1244.08" y1="440" x2="1244.08" y2="1315" stroke="#06A9EA" stroke-width="2.23" stroke-miterlimit="3.99933"/>
<line x1="1199.39" y1="440" x2="1199.39" y2="1315" stroke="#06A9EA" stroke-width="2.23" stroke-miterlimit="3.99933"/>
<line x1="1154.7" y1="440" x2="1154.7" y2="1315" stroke="#06A9EA" stroke-width="2.23" stroke-miterlimit="3.99933"/>
<line x1="1110.01" y1="440" x2="1110.01" y2="1315" stroke="#06A9EA" stroke-width="2.23" stroke-miterlimit="3.99933"/>
<line x1="1065.32" y1="440" x2="1065.32" y2="1315" stroke="#06A9EA" stroke-width="2.23" stroke-miterlimit="3.99933"/>
<line x1="1020.63" y1="440" x2="1020.63" y2="1315" stroke="#06A9EA" stroke-width="2.23" stroke-miterlimit="3.99933"/>
<line x1="975.935" y1="440" x2="975.935" y2="1315" stroke="#06A9EA" stroke-width="2.23" stroke-miterlimit="3.99933"/>
<line x1="931.245" y1="440" x2="931.245" y2="1315" stroke="#06A9EA" stroke-width="2.23" stroke-miterlimit="3.99933"/>
<line x1="886.555" y1="440" x2="886.555" y2="1315" stroke="#06A9EA" stroke-width="2.23" stroke-miterlimit="3.99933"/>
<line x1="841.865" y1="440" x2="841.865" y2="1315" stroke="#06A9EA" stroke-width="2.23" stroke-miterlimit="3.99933"/>
<line x1="797.176" y1="440" x2="797.176" y2="1315" stroke="#06A9EA" stroke-width="2.23" stroke-miterlimit="3.99933"/>
<line x1="752.485" y1="440" x2="752.485" y2="1315" stroke="#06A9EA" stroke-width="2.23" stroke-miterlimit="3.99933"/>
<line x1="707.795" y1="440" x2="707.795" y2="1315" stroke="#06A9EA" stroke-width="2.23" stroke-miterlimit="3.99933"/>
<line x1="663.105" y1="440" x2="663.105" y2="1315" stroke="#06A9EA" stroke-width="2.23" stroke-miterlimit="3.99933"/>
<line x1="618.415" y1="440" x2="618.415" y2="1315" stroke="#06A9EA" stroke-width="2.23" stroke-miterlimit="3.99933"/>
<line x1="573.725" y1="440" x2="573.725" y2="1315" stroke="#06A9EA" stroke-width="2.23" stroke-miterlimit="3.99933"/>
<line x1="529.035" y1="440" x2="529.035" y2="1315" stroke="#06A9EA" stroke-width="2.23" stroke-miterlimit="3.99933"/>
<line x1="484.345" y1="440" x2="484.345" y2="1315" stroke="#06A9EA" stroke-width="2.23" stroke-miterlimit="3.99933"/>
<line x1="439.655" y1="440" x2="439.655" y2="1315" stroke="#06A9EA" stroke-width="2.23" stroke-miterlimit="3.99933"/>
<line x1="394.965" y1="440" x2="394.965" y2="1315" stroke="#06A9EA" stroke-width="2.23" stroke-miterlimit="3.99933"/>
<line x1="350.275" y1="440" x2="350.275" y2="1315" stroke="#06A9EA" stroke-width="2.23" stroke-miterlimit="3.99933"/>
<line x1="305.585" y1="440" x2="305.585" y2="1315" stroke="#06A9EA" stroke-width="2.23" stroke-miterlimit="3.99933"/>
<line x1="260.895" y1="440" x2="260.895" y2="1315" stroke="#06A9EA" stroke-width="2.23" stroke-miterlimit="3.99933"/>
<line x1="216.205" y1="440" x2="216.205" y2="1315" stroke="#06A9EA" stroke-width="2.23" stroke-miterlimit="3.99933"/>
<line x1="171.515" y1="440" x2="171.515" y2="1315" stroke="#06A9EA" stroke-width="2.23" stroke-miterlimit="3.99933"/>
<line x1="126.825" y1="440" x2="126.825" y2="1315" stroke="#06A9EA" stroke-width="2.23" stroke-miterlimit="3.99933"/>
</g>
<rect x="88" y="442" width="1696" height="871" stroke="#06A9EA" stroke-width="4"/>
<rect x="88" y="356" width="1696" height="86" stroke="#06A9EA" stroke-width="4"/>
<rect x="1472" y="93" width="312" height="263" stroke="#06A9EA" stroke-width="4"/>
<g clip-path="url(#clip2_72_123057)">
<line x1="1471" y1="136.804" x2="86" y2="136.804" stroke="#06A9EA" stroke-width="2.23" stroke-miterlimit="3.99933"/>
<line x1="1471" y1="181.494" x2="86" y2="181.494" stroke="#06A9EA" stroke-width="2.23" stroke-miterlimit="3.99933"/>
<line x1="1471" y1="226.185" x2="86" y2="226.185" stroke="#06A9EA" stroke-width="2.23" stroke-miterlimit="3.99933"/>
<line x1="1471" y1="270.875" x2="86" y2="270.875" stroke="#06A9EA" stroke-width="2.23" stroke-miterlimit="3.99933"/>
<line x1="1471" y1="315.564" x2="86" y2="315.564" stroke="#06A9EA" stroke-width="2.23" stroke-miterlimit="3.99933"/>
<line x1="1467.53" y1="91" x2="1467.53" y2="358" stroke="#06A9EA" stroke-width="2.23" stroke-miterlimit="3.99933"/>
<line x1="1422.84" y1="91" x2="1422.84" y2="358" stroke="#06A9EA" stroke-width="2.23" stroke-miterlimit="3.99933"/>
<line x1="1378.15" y1="91" x2="1378.15" y2="358" stroke="#06A9EA" stroke-width="2.23" stroke-miterlimit="3.99933"/>
<line x1="1333.46" y1="91" x2="1333.46" y2="358" stroke="#06A9EA" stroke-width="2.23" stroke-miterlimit="3.99933"/>
<line x1="1288.77" y1="91" x2="1288.77" y2="358" stroke="#06A9EA" stroke-width="2.23" stroke-miterlimit="3.99933"/>
<line x1="1244.08" y1="91" x2="1244.08" y2="358" stroke="#06A9EA" stroke-width="2.23" stroke-miterlimit="3.99933"/>
<line x1="1199.39" y1="91" x2="1199.39" y2="358" stroke="#06A9EA" stroke-width="2.23" stroke-miterlimit="3.99933"/>
<line x1="1154.7" y1="91" x2="1154.7" y2="358" stroke="#06A9EA" stroke-width="2.23" stroke-miterlimit="3.99933"/>
<line x1="1110.01" y1="91" x2="1110.01" y2="358" stroke="#06A9EA" stroke-width="2.23" stroke-miterlimit="3.99933"/>
<line x1="1065.32" y1="91" x2="1065.32" y2="358" stroke="#06A9EA" stroke-width="2.23" stroke-miterlimit="3.99933"/>
<line x1="1020.63" y1="91" x2="1020.63" y2="358" stroke="#06A9EA" stroke-width="2.23" stroke-miterlimit="3.99933"/>
<line x1="975.935" y1="91" x2="975.935" y2="358" stroke="#06A9EA" stroke-width="2.23" stroke-miterlimit="3.99933"/>
<line x1="931.245" y1="91" x2="931.245" y2="358" stroke="#06A9EA" stroke-width="2.23" stroke-miterlimit="3.99933"/>
<line x1="886.555" y1="91" x2="886.555" y2="358" stroke="#06A9EA" stroke-width="2.23" stroke-miterlimit="3.99933"/>
<line x1="841.865" y1="91" x2="841.865" y2="358" stroke="#06A9EA" stroke-width="2.23" stroke-miterlimit="3.99933"/>
<line x1="797.176" y1="91" x2="797.176" y2="358" stroke="#06A9EA" stroke-width="2.23" stroke-miterlimit="3.99933"/>
<line x1="752.485" y1="91" x2="752.485" y2="358" stroke="#06A9EA" stroke-width="2.23" stroke-miterlimit="3.99933"/>
<line x1="707.795" y1="91" x2="707.795" y2="358" stroke="#06A9EA" stroke-width="2.23" stroke-miterlimit="3.99933"/>
<line x1="663.105" y1="91" x2="663.105" y2="358" stroke="#06A9EA" stroke-width="2.23" stroke-miterlimit="3.99933"/>
<line x1="618.415" y1="91" x2="618.415" y2="358" stroke="#06A9EA" stroke-width="2.23" stroke-miterlimit="3.99933"/>
<line x1="573.725" y1="91" x2="573.725" y2="358" stroke="#06A9EA" stroke-width="2.23" stroke-miterlimit="3.99933"/>
<line x1="529.035" y1="91" x2="529.035" y2="358" stroke="#06A9EA" stroke-width="2.23" stroke-miterlimit="3.99933"/>
<line x1="484.345" y1="91" x2="484.345" y2="358" stroke="#06A9EA" stroke-width="2.23" stroke-miterlimit="3.99933"/>
<line x1="439.655" y1="91" x2="439.655" y2="358" stroke="#06A9EA" stroke-width="2.23" stroke-miterlimit="3.99933"/>
<line x1="394.965" y1="91" x2="394.965" y2="358" stroke="#06A9EA" stroke-width="2.23" stroke-miterlimit="3.99933"/>
<line x1="350.275" y1="91" x2="350.275" y2="358" stroke="#06A9EA" stroke-width="2.23" stroke-miterlimit="3.99933"/>
<line x1="305.585" y1="91" x2="305.585" y2="358" stroke="#06A9EA" stroke-width="2.23" stroke-miterlimit="3.99933"/>
<line x1="260.895" y1="91" x2="260.895" y2="358" stroke="#06A9EA" stroke-width="2.23" stroke-miterlimit="3.99933"/>
<line x1="216.205" y1="91" x2="216.205" y2="358" stroke="#06A9EA" stroke-width="2.23" stroke-miterlimit="3.99933"/>
<line x1="171.515" y1="91" x2="171.515" y2="358" stroke="#06A9EA" stroke-width="2.23" stroke-miterlimit="3.99933"/>
<line x1="126.825" y1="91" x2="126.825" y2="358" stroke="#06A9EA" stroke-width="2.23" stroke-miterlimit="3.99933"/>
</g>
<rect x="88" y="93" width="1384" height="263" stroke="#06A9EA" stroke-width="4"/>
</g>
<defs>
<clipPath id="clip0_72_123057">
<rect width="1404" height="1872" fill="white" transform="matrix(0 1 -1 0 1872 0)"/>
</clipPath>
<clipPath id="clip1_72_123057">
<rect x="86" y="440" width="1700" height="875" fill="white"/>
</clipPath>
<clipPath id="clip2_72_123057">
<rect x="86" y="91" width="1388" height="267" fill="white"/>
</clipPath>
</defs>
</svg>
