<svg width="1404" height="1872" viewBox="0 0 1404 1872" fill="none" xmlns="http://www.w3.org/2000/svg">
<g clip-path="url(#clip0_141_1519)">
<rect width="1404" height="1872" fill="white"/>
<line y1="43.5745" x2="1404" y2="43.5745" stroke="#06A9EA" stroke-width="2.23" stroke-miterlimit="3.99933"/>
<line y1="88.2639" x2="1404" y2="88.2639" stroke="#06A9EA" stroke-width="2.23" stroke-miterlimit="3.99933"/>
<line y1="132.955" x2="1404" y2="132.955" stroke="#06A9EA" stroke-width="2.23" stroke-miterlimit="3.99933"/>
<line y1="177.645" x2="1404" y2="177.645" stroke="#06A9EA" stroke-width="2.23" stroke-miterlimit="3.99933"/>
<line y1="222.334" x2="1404" y2="222.334" stroke="#06A9EA" stroke-width="2.23" stroke-miterlimit="3.99933"/>
<line y1="267.024" x2="1404" y2="267.024" stroke="#06A9EA" stroke-width="2.23" stroke-miterlimit="3.99933"/>
<line y1="311.715" x2="1404" y2="311.715" stroke="#06A9EA" stroke-width="2.23" stroke-miterlimit="3.99933"/>
<line y1="356.405" x2="1404" y2="356.405" stroke="#06A9EA" stroke-width="2.23" stroke-miterlimit="3.99933"/>
<line y1="401.094" x2="1404" y2="401.094" stroke="#06A9EA" stroke-width="2.23" stroke-miterlimit="3.99933"/>
<line y1="445.785" x2="1404" y2="445.785" stroke="#06A9EA" stroke-width="2.23" stroke-miterlimit="3.99933"/>
<line y1="490.475" x2="1404" y2="490.475" stroke="#06A9EA" stroke-width="2.23" stroke-miterlimit="3.99933"/>
<line y1="535.164" x2="1404" y2="535.164" stroke="#06A9EA" stroke-width="2.23" stroke-miterlimit="3.99933"/>
<line y1="579.854" x2="1404" y2="579.854" stroke="#06A9EA" stroke-width="2.23" stroke-miterlimit="3.99933"/>
<line y1="624.545" x2="1404" y2="624.545" stroke="#06A9EA" stroke-width="2.23" stroke-miterlimit="3.99933"/>
<line y1="669.235" x2="1404" y2="669.235" stroke="#06A9EA" stroke-width="2.23" stroke-miterlimit="3.99933"/>
<line y1="713.924" x2="1404" y2="713.924" stroke="#06A9EA" stroke-width="2.23" stroke-miterlimit="3.99933"/>
<line y1="758.614" x2="1404" y2="758.614" stroke="#06A9EA" stroke-width="2.23" stroke-miterlimit="3.99933"/>
<line y1="803.305" x2="1404" y2="803.305" stroke="#06A9EA" stroke-width="2.23" stroke-miterlimit="3.99933"/>
<line y1="847.994" x2="1404" y2="847.994" stroke="#06A9EA" stroke-width="2.23" stroke-miterlimit="3.99933"/>
<line y1="892.684" x2="1404" y2="892.684" stroke="#06A9EA" stroke-width="2.23" stroke-miterlimit="3.99933"/>
<line y1="937.375" x2="1404" y2="937.375" stroke="#06A9EA" stroke-width="2.23" stroke-miterlimit="3.99933"/>
<line y1="982.065" x2="1404" y2="982.065" stroke="#06A9EA" stroke-width="2.23" stroke-miterlimit="3.99933"/>
<line y1="1026.75" x2="1404" y2="1026.75" stroke="#06A9EA" stroke-width="2.23" stroke-miterlimit="3.99933"/>
<line y1="1071.44" x2="1404" y2="1071.44" stroke="#06A9EA" stroke-width="2.23" stroke-miterlimit="3.99933"/>
<line y1="1116.13" x2="1404" y2="1116.14" stroke="#06A9EA" stroke-width="2.23" stroke-miterlimit="3.99933"/>
<line y1="1160.82" x2="1404" y2="1160.82" stroke="#06A9EA" stroke-width="2.23" stroke-miterlimit="3.99933"/>
<line y1="1205.51" x2="1404" y2="1205.51" stroke="#06A9EA" stroke-width="2.23" stroke-miterlimit="3.99933"/>
<line y1="1250.21" x2="1404" y2="1250.21" stroke="#06A9EA" stroke-width="2.23" stroke-miterlimit="3.99933"/>
<line y1="1294.89" x2="1404" y2="1294.89" stroke="#06A9EA" stroke-width="2.23" stroke-miterlimit="3.99933"/>
<line y1="1339.58" x2="1404" y2="1339.58" stroke="#06A9EA" stroke-width="2.23" stroke-miterlimit="3.99933"/>
<line y1="1384.27" x2="1404" y2="1384.27" stroke="#06A9EA" stroke-width="2.23" stroke-miterlimit="3.99933"/>
<line y1="1428.97" x2="1404" y2="1428.97" stroke="#06A9EA" stroke-width="2.23" stroke-miterlimit="3.99933"/>
<line y1="1473.65" x2="1404" y2="1473.65" stroke="#06A9EA" stroke-width="2.23" stroke-miterlimit="3.99933"/>
<line y1="1518.34" x2="1404" y2="1518.34" stroke="#06A9EA" stroke-width="2.23" stroke-miterlimit="3.99933"/>
<line y1="1563.04" x2="1404" y2="1563.04" stroke="#06A9EA" stroke-width="2.23" stroke-miterlimit="3.99933"/>
<line y1="1607.72" x2="1404" y2="1607.72" stroke="#06A9EA" stroke-width="2.23" stroke-miterlimit="3.99933"/>
<line y1="1652.41" x2="1404" y2="1652.41" stroke="#06A9EA" stroke-width="2.23" stroke-miterlimit="3.99933"/>
<line y1="1697.1" x2="1404" y2="1697.1" stroke="#06A9EA" stroke-width="2.23" stroke-miterlimit="3.99933"/>
<line y1="1741.8" x2="1404" y2="1741.8" stroke="#06A9EA" stroke-width="2.23" stroke-miterlimit="3.99933"/>
<line y1="1786.48" x2="1404" y2="1786.48" stroke="#06A9EA" stroke-width="2.23" stroke-miterlimit="3.99933"/>
<line y1="1831.17" x2="1404" y2="1831.17" stroke="#06A9EA" stroke-width="2.23" stroke-miterlimit="3.99933"/>
<line x1="89.38" y1="534.279" x2="1404" y2="534.279" stroke="#06A9EA" stroke-width="4" stroke-miterlimit="3.99933"/>
<line x1="89.38" y1="1070.56" x2="1404" y2="1070.56" stroke="#06A9EA" stroke-width="4" stroke-miterlimit="3.99933"/>
<line x1="89.38" y1="1606.84" x2="1404" y2="1606.84" stroke="#06A9EA" stroke-width="4" stroke-miterlimit="3.99933"/>
<line x1="45.805" y1="-1.115e-07" x2="45.805" y2="1872" stroke="#06A9EA" stroke-width="2.23" stroke-miterlimit="3.99933"/>
<line x1="90.495" y1="-1.115e-07" x2="90.495" y2="1872" stroke="#06A9EA" stroke-width="2.23" stroke-miterlimit="3.99933"/>
<line x1="135.185" y1="-1.115e-07" x2="135.185" y2="1872" stroke="#06A9EA" stroke-width="2.23" stroke-miterlimit="3.99933"/>
<line x1="179.875" y1="-1.115e-07" x2="179.875" y2="1872" stroke="#06A9EA" stroke-width="2.23" stroke-miterlimit="3.99933"/>
<line x1="224.565" y1="-1.115e-07" x2="224.565" y2="1872" stroke="#06A9EA" stroke-width="2.23" stroke-miterlimit="3.99933"/>
<line x1="269.255" y1="-1.115e-07" x2="269.255" y2="1872" stroke="#06A9EA" stroke-width="2.23" stroke-miterlimit="3.99933"/>
<line x1="313.945" y1="-1.115e-07" x2="313.945" y2="1872" stroke="#06A9EA" stroke-width="2.23" stroke-miterlimit="3.99933"/>
<line x1="358.635" y1="-1.115e-07" x2="358.635" y2="1872" stroke="#06A9EA" stroke-width="2.23" stroke-miterlimit="3.99933"/>
<line x1="403.325" y1="-1.115e-07" x2="403.325" y2="1872" stroke="#06A9EA" stroke-width="2.23" stroke-miterlimit="3.99933"/>
<line x1="448.015" y1="-1.115e-07" x2="448.015" y2="1872" stroke="#06A9EA" stroke-width="2.23" stroke-miterlimit="3.99933"/>
<line x1="492.705" y1="-1.115e-07" x2="492.705" y2="1872" stroke="#06A9EA" stroke-width="2.23" stroke-miterlimit="3.99933"/>
<line x1="537.395" y1="-1.115e-07" x2="537.395" y2="1872" stroke="#06A9EA" stroke-width="2.23" stroke-miterlimit="3.99933"/>
<line x1="582.085" y1="-1.115e-07" x2="582.085" y2="1872" stroke="#06A9EA" stroke-width="2.23" stroke-miterlimit="3.99933"/>
<line x1="626.775" y1="-1.115e-07" x2="626.775" y2="1872" stroke="#06A9EA" stroke-width="2.23" stroke-miterlimit="3.99933"/>
<line x1="671.465" y1="-1.115e-07" x2="671.465" y2="1872" stroke="#06A9EA" stroke-width="2.23" stroke-miterlimit="3.99933"/>
<line x1="716.155" y1="-1.115e-07" x2="716.155" y2="1872" stroke="#06A9EA" stroke-width="2.23" stroke-miterlimit="3.99933"/>
<line x1="760.845" y1="-1.115e-07" x2="760.845" y2="1872" stroke="#06A9EA" stroke-width="2.23" stroke-miterlimit="3.99933"/>
<line x1="805.535" y1="-1.115e-07" x2="805.535" y2="1872" stroke="#06A9EA" stroke-width="2.23" stroke-miterlimit="3.99933"/>
<line x1="850.225" y1="-1.115e-07" x2="850.225" y2="1872" stroke="#06A9EA" stroke-width="2.23" stroke-miterlimit="3.99933"/>
<line x1="894.915" y1="-1.115e-07" x2="894.915" y2="1872" stroke="#06A9EA" stroke-width="2.23" stroke-miterlimit="3.99933"/>
<line x1="939.605" y1="-1.115e-07" x2="939.605" y2="1872" stroke="#06A9EA" stroke-width="2.23" stroke-miterlimit="3.99933"/>
<line x1="984.295" y1="-1.115e-07" x2="984.295" y2="1872" stroke="#06A9EA" stroke-width="2.23" stroke-miterlimit="3.99933"/>
<line x1="1028.98" y1="-1.115e-07" x2="1028.98" y2="1872" stroke="#06A9EA" stroke-width="2.23" stroke-miterlimit="3.99933"/>
<line x1="1073.68" y1="-1.115e-07" x2="1073.68" y2="1872" stroke="#06A9EA" stroke-width="2.23" stroke-miterlimit="3.99933"/>
<line x1="1118.37" y1="-1.115e-07" x2="1118.36" y2="1872" stroke="#06A9EA" stroke-width="2.23" stroke-miterlimit="3.99933"/>
<line x1="1163.05" y1="-1.115e-07" x2="1163.05" y2="1872" stroke="#06A9EA" stroke-width="2.23" stroke-miterlimit="3.99933"/>
<line x1="1207.75" y1="-1.115e-07" x2="1207.75" y2="1872" stroke="#06A9EA" stroke-width="2.23" stroke-miterlimit="3.99933"/>
<line x1="1252.44" y1="-1.115e-07" x2="1252.44" y2="1872" stroke="#06A9EA" stroke-width="2.23" stroke-miterlimit="3.99933"/>
<line x1="1297.13" y1="-1.115e-07" x2="1297.12" y2="1872" stroke="#06A9EA" stroke-width="2.23" stroke-miterlimit="3.99933"/>
<line x1="1341.81" y1="-1.115e-07" x2="1341.81" y2="1872" stroke="#06A9EA" stroke-width="2.23" stroke-miterlimit="3.99933"/>
<line x1="1386.51" y1="-1.115e-07" x2="1386.51" y2="1872" stroke="#06A9EA" stroke-width="2.23" stroke-miterlimit="3.99933"/>
<line x1="91.38" y1="-2e-07" x2="91.38" y2="1872" stroke="#06A9EA" stroke-width="4" stroke-miterlimit="3.99933"/>
<line x1="627.66" y1="1608.84" x2="627.66" y2="1872" stroke="#06A9EA" stroke-width="4" stroke-miterlimit="3.99933"/>
<line x1="940.49" y1="536.279" x2="940.49" y2="1608.84" stroke="#06A9EA" stroke-width="4" stroke-miterlimit="3.99933"/>
<rect width="89.38" height="87.15" transform="translate(0 89.3809)" fill="white"/>
<path d="M39.0527 147.339C39.0527 144.981 39.104 142.981 39.2065 141.341C39.3433 139.7 39.6338 138.213 40.0781 136.88C40.5225 135.582 41.189 134.385 42.0776 133.292C42.9663 132.164 44.2139 130.967 45.8203 129.703C46.9824 128.643 48.1445 127.532 49.3066 126.37C50.4688 125.174 51.5283 123.943 52.4854 122.679C53.4082 121.448 54.1602 120.184 54.7412 118.885C55.3223 117.586 55.6128 116.287 55.6128 114.988C55.6128 113.416 55.3906 112.066 54.9463 110.938C54.502 109.776 53.8696 108.819 53.0493 108.067C52.1948 107.383 51.1523 106.871 49.9219 106.529C48.7256 106.187 47.3413 106.016 45.769 106.016C44.5386 106.016 43.3423 106.187 42.1802 106.529C41.0181 106.836 39.9927 107.349 39.104 108.067C38.1812 108.785 37.4292 109.708 36.8481 110.835C36.3013 111.963 36.0107 113.313 35.9766 114.886H21.6724C21.7065 111.399 22.356 108.375 23.6206 105.811C24.8853 103.213 26.5942 101.06 28.7476 99.3511C30.9009 97.6421 33.4302 96.3774 36.3354 95.5571C39.2407 94.7026 42.3853 94.2754 45.769 94.2754C49.563 94.2754 52.9639 94.7026 55.9717 95.5571C58.9795 96.4116 61.5259 97.6763 63.6108 99.3511C65.6616 101.06 67.2339 103.162 68.3276 105.657C69.4214 108.152 69.9683 111.041 69.9683 114.322C69.9683 116.749 69.5581 118.97 68.7378 120.987C67.9175 122.969 66.8579 124.815 65.5591 126.524C64.2603 128.267 62.7734 129.925 61.0986 131.497C59.458 133.035 57.8003 134.539 56.1255 136.009C55.1001 137.034 54.2969 137.94 53.7158 138.726C53.1348 139.512 52.7246 140.315 52.4854 141.136C52.2119 141.956 52.041 142.862 51.9727 143.853C51.9043 144.81 51.8701 145.972 51.8701 147.339H39.0527ZM36.9507 162.874C36.9507 160.618 37.6855 158.738 39.1553 157.234C40.625 155.696 42.6587 154.927 45.2563 154.927C47.7856 154.927 49.8022 155.696 51.3062 157.234C52.8442 158.738 53.6133 160.618 53.6133 162.874C53.6133 165.062 52.8442 166.907 51.3062 168.411C49.8022 169.881 47.7856 170.616 45.2563 170.616C42.6587 170.616 40.625 169.881 39.1553 168.411C37.6855 166.907 36.9507 165.062 36.9507 162.874Z" fill="#0A3445"/>
<rect width="89.38" height="87.15" transform="translate(0 536.279)" fill="white"/>
<line x1="9.5" y1="569" x2="9.5" y2="621" stroke="#0A3445" stroke-width="5"/>
<line x1="7" y1="571" x2="20" y2="571" stroke="#0A3445" stroke-width="4"/>
<line x1="7" y1="619" x2="20" y2="619" stroke="#0A3445" stroke-width="4"/>
<line x1="80.5" y1="621" x2="80.5" y2="569" stroke="#0A3445" stroke-width="5"/>
<line x1="83" y1="619" x2="70" y2="619" stroke="#0A3445" stroke-width="4"/>
<line x1="83" y1="571" x2="70" y2="571" stroke="#0A3445" stroke-width="4"/>
<circle cx="45" cy="554" r="14" stroke="#0A3445" stroke-width="2"/>
<line x1="45" y1="550" x2="45" y2="562" stroke="#0A3445" stroke-width="2"/>
<circle cx="45" cy="546.5" r="1.5" fill="#0A3445"/>
<line x1="22" y1="578.998" x2="68" y2="578.998" stroke="#0A3445" stroke-width="2"/>
<line x1="22" y1="583.998" x2="64" y2="583.998" stroke="#0A3445" stroke-width="2"/>
<line x1="22" y1="588.998" x2="51" y2="588.998" stroke="#0A3445" stroke-width="2"/>
<line x1="22" y1="593.998" x2="48" y2="593.998" stroke="#0A3445" stroke-width="2"/>
<line x1="22" y1="598.998" x2="58" y2="598.998" stroke="#0A3445" stroke-width="2"/>
<line x1="22" y1="603.998" x2="63" y2="603.998" stroke="#0A3445" stroke-width="2"/>
<line x1="22" y1="608.998" x2="68" y2="608.998" stroke="#0A3445" stroke-width="2"/>
<rect width="89.38" height="87.15" transform="translate(0 1072.56)" fill="white"/>
<path d="M24.9779 1144.35L23.7213 1143.47C16.4121 1138.13 11.5547 1128.93 11.0225 1119.92L11.0001 1118.13C10.9871 1111.38 13.0612 1104.75 17.0906 1099.29C26.8228 1086.12 45.1716 1082.35 59.3591 1090.39C61.0314 1091.33 62.5516 1092.45 64.096 1093.59L64.456 1093C65.1499 1091.99 66.0078 1091.08 66.8689 1090.21L73.3514 1084.18C73.8557 1083.69 74.2422 1083.13 74.9675 1083C76.2337 1083.01 75.9093 1084.15 75.9054 1085L75.9026 1088.09C75.9023 1088.77 75.8662 1089.47 75.9484 1090.14C76.4417 1089.95 77.1776 1089.61 77.636 1090.05C78.5702 1090.93 77.655 1091.54 77.0704 1092.08L74.5548 1094.28L81.3413 1094.88C82.265 1094.99 83.4267 1095.15 82.8424 1096.47C82.5762 1097.08 81.1814 1097.71 80.6341 1098.03L73.8455 1101.77C73.0968 1102.17 72.3562 1102.56 71.568 1102.87C71.9195 1103.34 72.1583 1103.93 72.407 1104.45C74.1679 1108.16 75.1963 1112.09 75.4264 1116.2L75.4455 1117.86C75.4546 1125.35 72.7582 1132.76 67.9554 1138.51C57.2729 1151.3 38.7595 1153.65 24.9779 1144.35ZM73.5987 1087.13C71.952 1088.48 72.1209 1088.97 71.7822 1090.88C71.6321 1091.72 71.6906 1092.65 71.7015 1093.51L71.8971 1093.44L73.921 1091.61C73.4808 1090.2 73.6024 1088.6 73.5987 1087.13ZM41.977 1088.51C30.3119 1089.09 19.6673 1096.24 15.3404 1107.21C10.8538 1118.59 14.0712 1131.87 23.209 1140.06C29.0393 1145.29 37.0996 1148.09 44.9252 1147.68C62.2117 1146.77 75.0123 1131.14 72.8852 1114.25C72.4879 1111.09 71.5969 1107.88 70.1336 1105.05C69.6701 1104.15 69.6 1103.62 68.5895 1103.35C67.426 1103.03 66.3004 1102.57 65.3389 1101.82L62.8209 1103.74L64.109 1105.69C65.1827 1107.47 66.0274 1109.43 66.6146 1111.42C70.7279 1126.2 60.0387 1141.39 44.7651 1142.22L43.0044 1142.24C30.5532 1142.19 19.7334 1132.09 18.899 1119.65L18.8674 1117.93C18.8606 1110.21 22.8198 1102.88 29.1142 1098.44C38.2395 1092.01 50.7222 1092.64 59.1843 1099.97C59.925 1100.61 60.654 1101.28 61.302 1102.02L63.8383 1100.04C63.4481 1098.85 63.4109 1097.74 63.4828 1096.52C63.5154 1095.96 63.4272 1096.06 63.003 1095.69C58.2772 1091.59 51.4651 1088.93 45.2684 1088.53C44.1816 1088.46 43.0662 1088.5 41.977 1088.51ZM69.5307 1090.79C68.7023 1091.58 67.9209 1092.43 67.1646 1093.3C66.0719 1094.56 65.8134 1095.46 65.752 1097.09L65.8181 1098.39L65.9186 1098.32L68.6896 1096.02C69.004 1095.75 69.3913 1095.46 69.6343 1095.13C69.4118 1093.69 69.5563 1092.23 69.5307 1090.79ZM42.3036 1096.32C37.3219 1096.64 32.4528 1098.44 28.6683 1101.72C23.6639 1106.07 20.7652 1112.59 21.1768 1119.23C21.845 1130.02 30.7395 1139.03 41.5531 1139.86C48.5097 1140.39 55.2792 1137.61 59.8358 1132.3C66.5177 1124.51 66.9711 1113.67 61.0752 1105.37L56.865 1108.63L55.9396 1109.39C56.374 1110.15 56.8459 1110.87 57.2178 1111.67C60.5249 1118.74 57.7524 1127.49 50.9224 1131.34C43.4737 1135.54 33.9259 1132.93 29.7091 1125.5C28.6995 1123.73 27.9212 1121.63 27.7059 1119.59C26.6719 1109.8 35.427 1101.79 45.0212 1102.95C48.5456 1103.38 52.0444 1105.03 54.452 1107.64L59.5179 1103.47C55.6453 1099.46 50.0561 1096.44 44.3708 1096.32L42.3036 1096.32ZM72.2283 1096.31L67.0771 1100.29C67.6574 1100.56 69.5216 1101.2 70.1568 1100.97L72.0384 1100.09L78.1718 1096.86L72.2283 1096.31ZM42.4127 1105.18C34.0828 1105.81 28.1898 1113.36 30.4788 1121.4C31.1827 1123.87 32.5944 1126.18 34.5645 1127.85C43.6623 1135.55 57.4274 1128.33 56.2684 1116.73C56.1463 1115.51 55.7783 1114.25 55.3195 1113.11C55.0959 1112.61 54.5523 1111.3 54.1001 1110.97L50.3603 1113.99C49.811 1114.42 49.2029 1114.99 48.5683 1115.28C49.287 1116.75 49.5637 1118.49 49.0225 1120.06C47.1892 1125.4 39.808 1125.66 37.4313 1120.71C36.7495 1119.29 36.7281 1117.47 37.2602 1116C38.7484 1111.89 43.8327 1110.87 47.1579 1113.55L52.6921 1109.16C49.5277 1106.16 46.6408 1105.14 42.4127 1105.18ZM42.7592 1114.42C39.1995 1114.8 37.9331 1119.04 40.726 1121.17C42.8434 1122.79 45.8731 1121.71 46.7836 1119.28C47.0572 1118.44 46.9945 1117.77 46.708 1116.93L45.1521 1118.18C44.7037 1118.55 44.2562 1119.02 43.7344 1119.28C42.9651 1119.67 41.8039 1119.33 41.9336 1118.29C42.0355 1117.47 43.0617 1116.83 43.6644 1116.36L45.3804 1115.07C44.456 1114.64 43.7909 1114.36 42.7592 1114.42Z" fill="#0A3445"/>
<path d="M39.7538 1120.69L43.7114 1114.64L46.7491 1118.86L39.7538 1120.69Z" fill="#0A3445"/>
<rect width="89.38" height="87.15" transform="translate(0 1608.84)" fill="white"/>
<path d="M45.0335 1651.51C40.2653 1651.53 37.1744 1647.91 35.0689 1643.99C34.7935 1643.48 34.5964 1642.92 34.3082 1642.42C34.0339 1641.94 33.6539 1641.53 33.3496 1641.07C32.1298 1639.23 31.03 1636.35 31.8661 1634.14C31.9752 1633.85 31.8386 1633.86 31.6901 1633.6C31.0425 1632.45 30.9055 1630.91 30.8479 1629.63C30.5777 1623.62 32.147 1619.12 37.7867 1616.02C39.9536 1614.83 42.0998 1614.1 44.5851 1614.01C47.0234 1613.92 49.445 1614.64 51.1466 1616.46C51.9953 1617.37 52.011 1617.89 53.3325 1618.3C56.6285 1619.33 57.6583 1621.56 58.2179 1624.69C58.7006 1627.38 59.1305 1631.43 57.7867 1633.98C57.5886 1634.35 57.8425 1634.44 57.9926 1634.82C58.5516 1636.22 57.0603 1639.84 56.3562 1640.97C55.9821 1641.58 55.4699 1642.1 55.1292 1642.72C54.8227 1643.28 54.6089 1643.89 54.3221 1644.46C52.4947 1648.08 49.2364 1651.24 45.0335 1651.51ZM44.2226 1616.48C42.1717 1616.67 40.3239 1617.37 38.5547 1618.41C34.5672 1620.77 33.2722 1623.99 33.2716 1628.61C33.2714 1629.82 33.3343 1632.14 34.1858 1633.12C34.3233 1632.12 34.1981 1631.07 34.2546 1630.07C34.3746 1627.92 35.1403 1623.98 36.8972 1622.63C38.5547 1621.36 39.1773 1621.67 40.8333 1622.1C42.0367 1622.4 43.7887 1622.67 45.0355 1622.38C47.579 1621.86 50.0857 1620.69 52.5682 1622.33C56.3778 1624.83 54.7437 1631.67 55.614 1632.73L55.7469 1632.78C56.2566 1632.48 56.2691 1627.26 56.04 1626.17L55.8725 1625.14C55.6026 1623.77 55.1178 1622.08 53.8921 1621.27C52.1641 1620.13 51.619 1621.12 49.9063 1618.82C48.5667 1617.01 46.4055 1616.28 44.2226 1616.48ZM49.4263 1623.98C46.6166 1624.25 45.1925 1625.34 41.9669 1624.86L39.4924 1624.43C38.9974 1624.36 38.8252 1624.32 38.4577 1624.7L38.3111 1624.86C37.3885 1625.97 36.9549 1628.23 36.8149 1629.63C36.6032 1631.75 37.0878 1635.91 34.0086 1635.7C34.1611 1636.77 34.6172 1638.81 35.3661 1639.59C36.0989 1640.36 36.2641 1640.15 36.6636 1641.21L37.0997 1642.27C38.0319 1644.28 39.3143 1646.24 41.0903 1647.59C46.4423 1651.43 50.9711 1646.4 52.9105 1641.66C53.0781 1641.25 53.1798 1640.79 53.3742 1640.39C53.5529 1640.03 54.0127 1639.8 54.29 1639.52C55.0259 1638.77 55.4814 1636.77 55.6184 1635.71C53.4008 1635.69 53.1638 1633.31 52.9532 1631.58L52.6989 1628.78C52.5723 1626.82 52.3994 1624.03 49.7165 1623.96L49.4263 1623.98Z" fill="#0A3445"/>
<path d="M22.2194 1669.82C22.0257 1669.29 22.0786 1668.74 22.1185 1668.18C22.3756 1664.62 23.722 1662.5 26.4264 1660.36C27.2141 1659.74 28.0418 1659.13 28.963 1658.72C27.5557 1657.96 25.8016 1656.79 25.0682 1655.37C24.1915 1653.66 25.2405 1652.83 26.2983 1651.61C27.9183 1649.74 29.8575 1647.65 30.6146 1645.24C28.8003 1645.08 28.7194 1644.75 28.7817 1643.13C28.8321 1641.82 28.9354 1640.43 28.4807 1639.18C27.0946 1635.36 21.4475 1634.66 18.7276 1637.43C17.4065 1638.77 17.2119 1640.8 17.3831 1642.58C17.554 1644.37 17.7841 1644.63 15.7101 1645.3C15.8991 1646.91 18.1326 1649.51 19.2034 1650.69L20.5401 1652.15C20.8742 1652.54 21.2318 1652.98 21.3719 1653.49L21.4364 1653.74C22.1501 1657.64 13.2476 1659.9 11.0462 1662.22C9.07561 1664.3 9.89569 1666.67 9.34235 1667.41C8.65813 1668.33 7.13461 1668.02 7.02175 1666.81C6.92029 1665.73 7.18744 1664.43 7.54036 1663.41C9.00028 1659.18 12.8152 1658.18 16.3429 1656.16C17.2651 1655.64 18.1935 1655.05 18.8733 1654.22C18.8074 1653.9 17.8009 1652.9 17.5599 1652.63C16.4469 1651.37 15.2954 1650.03 14.3932 1648.61C13.3237 1646.92 12.3075 1644.01 14.6865 1642.9C15.1555 1642.69 14.913 1642.09 14.9119 1641.43C14.9093 1639.84 15.0939 1638.48 15.8909 1637.07C19.0342 1631.53 28.3951 1632.08 30.7705 1638.17C31.3509 1639.65 31.2369 1641.25 31.2339 1642.81C32.0613 1643.33 32.7535 1643.28 32.9673 1644.47C33.4456 1647.13 30.5522 1650.53 28.9272 1652.39C28.3751 1653.02 27.7381 1653.63 27.2541 1654.31C27.6957 1654.89 30.7596 1657.13 31.4418 1657.18C31.9205 1657.22 36.0475 1653.47 37.1835 1652.74C39.3387 1651.36 39.0423 1654.3 39.1264 1655.33C39.263 1657 39.9019 1658.99 41.2016 1660.1L40.9903 1656.76C40.9828 1656.41 40.9541 1656.05 40.9944 1655.7L41.0034 1655.63C41.2163 1653.84 42.647 1654.5 43.7979 1654.63C44.4139 1654.7 45.1634 1654.72 45.7789 1654.65C46.3734 1654.58 46.9906 1654.36 47.5855 1654.38C49.5064 1654.46 48.9689 1657.06 48.894 1658.31L48.8209 1660.04C49.8075 1658.72 50.4862 1657.16 50.6013 1655.5C50.6371 1654.98 50.4881 1653.61 50.6863 1653.2C51.543 1651.43 53.2316 1653.27 54.0202 1653.93C55.4027 1655.08 56.7953 1656.35 58.3454 1657.27C59.324 1656.72 61.5522 1655.14 62.2544 1654.39C62.1038 1653.98 61.6075 1653.5 61.319 1653.16L59.6251 1651.16C58.3315 1649.57 55.9102 1646.54 56.7217 1644.32C57.0102 1643.53 57.8283 1643.07 58.545 1642.73C58.4064 1642.1 58.4468 1641.36 58.4537 1640.73C58.4991 1636.54 62.1284 1633.18 66.2612 1633.25C66.8066 1633.24 67.4068 1633.21 67.9456 1633.29C71.6753 1633.8 74.3711 1636.46 74.7407 1640.21C74.8245 1641.07 74.7958 1641.93 74.7957 1642.79C75.2694 1643.35 76.2198 1643.32 76.4281 1644.78C76.7401 1646.98 74.7709 1649.27 73.5068 1650.83L72.0863 1652.58C71.7212 1653 71.2684 1653.41 70.9518 1653.87C70.1528 1655.03 77.2215 1658.12 78.4708 1658.89C80.4545 1660.11 81.8285 1661.93 82.3628 1664.21C82.5373 1664.95 82.9153 1666.74 82.475 1667.38C81.7334 1668.47 80.1871 1667.7 80.1182 1666.96L80.1149 1666.91C80.0778 1666.38 80.1127 1665.84 80.058 1665.32C79.7048 1661.91 76.3002 1660.6 73.6391 1659.25C72.5899 1658.72 71.5624 1658.13 70.6025 1657.45C68.3366 1655.84 67.3024 1654.4 69.1646 1652.14L70.4681 1650.64C71.6725 1649.28 73.5566 1647.12 74.003 1645.31C73.6825 1645.1 73.2193 1645.08 72.8724 1644.88C71.9681 1644.37 72.2629 1643.34 72.3247 1642.49C72.3999 1641.46 72.378 1640.4 72.0948 1639.4C70.6039 1634.15 61.5868 1634.68 60.9742 1640.19C60.8613 1641.21 61.1694 1643.97 60.779 1644.64C60.4932 1645.13 59.6631 1645.15 59.1569 1645.28C59.3155 1647.15 61.6477 1649.73 62.8678 1651.09C63.8207 1652.15 65.0693 1653.1 64.7507 1654.69C64.4726 1656.08 63.3737 1656.92 62.2665 1657.67L60.6822 1658.73C64.457 1660.74 67.1969 1663.43 67.4815 1667.85L67.5072 1668.81C67.514 1669.32 67.543 1669.81 67.1671 1670.22C66.7118 1670.72 66.0042 1670.75 65.5163 1670.29C64.9166 1669.72 65.0685 1669.01 65.048 1668.26C64.944 1664.44 62.2514 1662.53 59.2609 1660.76L57.3301 1659.64C55.8264 1658.7 54.2922 1657.52 52.9969 1656.31C52.9389 1658.41 51.2258 1661.38 49.4572 1662.48C49.0908 1662.71 48.7241 1662.87 48.3421 1663.06C48.4628 1665.21 48.8202 1667.36 49.0983 1669.5L50.5573 1680.97C50.665 1681.79 50.9026 1682.77 50.7958 1683.59L50.7862 1683.65C50.6095 1684.91 49.3753 1685.96 48.5719 1686.85C47.4696 1688.06 46.4959 1689.55 44.6742 1689.51C43.2161 1689.48 42.5866 1688.45 41.6976 1687.47L40.2374 1685.95C38.6502 1684.27 38.7283 1683.62 38.9685 1681.49L40.9899 1665.8C41.1084 1664.88 41.2345 1663.97 41.2629 1663.04L40.2177 1662.46C38.0915 1661.05 37.1531 1658.64 36.656 1656.23C35.6806 1657.28 33.7728 1658.82 32.5889 1659.52L30.9266 1660.42C28.9592 1661.51 26.1272 1663.39 25.2205 1665.46C24.7248 1666.59 24.6208 1667.77 24.6003 1668.99C24.5968 1669.19 24.6118 1669.42 24.5703 1669.61C24.2854 1670.95 22.8017 1670.86 22.2194 1669.82ZM43.4596 1657.12L43.6268 1658.75C43.6618 1659.4 43.6388 1660.05 43.6957 1660.69C43.7583 1661.4 43.9836 1662.08 43.9366 1662.79C43.9056 1663.27 43.8274 1663.73 43.7681 1664.2L41.3769 1682.52C41.3517 1682.71 41.267 1683.05 41.3097 1683.23C41.3788 1683.51 43.9778 1686.35 44.3472 1686.66L44.8361 1687.02C45.1623 1686.78 45.4464 1686.51 45.726 1686.22L47.5525 1684.18C47.8279 1683.85 48.1439 1683.52 48.3624 1683.15L46.019 1664.77C45.9384 1664.08 45.7978 1663.38 45.7779 1662.69C45.7606 1662.08 46.0341 1661.5 46.1147 1660.91C46.2823 1659.67 46.1462 1658.45 46.5279 1657.22C45.4943 1657.32 44.4835 1657.27 43.4596 1657.12Z" fill="#0A3445"/>
<rect width="87.15" height="87.15" transform="translate(538.61 1608.84)" fill="white"/>
<path d="M565.663 1637.35L562.673 1629.23L557.129 1635.88L565.663 1637.35ZM543.267 1619.67L559.997 1633.61L560.958 1632.46L544.227 1618.51L543.267 1619.67Z" fill="#0A3445"/>
<path d="M565.663 1664.75L562.673 1672.88L557.129 1666.22L565.663 1664.75ZM543.267 1682.44L559.997 1668.49L560.958 1669.65L544.227 1683.59L543.267 1682.44Z" fill="#0A3445"/>
<path d="M562.01 1650.14L554.51 1645.81L554.51 1654.47L562.01 1650.14ZM540.094 1650.89L555.26 1650.89L555.26 1649.39L540.094 1649.39L540.094 1650.89Z" fill="#0A3445"/>
<path d="M602.19 1650.14L609.69 1645.81L609.69 1654.47L602.19 1650.14ZM624.106 1650.89L608.94 1650.89L608.94 1649.39L624.106 1649.39L624.106 1650.89Z" fill="#0A3445"/>
<path d="M598.537 1637.35L601.527 1629.23L607.071 1635.88L598.537 1637.35ZM620.933 1619.67L604.203 1633.61L603.242 1632.46L619.973 1618.51L620.933 1619.67Z" fill="#0A3445"/>
<path d="M598.537 1664.75L601.527 1672.88L607.071 1666.22L598.537 1664.75ZM620.933 1682.44L604.203 1668.49L603.242 1669.65L619.973 1683.59L620.933 1682.44Z" fill="#0A3445"/>
<path d="M583.442 1680.06C581.903 1680.35 580.526 1679.78 579.461 1678.65C578.803 1677.94 579.343 1678.23 578.494 1677.96C577.313 1677.6 576.653 1676.59 576.556 1675.39C574.768 1675.03 574.239 1672.99 575.285 1671.56C575.086 1670.54 574.933 1669.57 574.924 1668.53C574.92 1668.01 574.957 1668.19 574.608 1667.89C573.453 1666.89 573.636 1666.23 573.334 1664.93C572.95 1663.29 572.288 1661.85 571.193 1660.56L569.893 1659.12C567.91 1656.83 566.466 1653.88 566.267 1650.84C565.66 1641.56 572.688 1634.04 581.874 1633.46L583.368 1633.45C584.132 1633.47 584.918 1633.6 585.669 1633.75C593.618 1635.32 599.291 1642.24 598.969 1650.41C598.843 1653.62 597.452 1656.66 595.372 1659.07L594.095 1660.46C593.035 1661.7 592.334 1663.12 591.948 1664.7C591.433 1666.8 591.931 1666.63 590.286 1668.16L590.27 1669.33C590.245 1669.72 590.188 1670.11 590.124 1670.5L589.972 1671.26C589.858 1671.73 589.866 1671.47 590.145 1671.91C590.972 1673.21 590.281 1674.85 588.822 1675.33C588.563 1675.41 588.699 1675.52 588.647 1675.84C588.443 1677.07 587.533 1677.94 586.265 1677.97L586.247 1678C585.601 1679.04 584.64 1679.77 583.442 1680.06ZM581.868 1634.95C574.408 1635.29 568.39 1641.05 567.739 1648.47C567.67 1649.26 567.679 1650.09 567.718 1650.88L567.761 1651.28C568.246 1653.98 569.111 1656.05 570.981 1658.15C572.815 1660.21 574.244 1661.79 574.752 1664.62L574.887 1665.52C575.014 1666.4 575.337 1666.8 576.191 1667.15C576.405 1667.24 576.76 1667.2 576.993 1667.2L576.933 1666.13C576.646 1662.31 574.999 1657.49 572.727 1654.3C572.401 1653.84 571.586 1652.86 572.59 1652.52L572.615 1652.52C573.184 1652.34 573.591 1653.07 573.859 1653.44C576.404 1656.95 577.79 1661.3 578.303 1665.58L578.412 1666.92C578.417 1667.01 578.409 1667.13 578.446 1667.21L581.886 1667.22L581.887 1657.66C578.51 1657.37 576.541 1655.31 575.566 1652.09C575.036 1650.34 575.422 1649.97 577.141 1650.25C579.044 1650.57 580.787 1651.47 581.93 1653.06L582.661 1654.23L582.918 1653.71C584.108 1651.6 586.391 1650.36 588.767 1650.18C589.634 1650.12 590.02 1650.25 589.865 1651.22C589.315 1654.68 586.92 1657.46 583.33 1657.67L583.334 1667.21C583.461 1667.23 583.605 1667.22 583.734 1667.22L584.449 1667.22C585.22 1667.22 586.007 1667.25 586.776 1667.2C587.003 1662.86 588.267 1658.6 590.462 1654.84C590.796 1654.27 591.736 1652.48 592.461 1652.51C593.033 1652.52 593.269 1653.14 593.003 1653.58C592.827 1653.88 592.596 1654.14 592.407 1654.43L591.308 1656.29C589.531 1659.54 588.338 1663.47 588.21 1667.2C588.859 1667.17 589.52 1667.05 589.977 1666.54C590.404 1666.07 590.355 1665.37 590.459 1664.78C590.785 1662.92 591.666 1661.11 592.89 1659.68L594.11 1658.32C596.374 1655.65 597.746 1652.59 597.537 1649.07C597.037 1640.63 590.214 1634.65 581.868 1634.95ZM576.926 1651.65C577.654 1654 579.229 1655.95 581.769 1656.26C581.401 1654.19 579.796 1652.53 577.818 1651.89L576.926 1651.65ZM588.275 1651.69C586.072 1652 584.241 1653.61 583.616 1655.73C583.567 1655.89 583.509 1656.07 583.49 1656.24C586.036 1655.88 587.541 1654.06 588.304 1651.75L588.275 1651.69ZM576.349 1668.63C576.252 1669.11 576.529 1670.58 576.684 1671.02L588.552 1671.04L588.629 1670.73L588.865 1668.96C588.872 1668.87 588.868 1668.76 588.894 1668.67L576.349 1668.63ZM576.88 1672.48C575.713 1672.56 576.145 1673.78 576.68 1673.85C577.051 1673.9 577.456 1673.87 577.83 1673.87L588.381 1673.87C589.465 1673.73 589.136 1672.55 588.399 1672.49C587.965 1672.44 587.507 1672.47 587.07 1672.47L576.88 1672.48ZM579.19 1675.32C579.014 1675.32 577.987 1675.29 577.905 1675.37C578.079 1676.47 578.665 1676.6 579.624 1676.6L586.057 1676.6C586.875 1676.55 587.189 1676.15 587.336 1675.36C586.984 1675.3 586.612 1675.32 586.256 1675.32L579.19 1675.32ZM580.829 1678.06C581.882 1678.71 582.996 1678.92 584.107 1678.31L584.297 1678.16C584.338 1678.12 584.41 1678.08 584.464 1678.06L580.829 1678.06Z" fill="#0A3445"/>
<path d="M594.549 1650.44C593.917 1650.48 593.694 1650.03 593.675 1649.5C593.494 1644.38 590.219 1640.14 585.084 1639.1L584.405 1638.99C584.263 1638.97 584.065 1638.96 583.937 1638.89C583.41 1638.61 583.389 1637.78 584.125 1637.58C584.464 1637.54 584.809 1637.6 585.143 1637.65C590.892 1638.57 594.812 1643.47 595.099 1649.18C595.126 1649.71 595.189 1650.28 594.549 1650.44Z" fill="#0A3445"/>
<g clip-path="url(#clip1_141_1519)">
<rect width="87.15" height="87.15" transform="translate(851.34 536.279)" fill="white"/>
<path d="M859.34 546.279L861.581 554.644L867.705 548.521L859.34 546.279ZM863.583 551.583L879.411 567.41L880.471 566.35L864.643 550.522L863.583 551.583Z" fill="#0A3445"/>
<path d="M859.34 614.881L861.581 606.516L867.705 612.639L859.34 614.881ZM863.583 609.578L879.411 593.75L880.471 594.81L864.643 610.638L863.583 609.578Z" fill="#0A3445"/>
<path d="M929.941 546.279L927.699 554.644L921.576 548.521L929.941 546.279ZM925.698 551.583L909.87 567.41L908.81 566.35L924.638 550.522L925.698 551.583Z" fill="#0A3445"/>
<path d="M929.941 614.881L927.699 606.516L921.576 612.639L929.941 614.881ZM925.698 609.578L909.87 593.75L908.81 594.81L924.638 610.638L925.698 609.578Z" fill="#0A3445"/>
<path d="M932.34 578.029L924.84 573.699V582.359L932.34 578.029ZM925.59 577.279H911.34V578.779H925.59V577.279Z" fill="#0A3445"/>
<path d="M856.34 578.029L863.84 573.699V582.359L856.34 578.029ZM863.09 577.279H877.34V578.779H863.09V577.279Z" fill="#0A3445"/>
<path d="M890.584 594.698L879.756 579.882C879.479 579.495 879.179 579.11 878.929 578.706C878.452 577.936 878.832 577.57 879.287 576.903L884.362 569.587C884.906 568.786 885.066 568.826 885.948 568.825L902.587 568.824L903.188 568.817C904.017 568.805 904.103 569.258 904.534 569.886L909.331 576.78C910.195 578.043 910.309 577.994 909.375 579.289L899.637 592.647L895.06 598.793C894.911 598.978 894.749 599.114 894.504 599.139C893.805 599.21 893.592 598.807 893.215 598.284L890.584 594.698ZM896.431 570.8L899.596 575.074L899.776 574.281L900.491 571.172C900.516 571.056 900.558 570.921 900.564 570.803L896.431 570.8ZM888.338 570.8L888.118 570.813L889.097 575.087L890.357 573.384L891.901 571.221C891.983 571.109 892.097 570.882 892.205 570.805C892.083 570.787 891.941 570.8 891.817 570.8L888.338 570.8ZM902.606 571.076C902.399 571.61 902.294 572.208 902.159 572.767L901.252 576.511C901.229 576.606 901.221 576.724 901.174 576.809L905.471 576.802L906.904 576.789C906.791 576.66 906.71 576.477 906.611 576.333L903.419 571.902C903.172 571.583 902.982 571.253 902.606 571.076ZM894.363 571.234C894.124 571.588 893.848 571.915 893.592 572.257L890.444 576.587C890.395 576.656 890.374 576.726 890.319 576.793L894.352 576.802L898.356 576.78C898.332 576.763 897.951 576.191 897.904 576.123L894.363 571.234ZM885.782 571.352C885.335 571.491 885.127 572.005 884.879 572.364L882.036 576.37C881.968 576.464 881.888 576.562 881.834 576.665C881.76 576.809 881.683 576.805 881.886 576.804L883.458 576.802L887.481 576.77C887.446 576.684 887.442 576.578 887.42 576.487L886.396 572.15C886.29 571.659 886.356 571.287 885.782 571.352ZM893.799 578.851L889.913 578.875C889.976 578.976 889.997 579.177 890.033 579.295L893.861 592.013C894.019 592.53 894.15 593.075 894.352 593.576L894.476 593.162L898.706 579.055C898.726 578.981 898.733 578.914 898.781 578.852L893.799 578.851ZM881.361 578.851C881.486 578.958 881.579 579.093 881.677 579.228L883.285 581.468L892.373 593.842C892.391 593.839 892.385 593.844 892.394 593.834L890.709 588.33L887.983 579.235C887.94 579.106 887.91 578.973 887.847 578.852L881.361 578.851ZM900.787 578.851L898.902 585.279L896.415 593.444C896.373 593.573 896.311 593.723 896.305 593.859C896.444 593.714 896.55 593.538 896.667 593.376L899.074 590.089L907.294 578.85L900.787 578.851Z" fill="#0A3445"/>
<path fill-rule="evenodd" clip-rule="evenodd" d="M933.34 543.279H909.34V538.279H933.34H938.34V543.279V562.279H933.34V543.279ZM856.34 562.279V543.279H880.34V538.279H856.34H851.34V543.279V562.279H856.34ZM851.34 594.279H856.34V617.279H880.34V622.279H856.34H851.34V617.279V594.279ZM933.34 594.279H938.34V617.279V622.279H933.34H909.34V617.279H933.34V594.279Z" fill="#0A3445"/>
</g>
<rect width="87.15" height="87.15" transform="translate(851.34 1072.56)" fill="white"/>
<path d="M888.331 1144.2L868.279 1116.36C867.767 1115.63 867.211 1114.91 866.748 1114.15C865.865 1112.7 866.569 1112.01 867.411 1110.76L876.808 1097.01C877.817 1095.5 878.114 1095.58 879.745 1095.58L910.56 1095.57L911.673 1095.56C913.207 1095.54 913.367 1096.39 914.166 1097.57L923.049 1110.53C924.649 1112.9 924.859 1112.81 923.129 1115.24L905.096 1140.35L896.62 1151.9C896.344 1152.24 896.045 1152.5 895.591 1152.55C894.296 1152.68 893.903 1151.92 893.204 1150.94L888.331 1144.2ZM899.159 1099.29L905.02 1107.32L905.353 1105.83L906.678 1099.99C906.724 1099.77 906.802 1099.52 906.813 1099.29L899.159 1099.29ZM884.172 1099.29L883.765 1099.31L885.577 1107.35L887.912 1104.14L890.77 1100.08C890.923 1099.87 891.133 1099.44 891.333 1099.3C891.107 1099.26 890.844 1099.29 890.614 1099.29L884.172 1099.29ZM910.595 1099.81C910.21 1100.81 910.016 1101.93 909.767 1102.98L908.088 1110.02C908.044 1110.2 908.03 1110.42 907.943 1110.58L915.901 1110.57L918.554 1110.54C918.345 1110.3 918.194 1109.96 918.011 1109.69L912.101 1101.36C911.642 1100.76 911.29 1100.14 910.595 1099.81ZM895.329 1100.1C894.886 1100.77 894.376 1101.38 893.903 1102.03L888.072 1110.16C887.981 1110.29 887.943 1110.42 887.841 1110.55L895.31 1110.57L902.724 1110.53C902.68 1110.5 901.974 1109.42 901.887 1109.29L895.329 1100.1ZM879.438 1100.33C878.611 1100.59 878.226 1101.55 877.767 1102.23L872.501 1109.76C872.376 1109.93 872.228 1110.12 872.128 1110.31C871.991 1110.58 871.847 1110.57 872.224 1110.57L875.135 1110.57L882.585 1110.51C882.521 1110.35 882.513 1110.15 882.472 1109.98L880.575 1101.83C880.38 1100.9 880.502 1100.2 879.438 1100.33ZM894.285 1114.42L887.09 1114.46C887.206 1114.65 887.245 1115.03 887.312 1115.25L894.401 1139.15C894.693 1140.12 894.935 1141.15 895.309 1142.09L895.539 1141.31L903.372 1114.8C903.41 1114.66 903.422 1114.54 903.511 1114.42L894.285 1114.42ZM871.252 1114.42C871.484 1114.62 871.656 1114.87 871.838 1115.13L874.815 1119.34L891.644 1142.59C891.678 1142.59 891.667 1142.59 891.683 1142.58L888.563 1132.23L883.514 1115.14C883.435 1114.9 883.379 1114.65 883.262 1114.42L871.252 1114.42ZM907.226 1114.42L903.735 1126.5L899.13 1141.84C899.052 1142.09 898.937 1142.37 898.927 1142.62C899.184 1142.35 899.379 1142.02 899.596 1141.72L904.053 1135.54L919.276 1114.42L907.226 1114.42Z" fill="#0A3445"/>
<path d="M866.34 1112.56C866.34 1112.84 866.564 1113.06 866.84 1113.06C867.116 1113.06 867.34 1112.84 867.34 1112.56L866.34 1112.56ZM867.34 1112.56L867.34 1082.56L866.34 1082.56L866.34 1112.56L867.34 1112.56Z" fill="#0A3445"/>
<path d="M923.34 1112.56C923.34 1112.84 923.564 1113.06 923.84 1113.06C924.116 1113.06 924.34 1112.84 924.34 1112.56L923.34 1112.56ZM924.34 1112.56L924.34 1082.56L923.34 1082.56L923.34 1112.56L924.34 1112.56Z" fill="#0A3445"/>
<path d="M867.09 1086.06L872.09 1088.95V1083.17L867.09 1086.06ZM923.59 1086.06L918.59 1083.17V1088.95L923.59 1086.06ZM871.59 1086.56H919.09V1085.56H871.59V1086.56Z" fill="#0A3445"/>
<rect width="6" height="9" transform="translate(892.34 1080.56)" fill="white"/>
<path d="M894.092 1086.72V1086.29C894.092 1086.02 894.129 1085.79 894.203 1085.58C894.278 1085.38 894.397 1085.18 894.561 1085C894.725 1084.81 894.942 1084.62 895.211 1084.42C895.453 1084.25 895.647 1084.1 895.791 1083.96C895.94 1083.82 896.047 1083.69 896.113 1083.55C896.184 1083.42 896.219 1083.26 896.219 1083.09C896.219 1082.84 896.125 1082.64 895.938 1082.51C895.75 1082.38 895.488 1082.31 895.153 1082.31C894.817 1082.31 894.483 1082.37 894.151 1082.47C893.822 1082.58 893.488 1082.71 893.149 1082.89L892.51 1081.6C892.901 1081.38 893.324 1081.21 893.781 1081.08C894.238 1080.94 894.738 1080.87 895.281 1080.87C896.117 1080.87 896.764 1081.07 897.221 1081.47C897.682 1081.87 897.912 1082.38 897.912 1083C897.912 1083.33 897.86 1083.61 897.754 1083.85C897.653 1084.09 897.496 1084.31 897.285 1084.52C897.078 1084.72 896.819 1084.94 896.506 1085.17C896.272 1085.34 896.092 1085.48 895.967 1085.6C895.842 1085.72 895.756 1085.83 895.709 1085.95C895.666 1086.06 895.645 1086.2 895.645 1086.37V1086.72H894.092ZM893.904 1088.72C893.904 1088.36 894.004 1088.1 894.203 1087.95C894.406 1087.8 894.651 1087.73 894.936 1087.73C895.213 1087.73 895.451 1087.8 895.651 1087.95C895.854 1088.1 895.955 1088.36 895.955 1088.72C895.955 1089.07 895.854 1089.33 895.651 1089.48C895.451 1089.64 895.213 1089.72 894.936 1089.72C894.651 1089.72 894.406 1089.64 894.203 1089.48C894.004 1089.33 893.904 1089.07 893.904 1088.72Z" fill="#0A3445"/>
</g>
<defs>
<clipPath id="clip0_141_1519">
<rect width="1404" height="1872" fill="white"/>
</clipPath>
<clipPath id="clip1_141_1519">
<rect width="87.15" height="87.15" fill="white" transform="translate(851.34 536.279)"/>
</clipPath>
</defs>
</svg>
