<svg width="1404" height="1872" viewBox="0 0 1404 1872" fill="none" xmlns="http://www.w3.org/2000/svg">
<g clip-path="url(#clip0_156_212)">
<rect width="1404" height="1872" fill="white"/>
<line y1="43.5745" x2="1404" y2="43.5745" stroke="#06A9EA" stroke-width="2.23" stroke-miterlimit="3.99933"/>
<line y1="88.2639" x2="1404" y2="88.2639" stroke="#06A9EA" stroke-width="2.23" stroke-miterlimit="3.99933"/>
<line y1="132.955" x2="1404" y2="132.955" stroke="#06A9EA" stroke-width="2.23" stroke-miterlimit="3.99933"/>
<line y1="177.645" x2="1404" y2="177.645" stroke="#06A9EA" stroke-width="2.23" stroke-miterlimit="3.99933"/>
<line y1="222.334" x2="1404" y2="222.334" stroke="#06A9EA" stroke-width="2.23" stroke-miterlimit="3.99933"/>
<line y1="267.024" x2="1404" y2="267.024" stroke="#06A9EA" stroke-width="2.23" stroke-miterlimit="3.99933"/>
<line y1="311.715" x2="1404" y2="311.715" stroke="#06A9EA" stroke-width="2.23" stroke-miterlimit="3.99933"/>
<line y1="356.405" x2="1404" y2="356.405" stroke="#06A9EA" stroke-width="2.23" stroke-miterlimit="3.99933"/>
<line y1="401.094" x2="1404" y2="401.094" stroke="#06A9EA" stroke-width="2.23" stroke-miterlimit="3.99933"/>
<line y1="445.785" x2="1404" y2="445.785" stroke="#06A9EA" stroke-width="2.23" stroke-miterlimit="3.99933"/>
<line y1="490.475" x2="1404" y2="490.475" stroke="#06A9EA" stroke-width="2.23" stroke-miterlimit="3.99933"/>
<line y1="535.164" x2="1404" y2="535.164" stroke="#06A9EA" stroke-width="2.23" stroke-miterlimit="3.99933"/>
<line y1="579.854" x2="1404" y2="579.854" stroke="#06A9EA" stroke-width="2.23" stroke-miterlimit="3.99933"/>
<line y1="624.545" x2="1404" y2="624.545" stroke="#06A9EA" stroke-width="2.23" stroke-miterlimit="3.99933"/>
<line y1="669.235" x2="1404" y2="669.235" stroke="#06A9EA" stroke-width="2.23" stroke-miterlimit="3.99933"/>
<line y1="713.924" x2="1404" y2="713.924" stroke="#06A9EA" stroke-width="2.23" stroke-miterlimit="3.99933"/>
<line y1="758.614" x2="1404" y2="758.614" stroke="#06A9EA" stroke-width="2.23" stroke-miterlimit="3.99933"/>
<line y1="803.305" x2="1404" y2="803.305" stroke="#06A9EA" stroke-width="2.23" stroke-miterlimit="3.99933"/>
<line y1="847.994" x2="1404" y2="847.994" stroke="#06A9EA" stroke-width="2.23" stroke-miterlimit="3.99933"/>
<line y1="892.684" x2="1404" y2="892.684" stroke="#06A9EA" stroke-width="2.23" stroke-miterlimit="3.99933"/>
<line y1="937.375" x2="1404" y2="937.375" stroke="#06A9EA" stroke-width="2.23" stroke-miterlimit="3.99933"/>
<line y1="982.065" x2="1404" y2="982.065" stroke="#06A9EA" stroke-width="2.23" stroke-miterlimit="3.99933"/>
<line y1="1026.75" x2="1404" y2="1026.75" stroke="#06A9EA" stroke-width="2.23" stroke-miterlimit="3.99933"/>
<line y1="1071.44" x2="1404" y2="1071.44" stroke="#06A9EA" stroke-width="2.23" stroke-miterlimit="3.99933"/>
<line y1="1116.13" x2="1404" y2="1116.14" stroke="#06A9EA" stroke-width="2.23" stroke-miterlimit="3.99933"/>
<line y1="1160.82" x2="1404" y2="1160.82" stroke="#06A9EA" stroke-width="2.23" stroke-miterlimit="3.99933"/>
<line y1="1205.51" x2="1404" y2="1205.51" stroke="#06A9EA" stroke-width="2.23" stroke-miterlimit="3.99933"/>
<line y1="1250.21" x2="1404" y2="1250.21" stroke="#06A9EA" stroke-width="2.23" stroke-miterlimit="3.99933"/>
<line y1="1294.89" x2="1404" y2="1294.89" stroke="#06A9EA" stroke-width="2.23" stroke-miterlimit="3.99933"/>
<line y1="1339.58" x2="1404" y2="1339.58" stroke="#06A9EA" stroke-width="2.23" stroke-miterlimit="3.99933"/>
<line y1="1384.27" x2="1404" y2="1384.27" stroke="#06A9EA" stroke-width="2.23" stroke-miterlimit="3.99933"/>
<line y1="1428.97" x2="1404" y2="1428.97" stroke="#06A9EA" stroke-width="2.23" stroke-miterlimit="3.99933"/>
<line y1="1473.65" x2="1404" y2="1473.65" stroke="#06A9EA" stroke-width="2.23" stroke-miterlimit="3.99933"/>
<line y1="1518.34" x2="1404" y2="1518.34" stroke="#06A9EA" stroke-width="2.23" stroke-miterlimit="3.99933"/>
<line y1="1563.04" x2="1404" y2="1563.04" stroke="#06A9EA" stroke-width="2.23" stroke-miterlimit="3.99933"/>
<line y1="1607.72" x2="1404" y2="1607.72" stroke="#06A9EA" stroke-width="2.23" stroke-miterlimit="3.99933"/>
<line y1="1652.41" x2="1404" y2="1652.41" stroke="#06A9EA" stroke-width="2.23" stroke-miterlimit="3.99933"/>
<line y1="1697.1" x2="1404" y2="1697.1" stroke="#06A9EA" stroke-width="2.23" stroke-miterlimit="3.99933"/>
<line y1="1741.8" x2="1404" y2="1741.8" stroke="#06A9EA" stroke-width="2.23" stroke-miterlimit="3.99933"/>
<line y1="1786.48" x2="1404" y2="1786.48" stroke="#06A9EA" stroke-width="2.23" stroke-miterlimit="3.99933"/>
<line y1="1831.17" x2="1404" y2="1831.17" stroke="#06A9EA" stroke-width="2.23" stroke-miterlimit="3.99933"/>
<line x1="134.07" y1="534.279" x2="1404" y2="534.279" stroke="#06A9EA" stroke-width="4" stroke-miterlimit="3.99933"/>
<line x1="134.07" y1="1070.56" x2="1404" y2="1070.56" stroke="#06A9EA" stroke-width="4" stroke-miterlimit="3.99933"/>
<line x1="134.07" y1="1606.84" x2="1404" y2="1606.84" stroke="#06A9EA" stroke-width="4" stroke-miterlimit="3.99933"/>
<line x1="45.8049" y1="-1.115e-07" x2="45.8049" y2="1872" stroke="#06A9EA" stroke-width="2.23" stroke-miterlimit="3.99933"/>
<line x1="90.4949" y1="-1.115e-07" x2="90.4949" y2="1872" stroke="#06A9EA" stroke-width="2.23" stroke-miterlimit="3.99933"/>
<line x1="135.185" y1="-1.115e-07" x2="135.185" y2="1872" stroke="#06A9EA" stroke-width="2.23" stroke-miterlimit="3.99933"/>
<line x1="179.875" y1="-1.115e-07" x2="179.875" y2="1872" stroke="#06A9EA" stroke-width="2.23" stroke-miterlimit="3.99933"/>
<line x1="224.565" y1="-1.115e-07" x2="224.565" y2="1872" stroke="#06A9EA" stroke-width="2.23" stroke-miterlimit="3.99933"/>
<line x1="269.255" y1="-1.115e-07" x2="269.255" y2="1872" stroke="#06A9EA" stroke-width="2.23" stroke-miterlimit="3.99933"/>
<line x1="313.945" y1="-1.115e-07" x2="313.945" y2="1872" stroke="#06A9EA" stroke-width="2.23" stroke-miterlimit="3.99933"/>
<line x1="358.635" y1="-1.115e-07" x2="358.635" y2="1872" stroke="#06A9EA" stroke-width="2.23" stroke-miterlimit="3.99933"/>
<line x1="403.325" y1="-1.115e-07" x2="403.325" y2="1872" stroke="#06A9EA" stroke-width="2.23" stroke-miterlimit="3.99933"/>
<line x1="448.015" y1="-1.115e-07" x2="448.015" y2="1872" stroke="#06A9EA" stroke-width="2.23" stroke-miterlimit="3.99933"/>
<line x1="492.705" y1="-1.115e-07" x2="492.705" y2="1872" stroke="#06A9EA" stroke-width="2.23" stroke-miterlimit="3.99933"/>
<line x1="537.395" y1="-1.115e-07" x2="537.395" y2="1872" stroke="#06A9EA" stroke-width="2.23" stroke-miterlimit="3.99933"/>
<line x1="582.085" y1="-1.115e-07" x2="582.085" y2="1872" stroke="#06A9EA" stroke-width="2.23" stroke-miterlimit="3.99933"/>
<line x1="626.775" y1="-1.115e-07" x2="626.775" y2="1872" stroke="#06A9EA" stroke-width="2.23" stroke-miterlimit="3.99933"/>
<line x1="671.465" y1="-1.115e-07" x2="671.465" y2="1872" stroke="#06A9EA" stroke-width="2.23" stroke-miterlimit="3.99933"/>
<line x1="716.155" y1="-1.115e-07" x2="716.155" y2="1872" stroke="#06A9EA" stroke-width="2.23" stroke-miterlimit="3.99933"/>
<line x1="760.845" y1="-1.115e-07" x2="760.845" y2="1872" stroke="#06A9EA" stroke-width="2.23" stroke-miterlimit="3.99933"/>
<line x1="805.535" y1="-1.115e-07" x2="805.535" y2="1872" stroke="#06A9EA" stroke-width="2.23" stroke-miterlimit="3.99933"/>
<line x1="850.225" y1="-1.115e-07" x2="850.225" y2="1872" stroke="#06A9EA" stroke-width="2.23" stroke-miterlimit="3.99933"/>
<line x1="894.915" y1="-1.115e-07" x2="894.915" y2="1872" stroke="#06A9EA" stroke-width="2.23" stroke-miterlimit="3.99933"/>
<line x1="939.605" y1="-1.115e-07" x2="939.605" y2="1872" stroke="#06A9EA" stroke-width="2.23" stroke-miterlimit="3.99933"/>
<line x1="984.295" y1="-1.115e-07" x2="984.295" y2="1872" stroke="#06A9EA" stroke-width="2.23" stroke-miterlimit="3.99933"/>
<line x1="1028.98" y1="-1.115e-07" x2="1028.98" y2="1872" stroke="#06A9EA" stroke-width="2.23" stroke-miterlimit="3.99933"/>
<line x1="1073.68" y1="-1.115e-07" x2="1073.68" y2="1872" stroke="#06A9EA" stroke-width="2.23" stroke-miterlimit="3.99933"/>
<line x1="1118.37" y1="-1.115e-07" x2="1118.36" y2="1872" stroke="#06A9EA" stroke-width="2.23" stroke-miterlimit="3.99933"/>
<line x1="1163.05" y1="-1.115e-07" x2="1163.05" y2="1872" stroke="#06A9EA" stroke-width="2.23" stroke-miterlimit="3.99933"/>
<line x1="1207.75" y1="-1.115e-07" x2="1207.75" y2="1872" stroke="#06A9EA" stroke-width="2.23" stroke-miterlimit="3.99933"/>
<line x1="1252.44" y1="-1.115e-07" x2="1252.44" y2="1872" stroke="#06A9EA" stroke-width="2.23" stroke-miterlimit="3.99933"/>
<line x1="1297.13" y1="-1.115e-07" x2="1297.12" y2="1872" stroke="#06A9EA" stroke-width="2.23" stroke-miterlimit="3.99933"/>
<line x1="1341.81" y1="-1.115e-07" x2="1341.81" y2="1872" stroke="#06A9EA" stroke-width="2.23" stroke-miterlimit="3.99933"/>
<line x1="1386.51" y1="-1.115e-07" x2="1386.51" y2="1872" stroke="#06A9EA" stroke-width="2.23" stroke-miterlimit="3.99933"/>
<line x1="136.07" y1="-2e-07" x2="136.07" y2="1872" stroke="#06A9EA" stroke-width="4" stroke-miterlimit="3.99933"/>
<line x1="627.66" y1="1608.84" x2="627.66" y2="1872" stroke="#06A9EA" stroke-width="4" stroke-miterlimit="3.99933"/>
<line x1="940.49" y1="536.279" x2="940.49" y2="1608.84" stroke="#06A9EA" stroke-width="4" stroke-miterlimit="3.99933"/>
<rect width="85.38" height="87.15" transform="translate(138.07)" fill="white"/>
<path d="M174.38 58.6831C174.38 56.3247 174.432 54.3252 174.534 52.6846C174.671 51.0439 174.961 49.5571 175.406 48.2241C175.85 46.9253 176.517 45.729 177.405 44.6353C178.294 43.5073 179.542 42.311 181.148 41.0464C182.31 39.9868 183.472 38.876 184.634 37.7139C185.796 36.5176 186.856 35.2871 187.813 34.0225C188.736 32.792 189.488 31.5273 190.069 30.2285C190.65 28.9297 190.94 27.6309 190.94 26.332C190.94 24.7598 190.718 23.4097 190.274 22.2817C189.83 21.1196 189.197 20.1626 188.377 19.4106C187.522 18.7271 186.48 18.2144 185.25 17.8726C184.053 17.5308 182.669 17.3599 181.097 17.3599C179.866 17.3599 178.67 17.5308 177.508 17.8726C176.346 18.1802 175.32 18.6929 174.432 19.4106C173.509 20.1284 172.757 21.0513 172.176 22.1792C171.629 23.3071 171.338 24.6572 171.304 26.2295H157C157.034 22.7432 157.684 19.7183 158.948 17.1548C160.213 14.5571 161.922 12.4038 164.075 10.6948C166.229 8.98584 168.758 7.72119 171.663 6.90088C174.568 6.04639 177.713 5.61914 181.097 5.61914C184.891 5.61914 188.292 6.04639 191.299 6.90088C194.307 7.75537 196.854 9.02002 198.938 10.6948C200.989 12.4038 202.562 14.5059 203.655 17.001C204.749 19.4961 205.296 22.3843 205.296 25.6655C205.296 28.0923 204.886 30.314 204.065 32.3306C203.245 34.313 202.186 36.1587 200.887 37.8677C199.588 39.6108 198.101 41.2686 196.426 42.8408C194.786 44.3789 193.128 45.8828 191.453 47.3525C190.428 48.3779 189.625 49.2837 189.043 50.0698C188.462 50.856 188.052 51.6592 187.813 52.4795C187.54 53.2998 187.369 54.2056 187.3 55.1968C187.232 56.1538 187.198 57.3159 187.198 58.6831H174.38ZM172.278 74.2178C172.278 71.9619 173.013 70.082 174.483 68.5781C175.953 67.04 177.986 66.271 180.584 66.271C183.113 66.271 185.13 67.04 186.634 68.5781C188.172 70.082 188.941 71.9619 188.941 74.2178C188.941 76.4053 188.172 78.251 186.634 79.7549C185.13 81.2246 183.113 81.9595 180.584 81.9595C177.986 81.9595 175.953 81.2246 174.483 79.7549C173.013 78.251 172.278 76.4053 172.278 74.2178Z" fill="#0A3445"/>
<rect width="85.38" height="87.15" transform="translate(138.07 536.279)" fill="white"/>
<line x1="145.5" y1="569" x2="145.5" y2="621" stroke="#0A3445" stroke-width="5"/>
<line x1="143" y1="571" x2="156" y2="571" stroke="#0A3445" stroke-width="4"/>
<line x1="143" y1="619" x2="156" y2="619" stroke="#0A3445" stroke-width="4"/>
<line x1="216.5" y1="621" x2="216.5" y2="569" stroke="#0A3445" stroke-width="5"/>
<line x1="219" y1="619" x2="206" y2="619" stroke="#0A3445" stroke-width="4"/>
<line x1="219" y1="571" x2="206" y2="571" stroke="#0A3445" stroke-width="4"/>
<circle cx="181" cy="554" r="14" stroke="#0A3445" stroke-width="2"/>
<line x1="181" y1="550" x2="181" y2="562" stroke="#0A3445" stroke-width="2"/>
<circle cx="181" cy="546.5" r="1.5" fill="#0A3445"/>
<line x1="158" y1="578.998" x2="204" y2="578.998" stroke="#0A3445" stroke-width="2"/>
<line x1="158" y1="583.998" x2="200" y2="583.998" stroke="#0A3445" stroke-width="2"/>
<line x1="158" y1="588.998" x2="187" y2="588.998" stroke="#0A3445" stroke-width="2"/>
<line x1="158" y1="593.998" x2="184" y2="593.998" stroke="#0A3445" stroke-width="2"/>
<line x1="158" y1="598.998" x2="194" y2="598.998" stroke="#0A3445" stroke-width="2"/>
<line x1="158" y1="603.998" x2="199" y2="603.998" stroke="#0A3445" stroke-width="2"/>
<line x1="158" y1="608.998" x2="204" y2="608.998" stroke="#0A3445" stroke-width="2"/>
<rect width="85.38" height="87.15" transform="translate(138.07 1072.56)" fill="white"/>
<path d="M158.978 1144.35L157.721 1143.47C150.412 1138.13 145.555 1128.93 145.022 1119.92L145 1118.13C144.987 1111.38 147.061 1104.75 151.091 1099.29C160.823 1086.12 179.172 1082.35 193.359 1090.39C195.031 1091.33 196.552 1092.45 198.096 1093.59L198.456 1093C199.15 1091.99 200.008 1091.08 200.869 1090.21L207.351 1084.18C207.856 1083.69 208.242 1083.13 208.967 1083C210.234 1083.01 209.909 1084.15 209.905 1085L209.903 1088.09C209.902 1088.77 209.866 1089.47 209.948 1090.14C210.442 1089.95 211.178 1089.61 211.636 1090.05C212.57 1090.93 211.655 1091.54 211.07 1092.08L208.555 1094.28L215.341 1094.88C216.265 1094.99 217.427 1095.15 216.842 1096.47C216.576 1097.08 215.181 1097.71 214.634 1098.03L207.845 1101.77C207.097 1102.17 206.356 1102.56 205.568 1102.87C205.919 1103.34 206.158 1103.93 206.407 1104.45C208.168 1108.16 209.196 1112.09 209.426 1116.2L209.445 1117.86C209.455 1125.35 206.758 1132.76 201.955 1138.51C191.273 1151.3 172.76 1153.65 158.978 1144.35ZM207.599 1087.13C205.952 1088.48 206.121 1088.97 205.782 1090.88C205.632 1091.72 205.691 1092.65 205.701 1093.51L205.897 1093.44L207.921 1091.61C207.481 1090.2 207.602 1088.6 207.599 1087.13ZM175.977 1088.51C164.312 1089.09 153.667 1096.24 149.34 1107.21C144.854 1118.59 148.071 1131.87 157.209 1140.06C163.039 1145.29 171.1 1148.09 178.925 1147.68C196.212 1146.77 209.012 1131.14 206.885 1114.25C206.488 1111.09 205.597 1107.88 204.134 1105.05C203.67 1104.15 203.6 1103.62 202.59 1103.35C201.426 1103.03 200.3 1102.57 199.339 1101.82L196.821 1103.74L198.109 1105.69C199.183 1107.47 200.027 1109.43 200.615 1111.42C204.728 1126.2 194.039 1141.39 178.765 1142.22L177.004 1142.24C164.553 1142.19 153.733 1132.09 152.899 1119.65L152.867 1117.93C152.861 1110.21 156.82 1102.88 163.114 1098.44C172.24 1092.01 184.722 1092.64 193.184 1099.97C193.925 1100.61 194.654 1101.28 195.302 1102.02L197.838 1100.04C197.448 1098.85 197.411 1097.74 197.483 1096.52C197.515 1095.96 197.427 1096.06 197.003 1095.69C192.277 1091.59 185.465 1088.93 179.268 1088.53C178.182 1088.46 177.066 1088.5 175.977 1088.51ZM203.531 1090.79C202.702 1091.58 201.921 1092.43 201.165 1093.3C200.072 1094.56 199.813 1095.46 199.752 1097.09L199.818 1098.39L199.919 1098.32L202.69 1096.02C203.004 1095.75 203.391 1095.46 203.634 1095.13C203.412 1093.69 203.556 1092.23 203.531 1090.79ZM176.304 1096.32C171.322 1096.64 166.453 1098.44 162.668 1101.72C157.664 1106.07 154.765 1112.59 155.177 1119.23C155.845 1130.02 164.74 1139.03 175.553 1139.86C182.51 1140.39 189.279 1137.61 193.836 1132.3C200.518 1124.51 200.971 1113.67 195.075 1105.37L190.865 1108.63L189.94 1109.39C190.374 1110.15 190.846 1110.87 191.218 1111.67C194.525 1118.74 191.752 1127.49 184.922 1131.34C177.474 1135.54 167.926 1132.93 163.709 1125.5C162.7 1123.73 161.921 1121.63 161.706 1119.59C160.672 1109.8 169.427 1101.79 179.021 1102.95C182.546 1103.38 186.044 1105.03 188.452 1107.64L193.518 1103.47C189.645 1099.46 184.056 1096.44 178.371 1096.32L176.304 1096.32ZM206.228 1096.31L201.077 1100.29C201.657 1100.56 203.522 1101.2 204.157 1100.97L206.038 1100.09L212.172 1096.86L206.228 1096.31ZM176.413 1105.18C168.083 1105.81 162.19 1113.36 164.479 1121.4C165.183 1123.87 166.594 1126.18 168.565 1127.85C177.662 1135.55 191.427 1128.33 190.268 1116.73C190.146 1115.51 189.778 1114.25 189.32 1113.11C189.096 1112.61 188.552 1111.3 188.1 1110.97L184.36 1113.99C183.811 1114.42 183.203 1114.99 182.568 1115.28C183.287 1116.75 183.564 1118.49 183.023 1120.06C181.189 1125.4 173.808 1125.66 171.431 1120.71C170.75 1119.29 170.728 1117.47 171.26 1116C172.748 1111.89 177.833 1110.87 181.158 1113.55L186.692 1109.16C183.528 1106.16 180.641 1105.14 176.413 1105.18ZM176.759 1114.42C173.2 1114.8 171.933 1119.04 174.726 1121.17C176.843 1122.79 179.873 1121.71 180.784 1119.28C181.057 1118.44 180.994 1117.77 180.708 1116.93L179.152 1118.18C178.704 1118.55 178.256 1119.02 177.734 1119.28C176.965 1119.67 175.804 1119.33 175.934 1118.29C176.036 1117.47 177.062 1116.83 177.664 1116.36L179.38 1115.07C178.456 1114.64 177.791 1114.36 176.759 1114.42Z" fill="#0A3445"/>
<path d="M173.754 1120.69L177.711 1114.64L180.749 1118.86L173.754 1120.69Z" fill="#0A3445"/>
<rect width="85.38" height="87.15" transform="translate(138.07 1608.84)" fill="white"/>
<path d="M181.033 1652.51C176.265 1652.53 173.174 1648.91 171.069 1644.99C170.793 1644.48 170.596 1643.92 170.308 1643.42C170.034 1642.94 169.654 1642.53 169.35 1642.07C168.13 1640.23 167.03 1637.35 167.866 1635.14C167.975 1634.85 167.839 1634.86 167.69 1634.6C167.042 1633.45 166.905 1631.91 166.848 1630.63C166.578 1624.62 168.147 1620.12 173.787 1617.02C175.954 1615.83 178.1 1615.1 180.585 1615.01C183.023 1614.92 185.445 1615.64 187.147 1617.46C187.995 1618.37 188.011 1618.89 189.333 1619.3C192.628 1620.33 193.658 1622.56 194.218 1625.69C194.701 1628.38 195.131 1632.43 193.787 1634.98C193.589 1635.35 193.842 1635.44 193.993 1635.82C194.552 1637.22 193.06 1640.84 192.356 1641.97C191.982 1642.58 191.47 1643.1 191.129 1643.72C190.823 1644.28 190.609 1644.89 190.322 1645.46C188.495 1649.08 185.236 1652.24 181.033 1652.51ZM180.223 1617.48C178.172 1617.67 176.324 1618.37 174.555 1619.41C170.567 1621.77 169.272 1624.99 169.272 1629.61C169.271 1630.82 169.334 1633.14 170.186 1634.12C170.323 1633.12 170.198 1632.07 170.255 1631.07C170.375 1628.92 171.14 1624.98 172.897 1623.63C174.555 1622.36 175.177 1622.67 176.833 1623.1C178.037 1623.4 179.789 1623.67 181.035 1623.38C183.579 1622.86 186.086 1621.69 188.568 1623.33C192.378 1625.83 190.744 1632.67 191.614 1633.73L191.747 1633.78C192.257 1633.48 192.269 1628.26 192.04 1627.17L191.873 1626.14C191.603 1624.77 191.118 1623.08 189.892 1622.27C188.164 1621.13 187.619 1622.12 185.906 1619.82C184.567 1618.01 182.406 1617.28 180.223 1617.48ZM185.426 1624.98C182.617 1625.25 181.193 1626.34 177.967 1625.86L175.492 1625.43C174.997 1625.36 174.825 1625.32 174.458 1625.7L174.311 1625.86C173.388 1626.97 172.955 1629.23 172.815 1630.63C172.603 1632.75 173.088 1636.91 170.009 1636.7C170.161 1637.77 170.617 1639.81 171.366 1640.59C172.099 1641.36 172.264 1641.15 172.664 1642.21L173.1 1643.27C174.032 1645.28 175.314 1647.24 177.09 1648.59C182.442 1652.43 186.971 1647.4 188.91 1642.66C189.078 1642.25 189.18 1641.79 189.374 1641.39C189.553 1641.03 190.013 1640.8 190.29 1640.52C191.026 1639.77 191.481 1637.77 191.618 1636.71C189.401 1636.69 189.164 1634.31 188.953 1632.58L188.699 1629.78C188.572 1627.82 188.399 1625.03 185.716 1624.96L185.426 1624.98Z" fill="#0A3445"/>
<path d="M158.219 1670.82C158.026 1670.29 158.079 1669.74 158.118 1669.18C158.376 1665.62 159.722 1663.5 162.426 1661.36C163.214 1660.74 164.042 1660.13 164.963 1659.72C163.556 1658.96 161.802 1657.79 161.068 1656.37C160.191 1654.66 161.241 1653.83 162.298 1652.61C163.918 1650.74 165.858 1648.65 166.615 1646.24C164.8 1646.08 164.719 1645.75 164.782 1644.13C164.832 1642.82 164.935 1641.43 164.481 1640.18C163.095 1636.36 157.447 1635.66 154.728 1638.43C153.407 1639.77 153.212 1641.8 153.383 1643.58C153.554 1645.37 153.784 1645.63 151.71 1646.3C151.899 1647.91 154.133 1650.51 155.203 1651.69L156.54 1653.15C156.874 1653.54 157.232 1653.98 157.372 1654.49L157.436 1654.74C158.15 1658.64 149.248 1660.9 147.046 1663.22C145.076 1665.3 145.896 1667.67 145.342 1668.41C144.658 1669.33 143.135 1669.02 143.022 1667.81C142.92 1666.73 143.187 1665.43 143.54 1664.41C145 1660.18 148.815 1659.18 152.343 1657.16C153.265 1656.64 154.193 1656.05 154.873 1655.22C154.807 1654.9 153.801 1653.9 153.56 1653.63C152.447 1652.37 151.295 1651.03 150.393 1649.61C149.324 1647.92 148.308 1645.01 150.687 1643.9C151.156 1643.69 150.913 1643.09 150.912 1642.43C150.909 1640.84 151.094 1639.48 151.891 1638.07C155.034 1632.53 164.395 1633.08 166.771 1639.17C167.351 1640.65 167.237 1642.25 167.234 1643.81C168.061 1644.33 168.754 1644.28 168.967 1645.47C169.446 1648.13 166.552 1651.53 164.927 1653.39C164.375 1654.02 163.738 1654.63 163.254 1655.31C163.696 1655.89 166.76 1658.13 167.442 1658.18C167.92 1658.22 172.047 1654.47 173.184 1653.74C175.339 1652.36 175.042 1655.3 175.126 1656.33C175.263 1658 175.902 1659.99 177.202 1661.1L176.99 1657.76C176.983 1657.41 176.954 1657.05 176.994 1656.7L177.003 1656.63C177.216 1654.84 178.647 1655.5 179.798 1655.63C180.414 1655.7 181.163 1655.72 181.779 1655.65C182.373 1655.58 182.991 1655.36 183.585 1655.38C185.506 1655.46 184.969 1658.06 184.894 1659.31L184.821 1661.04C185.807 1659.72 186.486 1658.16 186.601 1656.5C186.637 1655.98 186.488 1654.61 186.686 1654.2C187.543 1652.43 189.232 1654.27 190.02 1654.93C191.403 1656.08 192.795 1657.35 194.345 1658.27C195.324 1657.72 197.552 1656.14 198.254 1655.39C198.104 1654.98 197.607 1654.5 197.319 1654.16L195.625 1652.16C194.332 1650.57 191.91 1647.54 192.722 1645.32C193.01 1644.53 193.828 1644.07 194.545 1643.73C194.406 1643.1 194.447 1642.36 194.454 1641.73C194.499 1637.54 198.128 1634.18 202.261 1634.25C202.807 1634.24 203.407 1634.21 203.946 1634.29C207.675 1634.8 210.371 1637.46 210.741 1641.21C210.825 1642.07 210.796 1642.93 210.796 1643.79C211.269 1644.35 212.22 1644.32 212.428 1645.78C212.74 1647.98 210.771 1650.27 209.507 1651.83L208.086 1653.58C207.721 1654 207.268 1654.41 206.952 1654.87C206.153 1656.03 213.222 1659.12 214.471 1659.89C216.454 1661.11 217.828 1662.93 218.363 1665.21C218.537 1665.95 218.915 1667.74 218.475 1668.38C217.733 1669.47 216.187 1668.7 216.118 1667.96L216.115 1667.91C216.078 1667.38 216.113 1666.84 216.058 1666.32C215.705 1662.91 212.3 1661.6 209.639 1660.25C208.59 1659.72 207.562 1659.13 206.602 1658.45C204.337 1656.84 203.302 1655.4 205.165 1653.14L206.468 1651.64C207.672 1650.28 209.557 1648.12 210.003 1646.31C209.682 1646.1 209.219 1646.08 208.872 1645.88C207.968 1645.37 208.263 1644.34 208.325 1643.49C208.4 1642.46 208.378 1641.4 208.095 1640.4C206.604 1635.15 197.587 1635.68 196.974 1641.19C196.861 1642.21 197.169 1644.97 196.779 1645.64C196.493 1646.13 195.663 1646.15 195.157 1646.28C195.315 1648.15 197.648 1650.73 198.868 1652.09C199.821 1653.15 201.069 1654.1 200.751 1655.69C200.473 1657.08 199.374 1657.92 198.266 1658.67L196.682 1659.73C200.457 1661.74 203.197 1664.43 203.481 1668.85L203.507 1669.81C203.514 1670.32 203.543 1670.81 203.167 1671.22C202.712 1671.72 202.004 1671.75 201.516 1671.29C200.917 1670.72 201.069 1670.01 201.048 1669.26C200.944 1665.44 198.251 1663.53 195.261 1661.76L193.33 1660.64C191.826 1659.7 190.292 1658.52 188.997 1657.31C188.939 1659.41 187.226 1662.38 185.457 1663.48C185.091 1663.71 184.724 1663.87 184.342 1664.06C184.463 1666.21 184.82 1668.36 185.098 1670.5L186.557 1681.97C186.665 1682.79 186.903 1683.77 186.796 1684.59L186.786 1684.65C186.609 1685.91 185.375 1686.96 184.572 1687.85C183.47 1689.06 182.496 1690.55 180.674 1690.51C179.216 1690.48 178.587 1689.45 177.698 1688.47L176.237 1686.95C174.65 1685.27 174.728 1684.62 174.969 1682.49L176.99 1666.8C177.108 1665.88 177.235 1664.97 177.263 1664.04L176.218 1663.46C174.091 1662.05 173.153 1659.64 172.656 1657.23C171.681 1658.28 169.773 1659.82 168.589 1660.52L166.927 1661.42C164.959 1662.51 162.127 1664.39 161.221 1666.46C160.725 1667.59 160.621 1668.77 160.6 1669.99C160.597 1670.19 160.612 1670.42 160.57 1670.61C160.285 1671.95 158.802 1671.86 158.219 1670.82ZM179.46 1658.12L179.627 1659.75C179.662 1660.4 179.639 1661.05 179.696 1661.69C179.758 1662.4 179.984 1663.08 179.937 1663.79C179.906 1664.27 179.827 1664.73 179.768 1665.2L177.377 1683.52C177.352 1683.71 177.267 1684.05 177.31 1684.23C177.379 1684.51 179.978 1687.35 180.347 1687.66L180.836 1688.02C181.162 1687.78 181.446 1687.51 181.726 1687.22L183.553 1685.18C183.828 1684.85 184.144 1684.52 184.362 1684.15L182.019 1665.77C181.938 1665.08 181.798 1664.38 181.778 1663.69C181.761 1663.08 182.034 1662.5 182.115 1661.91C182.282 1660.67 182.146 1659.45 182.528 1658.22C181.494 1658.32 180.484 1658.27 179.46 1658.12Z" fill="#0A3445"/>
<g clip-path="url(#clip1_156_212)">
<rect width="85.15" height="87.15" transform="translate(629.76 1608.84)" fill="white"/>
<path d="M655.569 1638.26L652.579 1630.14L647.035 1636.79L655.569 1638.26ZM633.172 1620.58L649.903 1634.52L650.863 1633.37L634.133 1619.42L633.172 1620.58Z" fill="#0A3445"/>
<path d="M655.569 1665.66L652.579 1673.79L647.035 1667.13L655.569 1665.66ZM633.172 1683.35L649.903 1669.4L650.863 1670.56L634.133 1684.5L633.172 1683.35Z" fill="#0A3445"/>
<path d="M651.916 1651.05L644.416 1646.72L644.416 1655.38L651.916 1651.05ZM630 1651.8L645.166 1651.8L645.166 1650.3L630 1650.3L630 1651.8Z" fill="#0A3445"/>
<path d="M692.096 1651.05L699.596 1646.72L699.596 1655.38L692.096 1651.05ZM714.012 1651.8L698.846 1651.8L698.846 1650.3L714.012 1650.3L714.012 1651.8Z" fill="#0A3445"/>
<path d="M688.443 1638.26L691.433 1630.14L696.977 1636.79L688.443 1638.26ZM710.839 1620.58L694.109 1634.52L693.148 1633.37L709.879 1619.42L710.839 1620.58Z" fill="#0A3445"/>
<path d="M688.443 1665.66L691.433 1673.79L696.977 1667.13L688.443 1665.66ZM710.839 1683.35L694.109 1669.4L693.148 1670.56L709.879 1684.5L710.839 1683.35Z" fill="#0A3445"/>
<path d="M673.348 1680.97C671.809 1681.26 670.432 1680.69 669.367 1679.56C668.709 1678.86 669.249 1679.14 668.399 1678.87C667.219 1678.51 666.559 1677.5 666.462 1676.3C664.674 1675.94 664.145 1673.9 665.191 1672.47C664.991 1671.45 664.839 1670.48 664.83 1669.44C664.826 1668.92 664.863 1669.1 664.514 1668.8C663.359 1667.8 663.542 1667.14 663.24 1665.85C662.855 1664.2 662.194 1662.76 661.099 1661.47L659.799 1660.03C657.815 1657.74 656.372 1654.79 656.173 1651.75C655.566 1642.47 662.594 1634.95 671.78 1634.37L673.274 1634.36C674.038 1634.39 674.824 1634.51 675.574 1634.66C683.524 1636.23 689.197 1643.15 688.875 1651.32C688.748 1654.53 687.357 1657.57 685.278 1659.98L684.001 1661.37C682.941 1662.61 682.24 1664.03 681.854 1665.61C681.339 1667.71 681.837 1667.54 680.192 1669.07L680.175 1670.24C680.15 1670.63 680.094 1671.02 680.03 1671.41L679.878 1672.17C679.764 1672.64 679.772 1672.38 680.051 1672.82C680.878 1674.12 680.187 1675.76 678.728 1676.24C678.469 1676.32 678.605 1676.43 678.553 1676.75C678.349 1677.98 677.439 1678.85 676.171 1678.88L676.153 1678.91C675.507 1679.95 674.546 1680.68 673.348 1680.97ZM671.774 1635.86C664.314 1636.2 658.296 1641.96 657.645 1649.38C657.576 1650.17 657.585 1651 657.624 1651.79L657.667 1652.19C658.152 1654.89 659.016 1656.96 660.887 1659.06C662.721 1661.12 664.15 1662.7 664.658 1665.53L664.793 1666.43C664.92 1667.31 665.243 1667.71 666.097 1668.06C666.311 1668.15 666.666 1668.11 666.899 1668.11L666.839 1667.04C666.551 1663.22 664.905 1658.4 662.633 1655.21C662.307 1654.75 661.492 1653.77 662.496 1653.43L662.52 1653.43C663.089 1653.25 663.497 1653.98 663.765 1654.35C666.309 1657.86 667.696 1662.21 668.209 1666.49L668.318 1667.83C668.323 1667.92 668.314 1668.04 668.352 1668.12L671.792 1668.13L671.793 1658.57C668.415 1658.28 666.447 1656.22 665.472 1653C664.942 1651.25 665.328 1650.88 667.047 1651.16C668.95 1651.48 670.692 1652.38 671.836 1653.97L672.567 1655.14L672.824 1654.62C674.014 1652.51 676.297 1651.27 678.673 1651.09C679.54 1651.03 679.925 1651.16 679.771 1652.13C679.221 1655.59 676.826 1658.37 673.236 1658.58L673.24 1668.12C673.367 1668.14 673.511 1668.13 673.64 1668.13L674.355 1668.13C675.126 1668.13 675.913 1668.16 676.681 1668.11C676.909 1663.77 678.173 1659.51 680.368 1655.75C680.702 1655.18 681.642 1653.39 682.367 1653.42C682.939 1653.43 683.175 1654.05 682.909 1654.49C682.733 1654.79 682.502 1655.05 682.313 1655.34L681.214 1657.2C679.437 1660.45 678.244 1664.38 678.116 1668.11C678.765 1668.08 679.426 1667.96 679.883 1667.45C680.31 1666.98 680.261 1666.28 680.365 1665.69C680.691 1663.83 681.572 1662.03 682.796 1660.59L684.016 1659.23C686.28 1656.56 687.651 1653.5 687.443 1649.98C686.943 1641.54 680.12 1635.56 671.774 1635.86ZM666.831 1652.56C667.56 1654.91 669.135 1656.86 671.675 1657.17C671.307 1655.1 669.702 1653.44 667.724 1652.8L666.831 1652.56ZM678.181 1652.6C675.978 1652.91 674.147 1654.52 673.522 1656.64C673.473 1656.8 673.415 1656.98 673.396 1657.15C675.941 1656.79 677.447 1654.97 678.21 1652.66L678.181 1652.6ZM666.255 1669.54C666.158 1670.02 666.435 1671.49 666.59 1671.93L678.458 1671.95L678.535 1671.64L678.771 1669.87C678.778 1669.78 678.774 1669.67 678.8 1669.58L666.255 1669.54ZM666.786 1673.39C665.619 1673.47 666.051 1674.69 666.586 1674.76C666.957 1674.81 667.362 1674.78 667.736 1674.78L678.287 1674.78C679.37 1674.64 679.042 1673.46 678.305 1673.4C677.871 1673.36 677.412 1673.39 676.976 1673.39L666.786 1673.39ZM669.096 1676.23C668.92 1676.23 667.893 1676.2 667.811 1676.28C667.985 1677.38 668.571 1677.51 669.529 1677.51L675.963 1677.51C676.781 1677.46 677.095 1677.06 677.242 1676.27C676.89 1676.21 676.518 1676.23 676.162 1676.23L669.096 1676.23ZM670.735 1678.97C671.788 1679.62 672.902 1679.83 674.013 1679.22L674.203 1679.07C674.244 1679.03 674.316 1678.99 674.37 1678.97L670.735 1678.97Z" fill="#0A3445"/>
<path d="M684.455 1651.35C683.823 1651.39 683.6 1650.94 683.581 1650.41C683.4 1645.29 680.125 1641.05 674.99 1640.01L674.311 1639.9C674.169 1639.88 673.971 1639.87 673.843 1639.8C673.316 1639.53 673.295 1638.7 674.031 1638.49C674.37 1638.45 674.715 1638.51 675.049 1638.56C680.798 1639.48 684.718 1644.38 685.005 1650.09C685.032 1650.62 685.095 1651.19 684.455 1651.35Z" fill="#0A3445"/>
</g>
<g clip-path="url(#clip2_156_212)">
<rect width="85.38" height="87.15" transform="translate(942.49 536.279)" fill="white"/>
<path d="M950 546L952.241 554.365L958.365 548.241L950 546ZM954.243 551.303L970.071 567.131L971.131 566.071L955.303 550.243L954.243 551.303Z" fill="#0A3445"/>
<path d="M950 614.602L952.241 606.236L958.365 612.36L950 614.602ZM954.243 609.298L970.071 593.47L971.131 594.531L955.303 610.359L954.243 609.298Z" fill="#0A3445"/>
<path d="M1020.6 546L1018.36 554.365L1012.24 548.241L1020.6 546ZM1016.36 551.303L1000.53 567.131L999.47 566.071L1015.3 550.243L1016.36 551.303Z" fill="#0A3445"/>
<path d="M1020.6 614.602L1018.36 606.236L1012.24 612.36L1020.6 614.602ZM1016.36 609.298L1000.53 593.47L999.47 594.531L1015.3 610.359L1016.36 609.298Z" fill="#0A3445"/>
<path d="M1023 577.75L1015.5 573.42V582.08L1023 577.75ZM1016.25 577H1002V578.5H1016.25V577Z" fill="#0A3445"/>
<path d="M947 577.75L954.5 573.42V582.08L947 577.75ZM953.75 577H968V578.5H953.75V577Z" fill="#0A3445"/>
<path d="M981.244 594.418L970.416 579.603C970.139 579.216 969.839 578.831 969.589 578.426C969.112 577.656 969.492 577.291 969.947 576.624L975.022 569.308C975.566 568.506 975.726 568.547 976.607 568.546L993.247 568.545L993.848 568.537C994.677 568.526 994.763 568.979 995.194 569.607L999.991 576.5C1000.86 577.763 1000.97 577.714 1000.03 579.009L990.297 592.368L985.72 598.513C985.571 598.699 985.409 598.834 985.164 598.859C984.465 598.931 984.252 598.528 983.875 598.005L981.244 594.418ZM987.091 570.52L990.256 574.795L990.436 574.002L991.151 570.893C991.176 570.777 991.218 570.642 991.224 570.524L987.091 570.52ZM978.998 570.52L978.778 570.533L979.757 574.808L981.017 573.104L982.561 570.942C982.643 570.829 982.757 570.602 982.865 570.526C982.743 570.507 982.601 570.52 982.476 570.52L978.998 570.52ZM993.266 570.797C993.059 571.331 992.954 571.929 992.819 572.487L991.912 576.232C991.889 576.327 991.881 576.444 991.834 576.53L996.131 576.523L997.564 576.51C997.451 576.381 997.37 576.198 997.271 576.053L994.079 571.623C993.832 571.304 993.642 570.974 993.266 570.797ZM985.023 570.955C984.784 571.309 984.508 571.635 984.252 571.977L981.104 576.308C981.055 576.376 981.034 576.446 980.979 576.514L985.012 576.523L989.016 576.501C988.992 576.484 988.611 575.911 988.564 575.844L985.023 570.955ZM976.441 571.073C975.995 571.212 975.787 571.726 975.539 572.085L972.696 576.09C972.628 576.185 972.548 576.282 972.494 576.386C972.42 576.53 972.343 576.526 972.546 576.525L974.118 576.523L978.141 576.491C978.106 576.405 978.102 576.299 978.08 576.208L977.056 571.871C976.95 571.379 977.016 571.008 976.441 571.073ZM984.459 578.572L980.573 578.596C980.636 578.697 980.657 578.898 980.693 579.016L984.521 591.734C984.679 592.25 984.81 592.796 985.012 593.296L985.136 592.883L989.366 578.776C989.386 578.701 989.393 578.635 989.441 578.573L984.459 578.572ZM972.021 578.572C972.146 578.679 972.239 578.814 972.337 578.948L973.945 581.189L983.033 593.562C983.051 593.56 983.045 593.564 983.054 593.555L981.369 588.05L978.643 578.956C978.6 578.827 978.57 578.694 978.507 578.573L972.021 578.572ZM991.447 578.572L989.562 584.999L987.075 593.165C987.033 593.293 986.971 593.443 986.965 593.58C987.104 593.435 987.21 593.259 987.327 593.097L989.734 589.81L997.954 578.571L991.447 578.572Z" fill="#0A3445"/>
<path fill-rule="evenodd" clip-rule="evenodd" d="M1024 543H1000V538H1024H1029V543V562H1024V543ZM947 562V543H971V538H947H942V543V562H947ZM942 594H947V617H971V622H947H942V617V594ZM1024 594H1029V617V622H1024H1000V617H1024V594Z" fill="#0A3445"/>
</g>
<rect width="85.38" height="87.15" transform="translate(942.49 1072.56)" fill="white"/>
<path d="M977.991 1143.64L957.939 1115.8C957.427 1115.07 956.871 1114.34 956.408 1113.58C955.525 1112.14 956.229 1111.45 957.071 1110.2L966.468 1096.45C967.477 1094.94 967.774 1095.02 969.405 1095.02L1000.22 1095.01L1001.33 1095C1002.87 1094.98 1003.03 1095.83 1003.83 1097.01L1012.71 1109.97C1014.31 1112.34 1014.52 1112.25 1012.79 1114.68L994.756 1139.79L986.28 1151.33C986.004 1151.68 985.705 1151.94 985.251 1151.98C983.956 1152.12 983.563 1151.36 982.864 1150.38L977.991 1143.64ZM988.819 1098.73L994.68 1106.76L995.013 1105.27L996.338 1099.43C996.384 1099.21 996.462 1098.95 996.473 1098.73L988.819 1098.73ZM973.832 1098.73L973.425 1098.75L975.237 1106.78L977.572 1103.58L980.43 1099.52C980.583 1099.31 980.793 1098.88 980.993 1098.74C980.767 1098.7 980.504 1098.73 980.274 1098.73L973.832 1098.73ZM1000.25 1099.25C999.87 1100.25 999.676 1101.37 999.427 1102.42L997.748 1109.46C997.704 1109.64 997.69 1109.86 997.603 1110.02L1005.56 1110.01L1008.21 1109.98C1008 1109.74 1007.85 1109.4 1007.67 1109.13L1001.76 1100.8C1001.3 1100.2 1000.95 1099.58 1000.25 1099.25ZM984.989 1099.54C984.546 1100.21 984.036 1100.82 983.563 1101.47L977.732 1109.6C977.641 1109.73 977.603 1109.86 977.501 1109.99L984.97 1110.01L992.384 1109.97C992.34 1109.93 991.634 1108.86 991.547 1108.73L984.989 1099.54ZM969.098 1099.77C968.271 1100.03 967.886 1100.99 967.427 1101.67L962.161 1109.19C962.036 1109.37 961.888 1109.56 961.788 1109.75C961.651 1110.02 961.507 1110.01 961.884 1110.01L964.795 1110.01L972.245 1109.95C972.181 1109.79 972.173 1109.59 972.132 1109.42L970.235 1101.26C970.04 1100.34 970.162 1099.64 969.098 1099.77ZM983.945 1113.86L976.75 1113.9C976.866 1114.09 976.905 1114.47 976.972 1114.69L984.061 1138.59C984.353 1139.56 984.595 1140.59 984.969 1141.53L985.199 1140.75L993.032 1114.24C993.07 1114.1 993.082 1113.98 993.171 1113.86L983.945 1113.86ZM960.912 1113.86C961.144 1114.06 961.316 1114.31 961.498 1114.57L964.475 1118.78L981.304 1142.03C981.338 1142.03 981.327 1142.03 981.343 1142.02L978.223 1131.67L973.174 1114.58C973.095 1114.34 973.039 1114.09 972.922 1113.86L960.912 1113.86ZM996.886 1113.86L993.395 1125.94L988.79 1141.28C988.712 1141.52 988.597 1141.81 988.587 1142.06C988.844 1141.79 989.039 1141.46 989.256 1141.15L993.713 1134.98L1008.94 1113.86L996.886 1113.86Z" fill="#0A3445"/>
<path d="M956 1112C956 1112.28 956.224 1112.5 956.5 1112.5C956.776 1112.5 957 1112.28 957 1112L956 1112ZM957 1112L957 1082L956 1082L956 1112L957 1112Z" fill="#0A3445"/>
<path d="M1013 1112C1013 1112.28 1013.22 1112.5 1013.5 1112.5C1013.78 1112.5 1014 1112.28 1014 1112L1013 1112ZM1014 1112L1014 1082L1013 1082L1013 1112L1014 1112Z" fill="#0A3445"/>
<path d="M956.75 1085.5L961.75 1088.39V1082.61L956.75 1085.5ZM1013.25 1085.5L1008.25 1082.61V1088.39L1013.25 1085.5ZM961.25 1086H1008.75V1085H961.25V1086Z" fill="#0A3445"/>
<rect width="6" height="9" transform="translate(982 1080)" fill="white"/>
<path d="M983.752 1086.16V1085.72C983.752 1085.46 983.789 1085.22 983.863 1085.02C983.938 1084.81 984.057 1084.62 984.221 1084.44C984.385 1084.25 984.602 1084.06 984.871 1083.86C985.113 1083.69 985.307 1083.54 985.451 1083.4C985.6 1083.26 985.707 1083.13 985.773 1082.99C985.844 1082.86 985.879 1082.7 985.879 1082.53C985.879 1082.28 985.785 1082.08 985.598 1081.95C985.41 1081.82 985.148 1081.75 984.812 1081.75C984.477 1081.75 984.143 1081.8 983.811 1081.91C983.482 1082.02 983.148 1082.15 982.809 1082.33L982.17 1081.04C982.561 1080.82 982.984 1080.65 983.441 1080.52C983.898 1080.38 984.398 1080.31 984.941 1080.31C985.777 1080.31 986.424 1080.51 986.881 1080.91C987.342 1081.31 987.572 1081.82 987.572 1082.44C987.572 1082.77 987.52 1083.05 987.414 1083.29C987.312 1083.53 987.156 1083.75 986.945 1083.96C986.738 1084.16 986.479 1084.38 986.166 1084.61C985.932 1084.78 985.752 1084.92 985.627 1085.04C985.502 1085.16 985.416 1085.27 985.369 1085.39C985.326 1085.5 985.305 1085.64 985.305 1085.81V1086.16H983.752ZM983.564 1088.16C983.564 1087.79 983.664 1087.54 983.863 1087.39C984.066 1087.24 984.311 1087.17 984.596 1087.17C984.873 1087.17 985.111 1087.24 985.311 1087.39C985.514 1087.54 985.615 1087.79 985.615 1088.16C985.615 1088.51 985.514 1088.77 985.311 1088.92C985.111 1089.08 984.873 1089.16 984.596 1089.16C984.311 1089.16 984.066 1089.08 983.863 1088.92C983.664 1088.77 983.564 1088.51 983.564 1088.16Z" fill="#0A3445"/>
</g>
<defs>
<clipPath id="clip0_156_212">
<rect width="1404" height="1872" fill="white"/>
</clipPath>
<clipPath id="clip1_156_212">
<rect width="85.15" height="87.15" fill="white" transform="translate(629.76 1608.84)"/>
</clipPath>
<clipPath id="clip2_156_212">
<rect width="85.38" height="87.15" fill="white" transform="translate(942.49 536.279)"/>
</clipPath>
</defs>
</svg>
